<svg id="Layer_1" data-name="Layer 1" xmlns="http://www.w3.org/2000/svg" viewBox="0 0 260.44 394.35"><title>BWA_cassettes_wit</title><path d="M209.25,62.91h0l-1.48,5h-1.26l-2.27-7.1h1.51l1.36,5h0l1.61-5h1l1.61,5h0l1.35-5h1.51L212,67.88h-1.26Z" transform="translate(-105.93 -47.6)" fill="#fff"/><path d="M216.31,57.91h1.43v1.43h-1.43Zm0,2.87h1.43v7.1h-1.43Z" transform="translate(-105.93 -47.6)" fill="#fff"/><path d="M220.67,57.91h1.43v6.2h0l2.73-3.33h1.71l-2.45,2.77,2.78,4.33h-1.79l-1.89-3.32-1.12,1.27v2h-1.43Z" transform="translate(-105.93 -47.6)" fill="#fff"/><path d="M229,57.91h1.43v1.43H229Zm0,2.87h1.43v7.1H229Z" transform="translate(-105.93 -47.6)" fill="#fff"/><path d="M241.95,62.91h0l-1.48,5h-1.26l-2.27-7.1h1.51l1.36,5h0l1.61-5h1l1.61,5h0l1.35-5H247l-2.26,7.1h-1.26Z" transform="translate(-105.93 -47.6)" fill="#fff"/><path d="M249,57.91h1.43v1.43H249Zm0,2.87h1.43v7.1H249Z" transform="translate(-105.93 -47.6)" fill="#fff"/><path d="M253.45,58.62h1.43v2.16h1v1.09h-1V66c0,.36.16.54.51.53h.53v1.35h-.75a1.69,1.69,0,0,1-1.23-.46,1.64,1.64,0,0,1-.49-1.29V61.87h-.71V60.78h.71Z" transform="translate(-105.93 -47.6)" fill="#fff"/><path d="M258.31,57.91h1.43v3.62h0a2.29,2.29,0,0,1,1.85-.84,2.43,2.43,0,0,1,1.61.62,2.41,2.41,0,0,1,.76,1.85v4.72h-1.43V63.65a1.52,1.52,0,0,0-.4-1.13,1.35,1.35,0,0,0-1-.4,1.37,1.37,0,0,0-1,.4,1.51,1.51,0,0,0-.4,1.13v4.22h-1.43Z" transform="translate(-105.93 -47.6)" fill="#fff"/><path d="M276.51,66.73a3.82,3.82,0,0,1-1.09.87A3.06,3.06,0,0,1,274,68a3.2,3.2,0,0,1-2.21-.85,3.56,3.56,0,0,1-1-2.77,3.63,3.63,0,0,1,1-2.8,3.14,3.14,0,0,1,2.21-.84,3.22,3.22,0,0,1,1.46.34,3.62,3.62,0,0,1,1.09.9l-1.05.94a1.79,1.79,0,0,0-1.44-.75q-1.82,0-1.85,2.21T274,66.53a1.75,1.75,0,0,0,1.44-.74Z" transform="translate(-105.93 -47.6)" fill="#fff"/><path d="M282.27,67.25h0a1.18,1.18,0,0,1-.62.53,2.92,2.92,0,0,1-1.13.18,2.59,2.59,0,0,1-1.83-.63,2,2,0,0,1-.68-1.54,2,2,0,0,1,.59-1.48,2.35,2.35,0,0,1,1.72-.62h2v-.75q0-.94-1.46-.91a2.6,2.6,0,0,0-.84.11,1,1,0,0,0-.51.44l-1.12-.85a2.77,2.77,0,0,1,2.4-1,3.81,3.81,0,0,1,2.14.51A2.06,2.06,0,0,1,283.7,63v4.85h-1.43Zm0-2.38h-1.71q-1.24,0-1.23.85a.76.76,0,0,0,.32.62,1.5,1.5,0,0,0,1,.28,2.5,2.5,0,0,0,1.26-.21q.34-.23.33-1Z" transform="translate(-105.93 -47.6)" fill="#fff"/><path d="M286.6,60.78H288v.75h0a2.38,2.38,0,0,1,3.34-.29l-1,1.24a1.5,1.5,0,0,0-.94-.36,1.34,1.34,0,0,0-.94.36A1.39,1.39,0,0,0,288,63.6v4.27H286.6Z" transform="translate(-105.93 -47.6)" fill="#fff"/><path d="M293.92,64.87a1.66,1.66,0,0,0,.49,1.3,1.64,1.64,0,0,0,1.2.45,2.13,2.13,0,0,0,1.55-.69l1,.88A3.35,3.35,0,0,1,295.65,68a3.7,3.7,0,0,1-1.09-.16,2.67,2.67,0,0,1-.52-.24,2.53,2.53,0,0,1-.5-.32,2.81,2.81,0,0,1-.73-1.11,4.37,4.37,0,0,1-.31-1.78,4.94,4.94,0,0,1,.27-1.75,3,3,0,0,1,.68-1.12,2.55,2.55,0,0,1,1-.6,3.05,3.05,0,0,1,1-.18,3,3,0,0,1,2.06.8,2.91,2.91,0,0,1,.87,2.2v1.18Zm3-1.18a1.8,1.8,0,0,0-.44-1.25,1.58,1.58,0,0,0-2.11,0,1.9,1.9,0,0,0-.44,1.25Z" transform="translate(-105.93 -47.6)" fill="#fff"/><path d="M346.21,47.6H137.3a4.78,4.78,0,0,0-4.77,4.77V74.58a4.78,4.78,0,0,0,4.77,4.77H346.21A4.78,4.78,0,0,0,351,74.58V52.37A4.78,4.78,0,0,0,346.21,47.6ZM154.83,67.88h-5.09v-8h1.21v6.83h3.88Zm178,7.41H170.26V51.66H332.84Z" transform="translate(-105.93 -47.6)" fill="#fff"/><path d="M332.21,84H123.3a4.78,4.78,0,0,0-4.77,4.77V111a4.78,4.78,0,0,0,4.77,4.77H332.21A4.78,4.78,0,0,0,337,111V88.77A4.78,4.78,0,0,0,332.21,84ZM133.56,103.52h-5.09v-8h1.21v6.83h3.88Zm2.1.07h-.87l2.68-8.1h.88Zm6.8,0a4.52,4.52,0,0,1-3-1.09l.79-.91a3.51,3.51,0,0,0,2.26.79q1.55,0,1.58-1.11,0-.89-1-1.07L142,100a2.61,2.61,0,0,1-1.56-.76,2.12,2.12,0,0,1-.55-1.48,2.18,2.18,0,0,1,.69-1.68,2.7,2.7,0,0,1,1.91-.65,4.48,4.48,0,0,1,2.59.83l-.67,1a3.65,3.65,0,0,0-2-.61,1.51,1.51,0,0,0-.93.28,1,1,0,0,0-.4.86.88.88,0,0,0,.27.62,1.55,1.55,0,0,0,.86.39l.9.13a2.47,2.47,0,0,1,1.66.8,2.26,2.26,0,0,1,.53,1.49Q145.2,103.55,142.46,103.59Zm176.38,8.1H156.26V88.06H318.84Z" transform="translate(-105.93 -47.6)" fill="#fff"/><path d="M181.91,93.55h1.43v6.2h0l2.73-3.33h1.71l-2.45,2.77,2.78,4.33h-1.79l-1.89-3.32-1.12,1.27v2h-1.43Z" transform="translate(-105.93 -47.6)" fill="#fff"/><path d="M194,102.89h0a1.19,1.19,0,0,1-.62.53,2.92,2.92,0,0,1-1.13.18,2.59,2.59,0,0,1-1.83-.63,2,2,0,0,1-.68-1.54,2,2,0,0,1,.59-1.48,2.35,2.35,0,0,1,1.72-.62h2v-.75q0-.94-1.46-.91a2.6,2.6,0,0,0-.84.11,1,1,0,0,0-.51.44L190,97.38a2.77,2.77,0,0,1,2.4-1,3.81,3.81,0,0,1,2.14.51,2.07,2.07,0,0,1,.81,1.83v4.85H194Zm0-2.38h-1.71q-1.24,0-1.23.85a.76.76,0,0,0,.32.62,1.49,1.49,0,0,0,1,.28,2.5,2.5,0,0,0,1.26-.21q.33-.23.33-1Z" transform="translate(-105.93 -47.6)" fill="#fff"/><path d="M202.27,102.78a2.41,2.41,0,0,1-1.83.83,2.25,2.25,0,0,1-1.15-.29,2.53,2.53,0,0,1-.73-.57,2.15,2.15,0,0,1-.4-.85A9,9,0,0,1,198,100a9.32,9.32,0,0,1,.13-1.93,2.1,2.1,0,0,1,.4-.84,2.3,2.3,0,0,1,.73-.6,2.46,2.46,0,0,1,1.15-.27,2.41,2.41,0,0,1,1.83.84v-.75h1.43v6.92a3,3,0,0,1-.92,2.35,3.21,3.21,0,0,1-2.16.77,3.25,3.25,0,0,1-2.46-1.19l1.11-.88a2.7,2.7,0,0,0,.63.43,1.7,1.7,0,0,0,1.93-.19,1.52,1.52,0,0,0,.45-1.13Zm-2.82-2.8a7.53,7.53,0,0,0,.05,1.12,1,1,0,0,0,.23.53,1.31,1.31,0,0,0,.44.35,1.37,1.37,0,0,0,1.39,0,1.34,1.34,0,0,0,.42-.35,1.15,1.15,0,0,0,.24-.53,10.05,10.05,0,0,0,0-1.12,10.66,10.66,0,0,0,0-1.15,1.06,1.06,0,0,0-.24-.52,1.67,1.67,0,0,0-.42-.38,1.51,1.51,0,0,0-1.39,0,1.62,1.62,0,0,0-.44.38,1,1,0,0,0-.23.52A8,8,0,0,0,199.45,100Z" transform="translate(-105.93 -47.6)" fill="#fff"/><path d="M210.59,102.78a2.41,2.41,0,0,1-1.83.83,2.25,2.25,0,0,1-1.15-.29,2.53,2.53,0,0,1-.73-.57,2.15,2.15,0,0,1-.4-.85,9,9,0,0,1-.13-1.9,9.32,9.32,0,0,1,.13-1.93,2.1,2.1,0,0,1,.4-.84,2.3,2.3,0,0,1,.73-.6,2.46,2.46,0,0,1,1.15-.27,2.41,2.41,0,0,1,1.83.84v-.75H212v6.92a3,3,0,0,1-.92,2.35,3.21,3.21,0,0,1-2.16.77,3.25,3.25,0,0,1-2.46-1.19l1.11-.88a2.7,2.7,0,0,0,.63.43,1.7,1.7,0,0,0,1.93-.19,1.52,1.52,0,0,0,.45-1.13Zm-2.82-2.8a7.53,7.53,0,0,0,.05,1.12,1,1,0,0,0,.23.53,1.31,1.31,0,0,0,.44.35,1.37,1.37,0,0,0,1.39,0,1.34,1.34,0,0,0,.42-.35,1.15,1.15,0,0,0,.24-.53,10.05,10.05,0,0,0,0-1.12,10.66,10.66,0,0,0,0-1.15,1.06,1.06,0,0,0-.24-.52,1.67,1.67,0,0,0-.42-.38,1.51,1.51,0,0,0-1.39,0,1.62,1.62,0,0,0-.44.38,1,1,0,0,0-.23.52A8,8,0,0,0,207.77,100Z" transform="translate(-105.93 -47.6)" fill="#fff"/><path d="M214.91,93.55h1.43v8.13q0,.49.53.49h.49v1.35h-.64a2,2,0,0,1-1.29-.39,1.55,1.55,0,0,1-.53-1.33Z" transform="translate(-105.93 -47.6)" fill="#fff"/><path d="M220.65,100.51a1.66,1.66,0,0,0,.49,1.3,1.64,1.64,0,0,0,1.2.45,2.13,2.13,0,0,0,1.55-.69l1,.88a3.35,3.35,0,0,1-2.56,1.15,3.7,3.7,0,0,1-1.09-.16,2.66,2.66,0,0,1-.52-.24,2.51,2.51,0,0,1-.5-.32,2.82,2.82,0,0,1-.73-1.11,4.37,4.37,0,0,1-.31-1.78,4.94,4.94,0,0,1,.27-1.75,3,3,0,0,1,.68-1.12,2.55,2.55,0,0,1,1-.6,3,3,0,0,1,1-.18,3,3,0,0,1,2.06.8,2.91,2.91,0,0,1,.87,2.2v1.18Zm3-1.18a1.8,1.8,0,0,0-.44-1.25,1.58,1.58,0,0,0-2.11,0,1.89,1.89,0,0,0-.44,1.25Z" transform="translate(-105.93 -47.6)" fill="#fff"/><path d="M231,96.42h1.51l1.68,5h0l1.67-5h1.52L234.37,105a2,2,0,0,1-.81,1.11,2.4,2.4,0,0,1-1.19.29h-.47V105h.42a1,1,0,0,0,.52-.15.83.83,0,0,0,.33-.46l.39-1.19Z" transform="translate(-105.93 -47.6)" fill="#fff"/><path d="M238.86,100a6.18,6.18,0,0,1,.18-1.72,2.49,2.49,0,0,1,.59-1,2.7,2.7,0,0,1,.82-.64,3,3,0,0,1,1.33-.28,3.1,3.1,0,0,1,1.36.28,2.55,2.55,0,0,1,.79.64,2.23,2.23,0,0,1,.6,1,6.64,6.64,0,0,1,.17,1.72,6.48,6.48,0,0,1-.17,1.71,2.43,2.43,0,0,1-.6,1,2.2,2.2,0,0,1-.33.31,1.56,1.56,0,0,1-.46.29,2.85,2.85,0,0,1-1.36.31,2.79,2.79,0,0,1-1.33-.31,2.66,2.66,0,0,1-1.41-1.62A6,6,0,0,1,238.86,100Zm4.42,0a6.34,6.34,0,0,0-.07-1.11,1.31,1.31,0,0,0-.28-.59,1,1,0,0,0-.46-.38,1.54,1.54,0,0,0-.68-.14,1.57,1.57,0,0,0-.67.14,1.27,1.27,0,0,0-.48.38,1.65,1.65,0,0,0-.27.59,5.24,5.24,0,0,0-.08,1.09,5.09,5.09,0,0,0,.08,1.08,1.79,1.79,0,0,0,.27.62,1.74,1.74,0,0,0,.48.36,1.51,1.51,0,0,0,.67.15,1.48,1.48,0,0,0,.68-.15,1.34,1.34,0,0,0,.46-.36,1.41,1.41,0,0,0,.28-.62A6,6,0,0,0,243.28,100Z" transform="translate(-105.93 -47.6)" fill="#fff"/><path d="M247.26,96.42h1.43v4.22a1.52,1.52,0,0,0,.4,1.12,1.36,1.36,0,0,0,1,.4,1.33,1.33,0,0,0,1-.4,1.53,1.53,0,0,0,.4-1.12V96.42h1.43v7.1H251.5v-.76h0a2.28,2.28,0,0,1-1.84.84A2.4,2.4,0,0,1,248,103a2.22,2.22,0,0,1-.79-1.82Z" transform="translate(-105.93 -47.6)" fill="#fff"/><path d="M255.83,96.42h1.43v.75h0a2.38,2.38,0,0,1,3.34-.29l-1,1.24a1.5,1.5,0,0,0-.94-.36,1.34,1.34,0,0,0-.94.36,1.39,1.39,0,0,0-.45,1.13v4.27h-1.43Z" transform="translate(-105.93 -47.6)" fill="#fff"/><path d="M271,102.78a2.42,2.42,0,0,1-1.84.83,2.36,2.36,0,0,1-1.1-.27,2.38,2.38,0,0,1-.8-.66,1.79,1.79,0,0,1-.39-.91,14.18,14.18,0,0,1,0-3.62,1.76,1.76,0,0,1,.39-.88,2.2,2.2,0,0,1,1.9-.93,2.29,2.29,0,0,1,1,.23,4.12,4.12,0,0,1,.83.62V93.55h1.43v10H271Zm-1.4-5a1.44,1.44,0,0,0-.77.17,1.08,1.08,0,0,0-.43.51,2.6,2.6,0,0,0-.17.7,8.17,8.17,0,0,0,0,.83,7.38,7.38,0,0,0,0,.79,2.63,2.63,0,0,0,.17.72,1.18,1.18,0,0,0,.43.51,1.32,1.32,0,0,0,.77.19,1.38,1.38,0,0,0,.8-.21,1,1,0,0,0,.4-.52,2.66,2.66,0,0,0,.18-.72q0-.39,0-.77t0-.79a2.64,2.64,0,0,0-.18-.7,1,1,0,0,0-.4-.52A1.41,1.41,0,0,0,269.58,97.76Z" transform="translate(-105.93 -47.6)" fill="#fff"/><path d="M278.78,102.89h0a1.18,1.18,0,0,1-.62.53,2.92,2.92,0,0,1-1.13.18,2.59,2.59,0,0,1-1.83-.63,2,2,0,0,1-.68-1.54,2,2,0,0,1,.59-1.48,2.35,2.35,0,0,1,1.72-.62h2v-.75q0-.94-1.46-.91a2.6,2.6,0,0,0-.84.11,1,1,0,0,0-.51.44l-1.12-.85a2.77,2.77,0,0,1,2.4-1,3.81,3.81,0,0,1,2.14.51,2.06,2.06,0,0,1,.81,1.83v4.85h-1.43Zm0-2.38h-1.71q-1.24,0-1.23.85a.76.76,0,0,0,.32.62,1.5,1.5,0,0,0,1,.28,2.5,2.5,0,0,0,1.26-.21q.34-.23.33-1Z" transform="translate(-105.93 -47.6)" fill="#fff"/><path d="M283.18,94.26h1.43v2.16h1v1.09h-1v4.14c0,.36.16.54.51.53h.53v1.35h-.75a1.69,1.69,0,0,1-1.23-.46,1.64,1.64,0,0,1-.49-1.29V97.51h-.71V96.42h.71Z" transform="translate(-105.93 -47.6)" fill="#fff"/><path d="M291.76,102.89h0a1.18,1.18,0,0,1-.62.53,2.92,2.92,0,0,1-1.13.18,2.59,2.59,0,0,1-1.83-.63,2,2,0,0,1-.68-1.54,2,2,0,0,1,.59-1.48,2.35,2.35,0,0,1,1.72-.62h2v-.75q0-.94-1.46-.91a2.6,2.6,0,0,0-.84.11,1,1,0,0,0-.51.44l-1.12-.85a2.77,2.77,0,0,1,2.4-1,3.81,3.81,0,0,1,2.14.51,2.06,2.06,0,0,1,.81,1.83v4.85h-1.43Zm0-2.38h-1.71q-1.24,0-1.23.85a.76.76,0,0,0,.32.62,1.5,1.5,0,0,0,1,.28,2.5,2.5,0,0,0,1.26-.21q.34-.23.33-1Z" transform="translate(-105.93 -47.6)" fill="#fff"/><path d="M188,134.71a1.68,1.68,0,0,0-.42-.38,1.51,1.51,0,0,0-1.39,0,1.63,1.63,0,0,0-.44.38,1,1,0,0,0-.23.52,8,8,0,0,0-.05,1.15,7.49,7.49,0,0,0,.05,1.12,1,1,0,0,0,.23.53,1.29,1.29,0,0,0,.44.35,1.37,1.37,0,0,0,1.39,0A1.31,1.31,0,0,0,188,138a1.14,1.14,0,0,0,.24-.53,10,10,0,0,0,0-1.12,10.66,10.66,0,0,0,0-1.15A1.06,1.06,0,0,0,188,134.71Z" transform="translate(-105.93 -47.6)" fill="#fff"/><path d="M180,134.68a1.06,1.06,0,0,0-.46-.38,1.54,1.54,0,0,0-.68-.14,1.56,1.56,0,0,0-.67.14,1.28,1.28,0,0,0-.48.38,1.66,1.66,0,0,0-.27.59,5.24,5.24,0,0,0-.08,1.09,5.09,5.09,0,0,0,.08,1.08,1.79,1.79,0,0,0,.27.62,1.73,1.73,0,0,0,.48.36,1.49,1.49,0,0,0,.67.15,1.47,1.47,0,0,0,.68-.15,1.34,1.34,0,0,0,.46-.36,1.41,1.41,0,0,0,.28-.62,6,6,0,0,0,.07-1.07,6.42,6.42,0,0,0-.07-1.11A1.31,1.31,0,0,0,180,134.68Z" transform="translate(-105.93 -47.6)" fill="#fff"/><path d="M199.85,134.08a1.44,1.44,0,0,0-1.05.4,1.89,1.89,0,0,0-.44,1.25h3a1.8,1.8,0,0,0-.44-1.25A1.44,1.44,0,0,0,199.85,134.08Z" transform="translate(-105.93 -47.6)" fill="#fff"/><path d="M222,134.68a1.06,1.06,0,0,0-.46-.38,1.54,1.54,0,0,0-.68-.14,1.56,1.56,0,0,0-.67.14,1.28,1.28,0,0,0-.48.38,1.66,1.66,0,0,0-.27.59,5.24,5.24,0,0,0-.08,1.09,5.09,5.09,0,0,0,.08,1.08,1.79,1.79,0,0,0,.27.62,1.73,1.73,0,0,0,.48.36,1.49,1.49,0,0,0,.67.15,1.47,1.47,0,0,0,.68-.15,1.34,1.34,0,0,0,.46-.36,1.41,1.41,0,0,0,.28-.62,6,6,0,0,0,.07-1.07,6.42,6.42,0,0,0-.07-1.11A1.31,1.31,0,0,0,222,134.68Z" transform="translate(-105.93 -47.6)" fill="#fff"/><path d="M163.59,134.71a1.68,1.68,0,0,0-.42-.38,1.51,1.51,0,0,0-1.39,0,1.63,1.63,0,0,0-.44.38,1,1,0,0,0-.23.52,8,8,0,0,0-.05,1.15,7.49,7.49,0,0,0,.05,1.12,1,1,0,0,0,.23.53,1.29,1.29,0,0,0,.44.35,1.37,1.37,0,0,0,1.39,0,1.31,1.31,0,0,0,.42-.35,1.14,1.14,0,0,0,.24-.53,10,10,0,0,0,0-1.12,10.66,10.66,0,0,0,0-1.15A1.06,1.06,0,0,0,163.59,134.71Z" transform="translate(-105.93 -47.6)" fill="#fff"/><path d="M171.92,134.68a1.06,1.06,0,0,0-.46-.38,1.54,1.54,0,0,0-.68-.14,1.56,1.56,0,0,0-.67.14,1.28,1.28,0,0,0-.48.38,1.66,1.66,0,0,0-.27.59,5.24,5.24,0,0,0-.08,1.09,5.09,5.09,0,0,0,.08,1.08,1.79,1.79,0,0,0,.27.62,1.73,1.73,0,0,0,.48.36,1.49,1.49,0,0,0,.67.15,1.47,1.47,0,0,0,.68-.15,1.34,1.34,0,0,0,.46-.36,1.41,1.41,0,0,0,.28-.62,6,6,0,0,0,.07-1.07,6.42,6.42,0,0,0-.07-1.11A1.31,1.31,0,0,0,171.92,134.68Z" transform="translate(-105.93 -47.6)" fill="#fff"/><path d="M260.6,134.08a1.44,1.44,0,0,0-1.05.4,1.89,1.89,0,0,0-.44,1.25h3a1.8,1.8,0,0,0-.44-1.25A1.44,1.44,0,0,0,260.6,134.08Z" transform="translate(-105.93 -47.6)" fill="#fff"/><path d="M247.45,134.68a1.06,1.06,0,0,0-.46-.38,1.54,1.54,0,0,0-.68-.14,1.56,1.56,0,0,0-.67.14,1.28,1.28,0,0,0-.48.38,1.66,1.66,0,0,0-.27.59,5.24,5.24,0,0,0-.08,1.09,5.09,5.09,0,0,0,.08,1.08,1.79,1.79,0,0,0,.27.62,1.73,1.73,0,0,0,.48.36,1.49,1.49,0,0,0,.67.15,1.47,1.47,0,0,0,.68-.15,1.34,1.34,0,0,0,.46-.36,1.41,1.41,0,0,0,.28-.62,6,6,0,0,0,.07-1.07,6.42,6.42,0,0,0-.07-1.11A1.31,1.31,0,0,0,247.45,134.68Z" transform="translate(-105.93 -47.6)" fill="#fff"/><path d="M214.67,351.08a1.44,1.44,0,0,0-1.05.4,1.89,1.89,0,0,0-.44,1.25h3a1.8,1.8,0,0,0-.44-1.25A1.44,1.44,0,0,0,214.67,351.08Z" transform="translate(-105.93 -47.6)" fill="#fff"/><path d="M155.88,351.68a1.06,1.06,0,0,0-.46-.38,1.54,1.54,0,0,0-.68-.14,1.56,1.56,0,0,0-.67.14,1.28,1.28,0,0,0-.48.38,1.66,1.66,0,0,0-.27.59,5.24,5.24,0,0,0-.08,1.09,5.09,5.09,0,0,0,.08,1.08,1.79,1.79,0,0,0,.27.62,1.73,1.73,0,0,0,.48.36,1.49,1.49,0,0,0,.67.15,1.47,1.47,0,0,0,.68-.15,1.34,1.34,0,0,0,.46-.36,1.41,1.41,0,0,0,.28-.62,6,6,0,0,0,.07-1.07,6.42,6.42,0,0,0-.07-1.11A1.31,1.31,0,0,0,155.88,351.68Z" transform="translate(-105.93 -47.6)" fill="#fff"/><path d="M147.89,351.84a1,1,0,0,0-.42-.51,1.59,1.59,0,0,0-.8-.17,1.3,1.3,0,0,0-.76.2,1.18,1.18,0,0,0-.43.52,2.63,2.63,0,0,0-.17.7,7.36,7.36,0,0,0,0,1.55,2.63,2.63,0,0,0,.17.72,1.16,1.16,0,0,0,.43.52,1.26,1.26,0,0,0,.76.21,1.44,1.44,0,0,0,.8-.19,1.09,1.09,0,0,0,.42-.51,2.59,2.59,0,0,0,.18-.72c0-.25,0-.52,0-.79s0-.56,0-.83A2.59,2.59,0,0,0,147.89,351.84Z" transform="translate(-105.93 -47.6)" fill="#fff"/><path d="M134,351.08a1.44,1.44,0,0,0-1.05.4,1.89,1.89,0,0,0-.44,1.25h3a1.8,1.8,0,0,0-.44-1.25A1.44,1.44,0,0,0,134,351.08Z" transform="translate(-105.93 -47.6)" fill="#fff"/><path d="M319.61,337.4H110.7a4.78,4.78,0,0,0-4.77,4.77v22.22a4.78,4.78,0,0,0,4.77,4.77H319.61a4.78,4.78,0,0,0,4.77-4.77V342.17A4.78,4.78,0,0,0,319.61,337.4ZM120.43,350.91h-1V355c0,.36.16.54.51.53h.53v1.35h-.75a1.69,1.69,0,0,1-1.23-.46,1.64,1.64,0,0,1-.49-1.29v-4.26h-.71v-1.09H118v-2.16h1.43v2.16h1Zm8.06,6h-1.43V352.7a1.52,1.52,0,0,0-.4-1.13,1.35,1.35,0,0,0-1-.4,1.37,1.37,0,0,0-1,.4,1.51,1.51,0,0,0-.4,1.13v4.22h-1.43V347h1.43v3.62h0a2.29,2.29,0,0,1,1.85-.84,2.44,2.44,0,0,1,1.61.62,2.41,2.41,0,0,1,.76,1.85Zm8.4-3h-4.42a1.66,1.66,0,0,0,.49,1.3,1.64,1.64,0,0,0,1.2.45,2.13,2.13,0,0,0,1.55-.69l1,.88a3.34,3.34,0,0,1-2.56,1.15,3.7,3.7,0,0,1-1.09-.16,2.57,2.57,0,0,1-.52-.24,2.44,2.44,0,0,1-.5-.32,2.81,2.81,0,0,1-.73-1.11,4.36,4.36,0,0,1-.31-1.78,4.94,4.94,0,0,1,.27-1.75,3.06,3.06,0,0,1,.68-1.12,2.55,2.55,0,0,1,1-.6,3,3,0,0,1,1-.18,3,3,0,0,1,2.06.8,2.91,2.91,0,0,1,.87,2.2Zm12.52,1.26a1.88,1.88,0,0,1-.4.91,2.13,2.13,0,0,1-.77.66,2.46,2.46,0,0,1-1.13.27,2.42,2.42,0,0,1-1.83-.83v.75h-1.43V347h1.43v3.62a3.61,3.61,0,0,1,.85-.62,2.07,2.07,0,0,1,1-.23,2.21,2.21,0,0,1,1.91.93,1.87,1.87,0,0,1,.4.88,16.05,16.05,0,0,1,0,3.62Zm8.08-.1a2.43,2.43,0,0,1-.6,1,2.17,2.17,0,0,1-.33.31,1.54,1.54,0,0,1-.46.29,2.82,2.82,0,0,1-1.36.31,2.76,2.76,0,0,1-1.33-.31,2.67,2.67,0,0,1-.82-.6,2.73,2.73,0,0,1-.59-1,6,6,0,0,1-.18-1.71,6.19,6.19,0,0,1,.18-1.72,2.5,2.5,0,0,1,.59-1,2.69,2.69,0,0,1,.82-.64,3,3,0,0,1,1.33-.28,3.1,3.1,0,0,1,1.36.28,2.56,2.56,0,0,1,.79.64,2.24,2.24,0,0,1,.6,1,6.69,6.69,0,0,1,.17,1.72A6.5,6.5,0,0,1,157.49,355.07Zm5.27-4.16h-1V355c0,.36.16.54.51.53h.53v1.35H162a1.69,1.69,0,0,1-1.23-.46,1.64,1.64,0,0,1-.49-1.29v-4.26h-.71v-1.09h.71v-2.16h1.43v2.16h1Zm8.27,6h-1.43v-7.1H171Zm0-8.54h-1.43V347H171Zm7.37,8a3.64,3.64,0,0,1-2.1.59,4.51,4.51,0,0,1-3.12-1.27l1-1a3,3,0,0,0,2.24.91,1.89,1.89,0,0,0,1-.24.75.75,0,0,0,.39-.67.59.59,0,0,0-.23-.53,1.24,1.24,0,0,0-.64-.17l-1.26-.11a2.39,2.39,0,0,1-1.46-.6,1.82,1.82,0,0,1-.59-1.42,1.92,1.92,0,0,1,.77-1.64,3.07,3.07,0,0,1,1.87-.55,5.69,5.69,0,0,1,.88.06,4.51,4.51,0,0,1,.73.19,4.17,4.17,0,0,1,1.18.72l-.88,1a4.48,4.48,0,0,0-.87-.49,2.93,2.93,0,0,0-1-.17,1.42,1.42,0,0,0-.94.24.77.77,0,0,0-.28.62.48.48,0,0,0,.21.42,1.22,1.22,0,0,0,.72.25l1.18.09a2.2,2.2,0,0,1,1.6.67,2.26,2.26,0,0,1,.46,1.46A1.84,1.84,0,0,1,178.4,356.41Zm17.73.51H194.7V352.7a1.54,1.54,0,0,0-.39-1.13,1.35,1.35,0,0,0-1-.4,1.37,1.37,0,0,0-1,.4,1.51,1.51,0,0,0-.4,1.13v4.22h-1.43V352.7a1.54,1.54,0,0,0-.39-1.13,1.37,1.37,0,0,0-1-.4,1.35,1.35,0,0,0-1,.4,1.49,1.49,0,0,0-.41,1.13v4.22h-1.43v-7.1h1.43v.75h0a2.3,2.3,0,0,1,1.85-.84,2.67,2.67,0,0,1,1.19.25,3.54,3.54,0,0,1,.81.68,2.8,2.8,0,0,1,2.24-.93,2.44,2.44,0,0,1,1.61.62,2.39,2.39,0,0,1,.75,1.85Zm4.45,0h-1.43v-7.1h1.43Zm0-8.54h-1.43V347h1.43Zm8.61,8.54h-1.43V352.7a1.52,1.52,0,0,0-.4-1.13,1.35,1.35,0,0,0-1-.4,1.37,1.37,0,0,0-1,.4,1.51,1.51,0,0,0-.4,1.13v4.22h-1.43v-7.1H205v.75h0a2.29,2.29,0,0,1,1.85-.84,2.44,2.44,0,0,1,1.61.62,2.41,2.41,0,0,1,.76,1.85Zm8.4-3h-4.42a1.66,1.66,0,0,0,.49,1.3,1.64,1.64,0,0,0,1.2.45,2.13,2.13,0,0,0,1.55-.69l1,.88a3.34,3.34,0,0,1-2.56,1.15,3.7,3.7,0,0,1-1.09-.16,2.57,2.57,0,0,1-.52-.24,2.44,2.44,0,0,1-.5-.32,2.81,2.81,0,0,1-.73-1.11,4.36,4.36,0,0,1-.31-1.78,4.94,4.94,0,0,1,.27-1.75,3.06,3.06,0,0,1,.68-1.12,2.55,2.55,0,0,1,1-.6,3,3,0,0,1,1-.18,3,3,0,0,1,2.06.8,2.91,2.91,0,0,1,.87,2.2ZM308.26,357a4.52,4.52,0,0,1-3-1.09L306,355a3.51,3.51,0,0,0,2.26.79q1.55,0,1.57-1.11,0-.89-1-1.07l-1.06-.15a2.61,2.61,0,0,1-1.56-.76,2.12,2.12,0,0,1-.55-1.48,2.18,2.18,0,0,1,.69-1.68,2.7,2.7,0,0,1,1.91-.65,4.48,4.48,0,0,1,2.59.83l-.67,1a3.65,3.65,0,0,0-2-.61,1.51,1.51,0,0,0-.93.28,1,1,0,0,0-.4.86.88.88,0,0,0,.27.62,1.55,1.55,0,0,0,.86.39l.9.13a2.47,2.47,0,0,1,1.66.8,2.26,2.26,0,0,1,.53,1.49Q311,357,308.26,357Z" transform="translate(-105.93 -47.6)" fill="#fff"/><path d="M287.6,171.61a1.44,1.44,0,0,0-1.05.4,1.89,1.89,0,0,0-.44,1.25h3a1.8,1.8,0,0,0-.44-1.25A1.44,1.44,0,0,0,287.6,171.61Z" transform="translate(-105.93 -47.6)" fill="#fff"/><path d="M279.55,171.61a1.44,1.44,0,0,0-1.05.4,1.89,1.89,0,0,0-.44,1.25h3a1.8,1.8,0,0,0-.44-1.25A1.44,1.44,0,0,0,279.55,171.61Z" transform="translate(-105.93 -47.6)" fill="#fff"/><path d="M346.21,156.8H137.3a4.78,4.78,0,0,0-4.77,4.77v22.22a4.78,4.78,0,0,0,4.77,4.77H346.21a4.78,4.78,0,0,0,4.77-4.77V161.57A4.78,4.78,0,0,0,346.21,156.8Zm-117,27.69H150.66V160.86h78.58Zm34.18-13.05h-1v4.14c0,.36.16.53.51.53h.53v1.35h-.75a1.69,1.69,0,0,1-1.23-.46,1.64,1.64,0,0,1-.49-1.29v-4.26h-.71v-1.09H261v-2.16h1.43v2.16h1Zm9.28,6h-1.26l-1.48-5h0l-1.48,5h-1.26l-2.27-7.1h1.51l1.36,5h0l1.61-5h1l1.61,5h0l1.35-5H275Zm9.77-3h-4.42a1.66,1.66,0,0,0,.49,1.3,1.64,1.64,0,0,0,1.2.45,2.13,2.13,0,0,0,1.55-.69l1,.88a3.35,3.35,0,0,1-2.56,1.15,3.7,3.7,0,0,1-1.09-.16,2.73,2.73,0,0,1-.52-.24,2.57,2.57,0,0,1-.5-.32,2.83,2.83,0,0,1-.73-1.11,4.37,4.37,0,0,1-.31-1.78,4.94,4.94,0,0,1,.27-1.75,3,3,0,0,1,.68-1.12,2.54,2.54,0,0,1,1-.6,3,3,0,0,1,1-.18,3,3,0,0,1,2.06.8,2.91,2.91,0,0,1,.87,2.2Zm8.05,0h-4.42a1.66,1.66,0,0,0,.49,1.3,1.64,1.64,0,0,0,1.2.45,2.13,2.13,0,0,0,1.55-.69l1,.88a3.35,3.35,0,0,1-2.56,1.15,3.7,3.7,0,0,1-1.09-.16,2.73,2.73,0,0,1-.52-.24,2.57,2.57,0,0,1-.5-.32,2.83,2.83,0,0,1-.73-1.11,4.37,4.37,0,0,1-.31-1.78,4.94,4.94,0,0,1,.27-1.75,3,3,0,0,1,.68-1.12,2.54,2.54,0,0,1,1-.6,3,3,0,0,1,1-.18,3,3,0,0,1,2.06.8,2.91,2.91,0,0,1,.87,2.2Zm5.1-3h-1v4.14c0,.36.16.53.51.53h.53v1.35h-.75a1.69,1.69,0,0,1-1.23-.46,1.64,1.64,0,0,1-.49-1.29v-4.26h-.71v-1.09h.71v-2.16h1.43v2.16h1Zm8.27,6h-1.43v-7.1h1.43Zm0-8.54h-1.43v-1.43h1.43Zm5.49,2.53h-1v4.14c0,.36.16.53.51.53h.53v1.35h-.75a1.69,1.69,0,0,1-1.23-.46,1.64,1.64,0,0,1-.49-1.29v-4.26h-.71v-1.09h.71v-2.16h1.43v2.16h1Z" transform="translate(-105.93 -47.6)" fill="#fff"/><line x1="149.82" y1="154.36" x2="149.82" y2="169.35" fill="#1f9fda" stroke="#fff" stroke-miterlimit="10"/><line x1="163.82" y1="154.36" x2="163.82" y2="169.35" fill="#1f9fda" stroke="#fff" stroke-miterlimit="10"/><line x1="177.82" y1="154.36" x2="177.82" y2="169.35" fill="#1f9fda" stroke="#fff" stroke-miterlimit="10"/><line x1="191.82" y1="154.36" x2="191.82" y2="169.35" fill="#1f9fda" stroke="#fff" stroke-miterlimit="10"/><path d="M178.66,207.56a1.06,1.06,0,0,0-.46-.38,1.54,1.54,0,0,0-.68-.14,1.56,1.56,0,0,0-.67.14,1.28,1.28,0,0,0-.48.38,1.66,1.66,0,0,0-.27.59,5.24,5.24,0,0,0-.08,1.09,5.09,5.09,0,0,0,.08,1.08,1.79,1.79,0,0,0,.27.62,1.73,1.73,0,0,0,.48.36,1.49,1.49,0,0,0,.67.15,1.47,1.47,0,0,0,.68-.15,1.34,1.34,0,0,0,.46-.36,1.41,1.41,0,0,0,.28-.62,6,6,0,0,0,.07-1.07,6.42,6.42,0,0,0-.07-1.11A1.31,1.31,0,0,0,178.66,207.56Z" transform="translate(-105.93 -47.6)" fill="#fff"/><path d="M163.92,207.71a1,1,0,0,0-.42-.51,1.59,1.59,0,0,0-.8-.17,1.3,1.3,0,0,0-.76.2,1.18,1.18,0,0,0-.43.52,2.63,2.63,0,0,0-.17.7,7.36,7.36,0,0,0,0,1.55,2.63,2.63,0,0,0,.17.72,1.16,1.16,0,0,0,.43.52,1.26,1.26,0,0,0,.76.21,1.44,1.44,0,0,0,.8-.19,1.09,1.09,0,0,0,.42-.51,2.59,2.59,0,0,0,.18-.72c0-.25,0-.52,0-.79s0-.56,0-.83A2.59,2.59,0,0,0,163.92,207.71Z" transform="translate(-105.93 -47.6)" fill="#fff"/><path d="M201.4,207a1.44,1.44,0,0,0-1.05.4,1.89,1.89,0,0,0-.44,1.25h3a1.8,1.8,0,0,0-.44-1.25A1.44,1.44,0,0,0,201.4,207Z" transform="translate(-105.93 -47.6)" fill="#fff"/><path d="M360.21,193.2H151.3a4.78,4.78,0,0,0-4.77,4.77v22.22a4.78,4.78,0,0,0,4.77,4.77H360.21a4.78,4.78,0,0,0,4.77-4.77V198A4.78,4.78,0,0,0,360.21,193.2Zm-159,9.54,1.29,2h-1.18l-2-2ZM165.45,211a1.88,1.88,0,0,1-.4.91,2.13,2.13,0,0,1-.77.66,2.46,2.46,0,0,1-1.13.27,2.42,2.42,0,0,1-1.83-.83v.75h-1.43v-10h1.43v3.62a3.61,3.61,0,0,1,.85-.62,2.07,2.07,0,0,1,1-.23,2.21,2.21,0,0,1,1.91.93,1.87,1.87,0,0,1,.4.88,16.05,16.05,0,0,1,0,3.62Zm6.78-1.42H168V208.2h4.21Zm8,1.32a2.43,2.43,0,0,1-.6,1,2.17,2.17,0,0,1-.33.31,1.54,1.54,0,0,1-.46.29,2.82,2.82,0,0,1-1.36.31,2.76,2.76,0,0,1-1.33-.31,2.67,2.67,0,0,1-.82-.6,2.73,2.73,0,0,1-.59-1,6,6,0,0,1-.18-1.71,6.19,6.19,0,0,1,.18-1.72,2.5,2.5,0,0,1,.59-1,2.68,2.68,0,0,1,.82-.64,3,3,0,0,1,1.33-.28,3.1,3.1,0,0,1,1.36.28,2.56,2.56,0,0,1,.79.64,2.24,2.24,0,0,1,.6,1,6.69,6.69,0,0,1,.17,1.72A6.5,6.5,0,0,1,180.27,210.95Zm8.39,1.85h-1.43v-4.22a1.52,1.52,0,0,0-.4-1.13,1.35,1.35,0,0,0-1-.4,1.37,1.37,0,0,0-1,.4,1.51,1.51,0,0,0-.4,1.13v4.22H183v-7.1h1.43v.75h0a2.29,2.29,0,0,1,1.85-.84,2.44,2.44,0,0,1,1.61.62,2.41,2.41,0,0,1,.76,1.85Zm5.62-1.35a1.74,1.74,0,0,0,1.44-.74l1.05.94a3.81,3.81,0,0,1-1.09.87,3.05,3.05,0,0,1-1.46.36A3.2,3.2,0,0,1,192,212a3.55,3.55,0,0,1-1-2.77,3.63,3.63,0,0,1,1-2.8,3.15,3.15,0,0,1,2.21-.84,3.23,3.23,0,0,1,1.46.34,3.64,3.64,0,0,1,1.09.9l-1.05.94a1.79,1.79,0,0,0-1.44-.75q-1.82,0-1.85,2.21T194.28,211.45Zm10-1.66H199.9a1.66,1.66,0,0,0,.49,1.3,1.64,1.64,0,0,0,1.2.45,2.13,2.13,0,0,0,1.55-.69l1,.88a3.34,3.34,0,0,1-2.56,1.15,3.7,3.7,0,0,1-1.09-.16,2.57,2.57,0,0,1-.52-.24,2.44,2.44,0,0,1-.5-.32,2.81,2.81,0,0,1-.73-1.11,4.36,4.36,0,0,1-.31-1.78,4.94,4.94,0,0,1,.27-1.75,3.06,3.06,0,0,1,.68-1.12,2.55,2.55,0,0,1,1-.6,3,3,0,0,1,1-.18,3,3,0,0,1,2.06.8,2.91,2.91,0,0,1,.87,2.2ZM323,220.89H244.46V197.26H323Zm31.91,0H332.37V197.26H355Z" transform="translate(-105.93 -47.6)" fill="#fff"/><line x1="177.82" y1="262.16" x2="177.82" y2="277.15" fill="none" stroke="#fff" stroke-miterlimit="10"/><path d="M199.59,314.75a1.44,1.44,0,0,0-1.05.4,1.89,1.89,0,0,0-.44,1.25h3a1.8,1.8,0,0,0-.44-1.25A1.44,1.44,0,0,0,199.59,314.75Z" transform="translate(-105.93 -47.6)" fill="#fff"/><path d="M159.64,318.44a.76.76,0,0,0,.32.62,1.49,1.49,0,0,0,1,.28,2.49,2.49,0,0,0,1.26-.21q.33-.23.33-1v-.51h-1.71Q159.63,317.61,159.64,318.44Z" transform="translate(-105.93 -47.6)" fill="#fff"/><path d="M205.85,318.44a.76.76,0,0,0,.32.62,1.49,1.49,0,0,0,1,.28,2.49,2.49,0,0,0,1.26-.21q.33-.23.33-1v-.51h-1.71Q205.83,317.61,205.85,318.44Z" transform="translate(-105.93 -47.6)" fill="#fff"/><path d="M180.4,318.44a.76.76,0,0,0,.32.62,1.49,1.49,0,0,0,1,.28,2.49,2.49,0,0,0,1.26-.21q.33-.23.33-1v-.51h-1.71Q180.39,317.61,180.4,318.44Z" transform="translate(-105.93 -47.6)" fill="#fff"/><path d="M229.73,318.44a.76.76,0,0,0,.32.62,1.49,1.49,0,0,0,1,.28,2.49,2.49,0,0,0,1.26-.21q.33-.23.33-1v-.51H231Q229.71,317.61,229.73,318.44Z" transform="translate(-105.93 -47.6)" fill="#fff"/><path d="M346.21,301H137.3a4.78,4.78,0,0,0-4.77,4.77V328a4.78,4.78,0,0,0,4.77,4.77H346.21A4.78,4.78,0,0,0,351,328V305.77A4.78,4.78,0,0,0,346.21,301ZM155.87,320.59h-1.43v-4.22a1.54,1.54,0,0,0-.39-1.13,1.35,1.35,0,0,0-1-.4,1.37,1.37,0,0,0-1,.4,1.51,1.51,0,0,0-.4,1.13v4.22H150.2v-4.22a1.54,1.54,0,0,0-.39-1.13,1.37,1.37,0,0,0-1-.4,1.35,1.35,0,0,0-1,.4,1.49,1.49,0,0,0-.41,1.13v4.22H146v-7.1h1.43v.75h0a2.3,2.3,0,0,1,1.85-.84,2.67,2.67,0,0,1,1.19.25,3.54,3.54,0,0,1,.81.68,2.8,2.8,0,0,1,2.24-.93,2.44,2.44,0,0,1,1.61.62,2.39,2.39,0,0,1,.75,1.85Zm8.14,0h-1.43V320h0a1.19,1.19,0,0,1-.62.53,2.92,2.92,0,0,1-1.13.18A2.59,2.59,0,0,1,159,320a2,2,0,0,1-.68-1.54,2,2,0,0,1,.59-1.48,2.35,2.35,0,0,1,1.72-.62h2v-.75q0-.94-1.46-.91a2.6,2.6,0,0,0-.84.11,1,1,0,0,0-.51.44l-1.12-.85a2.77,2.77,0,0,1,2.4-1,3.82,3.82,0,0,1,2.14.51,2.07,2.07,0,0,1,.81,1.83Zm7.33-.51a3.64,3.64,0,0,1-2.1.59,4.51,4.51,0,0,1-3.12-1.27l1-1a3,3,0,0,0,2.24.91,1.89,1.89,0,0,0,1-.24.75.75,0,0,0,.39-.67.59.59,0,0,0-.23-.53,1.24,1.24,0,0,0-.64-.17l-1.26-.11a2.39,2.39,0,0,1-1.46-.6,1.82,1.82,0,0,1-.59-1.42,1.92,1.92,0,0,1,.77-1.64,3.07,3.07,0,0,1,1.87-.55,5.69,5.69,0,0,1,.88.06,4.51,4.51,0,0,1,.73.19,4.17,4.17,0,0,1,1.18.72l-.88,1a4.48,4.48,0,0,0-.87-.49,2.93,2.93,0,0,0-1-.17,1.42,1.42,0,0,0-.94.24.77.77,0,0,0-.28.62.48.48,0,0,0,.21.42,1.22,1.22,0,0,0,.72.25l1.18.09a2.2,2.2,0,0,1,1.6.67,2.26,2.26,0,0,1,.46,1.46A1.84,1.84,0,0,1,171.34,320.09Zm5.88-5.5h-1v4.14c0,.36.16.54.51.53h.53v1.35h-.75a1.69,1.69,0,0,1-1.23-.46,1.64,1.64,0,0,1-.49-1.29v-4.26H174V313.5h.71v-2.16h1.43v2.16h1Zm7.54,6h-1.43V320h0a1.19,1.19,0,0,1-.62.53,2.92,2.92,0,0,1-1.13.18,2.59,2.59,0,0,1-1.83-.63,2,2,0,0,1-.68-1.54,2,2,0,0,1,.59-1.48,2.35,2.35,0,0,1,1.72-.62h2v-.75q0-.94-1.46-.91a2.6,2.6,0,0,0-.84.11,1,1,0,0,0-.51.44l-1.12-.85a2.77,2.77,0,0,1,2.4-1,3.82,3.82,0,0,1,2.14.51,2.07,2.07,0,0,1,.81,1.83Zm9.85-6h-1v4.14c0,.36.16.54.51.53h.53v1.35h-.75a1.69,1.69,0,0,1-1.23-.46,1.64,1.64,0,0,1-.49-1.29v-4.26h-.71V313.5h.71v-2.16h1.43v2.16h1Zm7.89,3h-4.42a1.66,1.66,0,0,0,.49,1.3,1.64,1.64,0,0,0,1.2.45,2.13,2.13,0,0,0,1.55-.69l1,.88a3.34,3.34,0,0,1-2.56,1.15,3.7,3.7,0,0,1-1.09-.16,2.57,2.57,0,0,1-.52-.24,2.44,2.44,0,0,1-.5-.32,2.81,2.81,0,0,1-.73-1.11,4.36,4.36,0,0,1-.31-1.78,4.94,4.94,0,0,1,.27-1.75,3.06,3.06,0,0,1,.68-1.12,2.55,2.55,0,0,1,1-.6,3,3,0,0,1,1-.18,3,3,0,0,1,2.06.8,2.91,2.91,0,0,1,.87,2.2Zm7.7,3h-1.43V320h0a1.19,1.19,0,0,1-.62.53,2.92,2.92,0,0,1-1.13.18,2.59,2.59,0,0,1-1.83-.63,2,2,0,0,1-.68-1.54,2,2,0,0,1,.59-1.48,2.35,2.35,0,0,1,1.72-.62h2v-.75q0-.94-1.46-.91a2.6,2.6,0,0,0-.84.11,1,1,0,0,0-.51.44l-1.12-.85a2.77,2.77,0,0,1,2.4-1,3.82,3.82,0,0,1,2.14.51,2.07,2.07,0,0,1,.81,1.83Zm5.62-1.35a1.74,1.74,0,0,0,1.44-.74l1.05.94a3.81,3.81,0,0,1-1.09.87,3.05,3.05,0,0,1-1.46.36,3.2,3.2,0,0,1-2.21-.85,3.55,3.55,0,0,1-1-2.77,3.63,3.63,0,0,1,1-2.8,3.15,3.15,0,0,1,2.21-.84,3.23,3.23,0,0,1,1.46.34,3.64,3.64,0,0,1,1.09.9l-1.05.94a1.79,1.79,0,0,0-1.44-.75q-1.82,0-1.85,2.21T215.84,319.25ZM226,320.59h-1.43v-4.22a1.52,1.52,0,0,0-.4-1.13,1.35,1.35,0,0,0-1-.4,1.37,1.37,0,0,0-1,.4,1.51,1.51,0,0,0-.4,1.13v4.22h-1.43v-10h1.43v3.62h0a2.29,2.29,0,0,1,1.85-.84,2.44,2.44,0,0,1,1.61.62,2.41,2.41,0,0,1,.76,1.85Zm8,0h-1.43V320h0a1.19,1.19,0,0,1-.62.53,2.92,2.92,0,0,1-1.13.18,2.59,2.59,0,0,1-1.83-.63,2,2,0,0,1-.68-1.54A2,2,0,0,1,229,317a2.35,2.35,0,0,1,1.72-.62h2v-.75q0-.94-1.46-.91a2.6,2.6,0,0,0-.84.11,1,1,0,0,0-.51.44l-1.12-.85a2.77,2.77,0,0,1,2.4-1,3.82,3.82,0,0,1,2.14.51,2.07,2.07,0,0,1,.81,1.83Zm88.95,8.1H272.46V305.06H323Zm17.91,0h-8.58V305.06H341Z" transform="translate(-105.93 -47.6)" fill="#fff"/><path d="M361.61,120.4H152.7a4.78,4.78,0,0,0-4.77,4.77v22.22a4.78,4.78,0,0,0,4.77,4.77H361.61a4.78,4.78,0,0,0,4.77-4.77V125.17A4.78,4.78,0,0,0,361.61,120.4ZM165.3,139.75a3,3,0,0,1-.92,2.35,3.21,3.21,0,0,1-2.16.77,3.25,3.25,0,0,1-2.46-1.19l1.11-.88a2.64,2.64,0,0,0,.63.43,1.66,1.66,0,0,0,.75.21,1.68,1.68,0,0,0,1.18-.4,1.52,1.52,0,0,0,.45-1.13v-.73A2.41,2.41,0,0,1,162,140a2.24,2.24,0,0,1-1.15-.29,2.53,2.53,0,0,1-.73-.57,2.15,2.15,0,0,1-.4-.85,9,9,0,0,1-.13-1.9,9.35,9.35,0,0,1,.13-1.93,2.1,2.1,0,0,1,.4-.84,2.31,2.31,0,0,1,.73-.6,2.46,2.46,0,0,1,1.15-.27,2.41,2.41,0,0,1,1.83.84v-.75h1.43Zm8.23-1.67a2.43,2.43,0,0,1-.6,1,2.17,2.17,0,0,1-.33.31,1.54,1.54,0,0,1-.46.29,2.82,2.82,0,0,1-1.36.31,2.76,2.76,0,0,1-1.33-.31,2.67,2.67,0,0,1-.82-.6,2.73,2.73,0,0,1-.59-1,6,6,0,0,1-.18-1.71,6.19,6.19,0,0,1,.18-1.72,2.5,2.5,0,0,1,.59-1,2.69,2.69,0,0,1,.82-.64,3,3,0,0,1,1.33-.28,3.1,3.1,0,0,1,1.36.28,2.56,2.56,0,0,1,.79.64,2.24,2.24,0,0,1,.6,1,6.69,6.69,0,0,1,.17,1.72A6.5,6.5,0,0,1,173.52,138.07Zm8,0a2.43,2.43,0,0,1-.6,1,2.17,2.17,0,0,1-.33.31,1.54,1.54,0,0,1-.46.29,2.82,2.82,0,0,1-1.36.31,2.76,2.76,0,0,1-1.33-.31,2.67,2.67,0,0,1-.82-.6,2.73,2.73,0,0,1-.59-1,6,6,0,0,1-.18-1.71,6.19,6.19,0,0,1,.18-1.72,2.5,2.5,0,0,1,.59-1,2.69,2.69,0,0,1,.82-.64,3,3,0,0,1,1.33-.28,3.1,3.1,0,0,1,1.36.28,2.56,2.56,0,0,1,.79.64,2.24,2.24,0,0,1,.6,1,6.69,6.69,0,0,1,.17,1.72A6.5,6.5,0,0,1,181.57,138.07Zm8.14,1.67a3,3,0,0,1-.92,2.35,3.21,3.21,0,0,1-2.16.77,3.25,3.25,0,0,1-2.46-1.19l1.11-.88a2.64,2.64,0,0,0,.63.43,1.66,1.66,0,0,0,.75.21,1.68,1.68,0,0,0,1.18-.4,1.52,1.52,0,0,0,.45-1.13v-.73a2.41,2.41,0,0,1-1.83.83,2.24,2.24,0,0,1-1.15-.29,2.53,2.53,0,0,1-.73-.57,2.15,2.15,0,0,1-.4-.85,9,9,0,0,1-.13-1.9,9.35,9.35,0,0,1,.13-1.93,2.1,2.1,0,0,1,.4-.84,2.31,2.31,0,0,1,.73-.6,2.46,2.46,0,0,1,1.15-.27,2.41,2.41,0,0,1,1.83.84v-.75h1.43Zm5.35.17h-.64a2,2,0,0,1-1.29-.39,1.55,1.55,0,0,1-.53-1.33V130H194v8.13q0,.49.53.49h.49Zm7.71-3h-4.42a1.66,1.66,0,0,0,.49,1.3,1.64,1.64,0,0,0,1.2.45,2.13,2.13,0,0,0,1.55-.69l1,.88a3.34,3.34,0,0,1-2.56,1.15,3.7,3.7,0,0,1-1.09-.16,2.57,2.57,0,0,1-.52-.24,2.44,2.44,0,0,1-.5-.32,2.81,2.81,0,0,1-.73-1.11,4.36,4.36,0,0,1-.31-1.78,4.94,4.94,0,0,1,.27-1.75,3.06,3.06,0,0,1,.68-1.12,2.55,2.55,0,0,1,1-.6,3,3,0,0,1,1-.18,3,3,0,0,1,2.06.8,2.91,2.91,0,0,1,.87,2.2Zm12.63,3H214V135.7a1.52,1.52,0,0,0-.4-1.13,1.35,1.35,0,0,0-1-.4,1.37,1.37,0,0,0-1,.4,1.51,1.51,0,0,0-.4,1.13v4.22h-1.43v-7.1h1.43v.75h0a2.29,2.29,0,0,1,1.85-.84,2.44,2.44,0,0,1,1.61.62,2.41,2.41,0,0,1,.76,1.85Zm8.23-1.85a2.43,2.43,0,0,1-.6,1,2.17,2.17,0,0,1-.33.31,1.54,1.54,0,0,1-.46.29,2.82,2.82,0,0,1-1.36.31,2.76,2.76,0,0,1-1.33-.31,2.67,2.67,0,0,1-.82-.6,2.73,2.73,0,0,1-.59-1,6,6,0,0,1-.18-1.71,6.19,6.19,0,0,1,.18-1.72,2.5,2.5,0,0,1,.59-1,2.69,2.69,0,0,1,.82-.64,3,3,0,0,1,1.33-.28,3.1,3.1,0,0,1,1.36.28,2.56,2.56,0,0,1,.79.64,2.24,2.24,0,0,1,.6,1,6.69,6.69,0,0,1,.17,1.72A6.5,6.5,0,0,1,223.63,138.07Zm17.12,1.85h-1.43V135.7a1.54,1.54,0,0,0-.39-1.13,1.35,1.35,0,0,0-1-.4,1.37,1.37,0,0,0-1,.4,1.51,1.51,0,0,0-.4,1.13v4.22h-1.43V135.7a1.54,1.54,0,0,0-.39-1.13,1.37,1.37,0,0,0-1-.4,1.35,1.35,0,0,0-1,.4,1.49,1.49,0,0,0-.41,1.13v4.22h-1.43v-7.1h1.43v.75h0a2.3,2.3,0,0,1,1.85-.84,2.67,2.67,0,0,1,1.19.25,3.54,3.54,0,0,1,.81.68,2.8,2.8,0,0,1,2.24-.93,2.44,2.44,0,0,1,1.61.62,2.39,2.39,0,0,1,.75,1.85Zm8.32-1.85a2.43,2.43,0,0,1-.6,1,2.17,2.17,0,0,1-.33.31,1.54,1.54,0,0,1-.46.29,2.82,2.82,0,0,1-1.36.31,2.76,2.76,0,0,1-1.33-.31,2.67,2.67,0,0,1-.82-.6,2.73,2.73,0,0,1-.59-1,6,6,0,0,1-.18-1.71,6.19,6.19,0,0,1,.18-1.72,2.5,2.5,0,0,1,.59-1A2.69,2.69,0,0,1,245,133a3,3,0,0,1,1.33-.28,3.1,3.1,0,0,1,1.36.28,2.56,2.56,0,0,1,.79.64,2.24,2.24,0,0,1,.6,1,6.69,6.69,0,0,1,.17,1.72A6.5,6.5,0,0,1,249.06,138.07Zm6.47-3.55a1.5,1.5,0,0,0-.94-.36,1.34,1.34,0,0,0-.94.36,1.39,1.39,0,0,0-.45,1.13v4.27h-1.43v-7.1h1.43v.75h0a2.38,2.38,0,0,1,3.34-.29Zm8,2.39H259.1a1.66,1.66,0,0,0,.49,1.3,1.64,1.64,0,0,0,1.2.45,2.13,2.13,0,0,0,1.55-.69l1,.88a3.34,3.34,0,0,1-2.56,1.15,3.7,3.7,0,0,1-1.09-.16,2.57,2.57,0,0,1-.52-.24,2.44,2.44,0,0,1-.5-.32,2.81,2.81,0,0,1-.73-1.11,4.36,4.36,0,0,1-.31-1.78,4.94,4.94,0,0,1,.27-1.75,3.06,3.06,0,0,1,.68-1.12,2.55,2.55,0,0,1,1-.6,3,3,0,0,1,1-.18,3,3,0,0,1,2.06.8,2.91,2.91,0,0,1,.87,2.2ZM337.82,140a4.52,4.52,0,0,1-3-1.09l.79-.91a3.49,3.49,0,0,0,2.26.79q1.55,0,1.57-1.11,0-.89-1-1.07l-1.06-.15a2.6,2.6,0,0,1-1.56-.76,2.12,2.12,0,0,1-.55-1.48,2.18,2.18,0,0,1,.69-1.68,2.72,2.72,0,0,1,1.91-.65,4.49,4.49,0,0,1,2.59.83l-.67,1a3.66,3.66,0,0,0-2-.61,1.51,1.51,0,0,0-.93.28,1,1,0,0,0-.4.86.88.88,0,0,0,.27.62,1.53,1.53,0,0,0,.86.39l.9.13a2.49,2.49,0,0,1,1.66.8,2.26,2.26,0,0,1,.53,1.49Q340.56,140,337.82,140Zm5,0H342l2.68-8.1h.88Zm9.54-.07H347.3v-8h1.21v6.83h3.88Z" transform="translate(-105.93 -47.6)" fill="#fff"/><path d="M161.73,174.9q1.55,0,1.58-1.11,0-.89-1-1.07l-1.06-.15a2.6,2.6,0,0,1-1.56-.76,2.12,2.12,0,0,1-.55-1.48,2.18,2.18,0,0,1,.69-1.68,2.71,2.71,0,0,1,1.91-.65,4.48,4.48,0,0,1,2.59.83l-.67,1a3.65,3.65,0,0,0-2-.61,1.51,1.51,0,0,0-.93.28,1,1,0,0,0-.4.86.88.88,0,0,0,.27.62,1.54,1.54,0,0,0,.86.39l.9.13a2.49,2.49,0,0,1,1.66.8,2.26,2.26,0,0,1,.53,1.49q-.06,2.29-2.8,2.32a4.52,4.52,0,0,1-3-1.09l.79-.91A3.5,3.5,0,0,0,161.73,174.9Z" transform="translate(-105.93 -47.6)" fill="#fff"/><path d="M168.55,168h.88l-2.68,8.1h-.87Z" transform="translate(-105.93 -47.6)" fill="#fff"/><path d="M171.2,168.07h1.21v6.83h3.88V176H171.2Z" transform="translate(-105.93 -47.6)" fill="#fff"/><path d="M341.39,204.82h1.21v6.83h3.88v1.14h-5.09Z" transform="translate(-105.93 -47.6)" fill="#fff"/><path d="M165.13,248.86a1.9,1.9,0,0,0,1-.24.75.75,0,0,0,.39-.67.59.59,0,0,0-.23-.53,1.22,1.22,0,0,0-.64-.17l-1.26-.11a2.39,2.39,0,0,1-1.46-.6,1.83,1.83,0,0,1-.59-1.42,1.92,1.92,0,0,1,.77-1.64,3.07,3.07,0,0,1,1.87-.55,5.69,5.69,0,0,1,.88.06,4.44,4.44,0,0,1,.73.19,4.17,4.17,0,0,1,1.18.72l-.88,1a4.4,4.4,0,0,0-.87-.49,2.91,2.91,0,0,0-1-.17,1.41,1.41,0,0,0-.94.24.77.77,0,0,0-.28.62.48.48,0,0,0,.21.42,1.23,1.23,0,0,0,.72.25l1.18.09a2.2,2.2,0,0,1,1.6.67A2.26,2.26,0,0,1,168,248a1.84,1.84,0,0,1-.84,1.59,3.65,3.65,0,0,1-2.1.59,4.51,4.51,0,0,1-3.12-1.27l1-1A3,3,0,0,0,165.13,248.86Z" transform="translate(-105.93 -47.6)" fill="#fff"/><path d="M170.53,240.87H172V243h1v1.09h-1v4.14c0,.36.16.54.51.53H173v1.35h-.75a1.69,1.69,0,0,1-1.23-.46,1.64,1.64,0,0,1-.49-1.29v-4.26h-.71V243h.71Z" transform="translate(-105.93 -47.6)" fill="#fff"/><path d="M175.38,243h1.43v.75h0a2.38,2.38,0,0,1,3.34-.29l-1,1.24a1.49,1.49,0,0,0-.94-.36,1.34,1.34,0,0,0-.94.36,1.39,1.39,0,0,0-.45,1.13v4.27h-1.43Z" transform="translate(-105.93 -47.6)" fill="#fff"/><path d="M185.35,249.49h0a1.19,1.19,0,0,1-.62.53,2.93,2.93,0,0,1-1.13.18,2.59,2.59,0,0,1-1.83-.63,2,2,0,0,1-.68-1.54,2,2,0,0,1,.59-1.48,2.34,2.34,0,0,1,1.72-.62h2v-.75q0-.94-1.46-.91a2.58,2.58,0,0,0-.84.11,1,1,0,0,0-.51.44l-1.12-.85a2.77,2.77,0,0,1,2.4-1,3.81,3.81,0,0,1,2.14.51,2.07,2.07,0,0,1,.81,1.83v4.85h-1.43Zm0-2.38h-1.71q-1.24,0-1.23.85a.76.76,0,0,0,.32.62,1.5,1.5,0,0,0,1,.28,2.5,2.5,0,0,0,1.26-.21q.33-.23.33-1Z" transform="translate(-105.93 -47.6)" fill="#fff"/><path d="M189.72,240.15h1.43v1.43h-1.43Zm0,2.87h1.43v7.1h-1.43Z" transform="translate(-105.93 -47.6)" fill="#fff"/><path d="M198.08,249.38a2.41,2.41,0,0,1-1.83.83,2.25,2.25,0,0,1-1.15-.29,2.53,2.53,0,0,1-.73-.57,2.16,2.16,0,0,1-.4-.85,9,9,0,0,1-.13-1.9,9.32,9.32,0,0,1,.13-1.93,2.09,2.09,0,0,1,.4-.84,2.3,2.3,0,0,1,.73-.6,2.45,2.45,0,0,1,1.15-.27,2.41,2.41,0,0,1,1.83.84V243h1.43V250a3,3,0,0,1-.92,2.35,3.21,3.21,0,0,1-2.16.77,3.25,3.25,0,0,1-2.46-1.19l1.11-.88a2.67,2.67,0,0,0,.63.43,1.7,1.7,0,0,0,1.93-.19,1.52,1.52,0,0,0,.45-1.13Zm-2.82-2.8a7.54,7.54,0,0,0,.05,1.12,1.05,1.05,0,0,0,.23.53,1.3,1.3,0,0,0,.44.35,1.37,1.37,0,0,0,1.39,0,1.33,1.33,0,0,0,.42-.35,1.15,1.15,0,0,0,.24-.53,10.06,10.06,0,0,0,0-1.12,10.64,10.64,0,0,0,0-1.15,1.06,1.06,0,0,0-.24-.52,1.67,1.67,0,0,0-.42-.38,1.51,1.51,0,0,0-1.39,0,1.61,1.61,0,0,0-.44.38,1,1,0,0,0-.23.52A8,8,0,0,0,195.26,246.58Z" transform="translate(-105.93 -47.6)" fill="#fff"/><path d="M202.4,240.15h1.43v3.62h0a2.29,2.29,0,0,1,1.85-.84,2.43,2.43,0,0,1,1.61.62,2.41,2.41,0,0,1,.76,1.85v4.72h-1.43V245.9a1.52,1.52,0,0,0-.4-1.13,1.35,1.35,0,0,0-1-.4,1.37,1.37,0,0,0-1,.4,1.51,1.51,0,0,0-.4,1.13v4.22H202.4Z" transform="translate(-105.93 -47.6)" fill="#fff"/><path d="M211.05,240.87h1.43V243h1v1.09h-1v4.14c0,.36.16.54.51.53h.53v1.35h-.75a1.69,1.69,0,0,1-1.23-.46,1.64,1.64,0,0,1-.49-1.29v-4.26h-.71V243h.71Z" transform="translate(-105.93 -47.6)" fill="#fff"/><path d="M220,246.57a6.19,6.19,0,0,1,.18-1.72,2.49,2.49,0,0,1,.59-1,2.67,2.67,0,0,1,.82-.64,3,3,0,0,1,1.33-.28,3.09,3.09,0,0,1,1.36.28,2.54,2.54,0,0,1,.79.64,2.23,2.23,0,0,1,.6,1,6.67,6.67,0,0,1,.17,1.72,6.5,6.5,0,0,1-.17,1.71,2.44,2.44,0,0,1-.6,1,2.25,2.25,0,0,1-.33.31,1.55,1.55,0,0,1-.46.29,2.84,2.84,0,0,1-1.36.31,2.77,2.77,0,0,1-1.33-.31,2.69,2.69,0,0,1-.82-.6,2.73,2.73,0,0,1-.59-1A6,6,0,0,1,220,246.57Zm4.42,0a6.39,6.39,0,0,0-.07-1.11,1.31,1.31,0,0,0-.28-.59,1,1,0,0,0-.46-.38,1.54,1.54,0,0,0-.68-.14,1.56,1.56,0,0,0-.67.14,1.27,1.27,0,0,0-.48.38,1.65,1.65,0,0,0-.27.59,5.24,5.24,0,0,0-.08,1.09,5.09,5.09,0,0,0,.08,1.08,1.79,1.79,0,0,0,.27.62,1.73,1.73,0,0,0,.48.36,1.5,1.5,0,0,0,.67.15,1.48,1.48,0,0,0,.68-.15,1.34,1.34,0,0,0,.46-.36,1.41,1.41,0,0,0,.28-.62A6,6,0,0,0,224.39,246.58Z" transform="translate(-105.93 -47.6)" fill="#fff"/><path d="M228.37,243h1.43v4.22a1.52,1.52,0,0,0,.4,1.12,1.36,1.36,0,0,0,1,.4,1.34,1.34,0,0,0,1-.4,1.53,1.53,0,0,0,.4-1.12V243H234v7.1h-1.43v-.76h0a2.28,2.28,0,0,1-1.84.84,2.4,2.4,0,0,1-1.59-.64,2.22,2.22,0,0,1-.79-1.82Z" transform="translate(-105.93 -47.6)" fill="#fff"/><path d="M237,240.87h1.43V243h1v1.09h-1v4.14c0,.36.16.54.51.53h.53v1.35h-.75a1.69,1.69,0,0,1-1.23-.46,1.64,1.64,0,0,1-.49-1.29v-4.26h-.71V243H237Z" transform="translate(-105.93 -47.6)" fill="#fff"/><path d="M242,240.87h1.43V243h1v1.09h-1v4.14c0,.36.16.54.51.53h.53v1.35h-.75a1.69,1.69,0,0,1-1.23-.46,1.64,1.64,0,0,1-.49-1.29v-4.26h-.71V243H242Z" transform="translate(-105.93 -47.6)" fill="#fff"/><path d="M250.54,249.49h0a1.19,1.19,0,0,1-.62.53,2.93,2.93,0,0,1-1.13.18,2.59,2.59,0,0,1-1.83-.63,2,2,0,0,1-.68-1.54,2,2,0,0,1,.59-1.48,2.34,2.34,0,0,1,1.72-.62h2v-.75q0-.94-1.46-.91a2.58,2.58,0,0,0-.84.11,1,1,0,0,0-.51.44l-1.12-.85a2.76,2.76,0,0,1,2.4-1,3.81,3.81,0,0,1,2.14.51,2.06,2.06,0,0,1,.81,1.83v4.85h-1.43Zm0-2.38h-1.71q-1.24,0-1.23.85a.76.76,0,0,0,.32.62,1.5,1.5,0,0,0,1,.28,2.5,2.5,0,0,0,1.26-.21q.34-.23.33-1Z" transform="translate(-105.93 -47.6)" fill="#fff"/><path d="M259.36,240.87h1.43V243h1v1.09h-1v4.14c0,.36.16.54.51.53h.53v1.35h-.75a1.69,1.69,0,0,1-1.23-.46,1.64,1.64,0,0,1-.49-1.29v-4.26h-.71V243h.71Z" transform="translate(-105.93 -47.6)" fill="#fff"/><path d="M264.21,240.15h1.43v3.62h0a2.29,2.29,0,0,1,1.85-.84,2.43,2.43,0,0,1,1.61.62,2.4,2.4,0,0,1,.76,1.85v4.72h-1.43V245.9a1.52,1.52,0,0,0-.4-1.13,1.35,1.35,0,0,0-1-.4,1.37,1.37,0,0,0-1,.4,1.51,1.51,0,0,0-.4,1.13v4.22h-1.43Z" transform="translate(-105.93 -47.6)" fill="#fff"/><path d="M273.86,247.11a1.66,1.66,0,0,0,.49,1.3,1.64,1.64,0,0,0,1.2.45,2.13,2.13,0,0,0,1.55-.69l1,.88a3.35,3.35,0,0,1-2.56,1.15,3.7,3.7,0,0,1-1.09-.16,2.67,2.67,0,0,1-.52-.24,2.53,2.53,0,0,1-.5-.32,2.82,2.82,0,0,1-.73-1.11,4.37,4.37,0,0,1-.31-1.78,4.94,4.94,0,0,1,.27-1.75,3,3,0,0,1,.68-1.12,2.54,2.54,0,0,1,1-.6,3.05,3.05,0,0,1,1-.18,3,3,0,0,1,2.06.8,2.91,2.91,0,0,1,.87,2.2v1.18Zm3-1.18a1.8,1.8,0,0,0-.44-1.25,1.58,1.58,0,0,0-2.11,0,1.89,1.89,0,0,0-.44,1.25Z" transform="translate(-105.93 -47.6)" fill="#fff"/><path d="M289.23,249.38a2.41,2.41,0,0,1-1.83.83,2.26,2.26,0,0,1-1.15-.29,2.53,2.53,0,0,1-.73-.57,2.16,2.16,0,0,1-.4-.85,9,9,0,0,1-.13-1.9,9.28,9.28,0,0,1,.13-1.93,2.1,2.1,0,0,1,.4-.84,2.3,2.3,0,0,1,.73-.6,2.45,2.45,0,0,1,1.15-.27,2.41,2.41,0,0,1,1.83.84V243h1.43V250a3,3,0,0,1-.92,2.35,3.21,3.21,0,0,1-2.16.77,3.25,3.25,0,0,1-2.46-1.19l1.11-.88a2.67,2.67,0,0,0,.63.43,1.7,1.7,0,0,0,1.93-.19,1.52,1.52,0,0,0,.45-1.13Zm-2.82-2.8a7.61,7.61,0,0,0,.05,1.12,1.06,1.06,0,0,0,.23.53,1.29,1.29,0,0,0,.44.35,1.37,1.37,0,0,0,1.39,0,1.33,1.33,0,0,0,.42-.35,1.16,1.16,0,0,0,.24-.53,10.06,10.06,0,0,0,0-1.12,10.64,10.64,0,0,0,0-1.15,1.06,1.06,0,0,0-.24-.52,1.67,1.67,0,0,0-.42-.38,1.51,1.51,0,0,0-1.39,0,1.6,1.6,0,0,0-.44.38,1,1,0,0,0-.23.52A8.05,8.05,0,0,0,286.42,246.58Z" transform="translate(-105.93 -47.6)" fill="#fff"/><path d="M293.56,243H295v.75h0a2.38,2.38,0,0,1,3.34-.29l-1,1.24a1.5,1.5,0,0,0-.94-.36,1.34,1.34,0,0,0-.94.36,1.39,1.39,0,0,0-.45,1.13v4.27h-1.43Z" transform="translate(-105.93 -47.6)" fill="#fff"/><path d="M300.09,240.15h1.43v1.43h-1.43Zm0,2.87h1.43v7.1h-1.43Z" transform="translate(-105.93 -47.6)" fill="#fff"/><path d="M308.71,249.38a2.42,2.42,0,0,1-1.84.83,2.34,2.34,0,0,1-1.1-.27,2.38,2.38,0,0,1-.8-.66,1.79,1.79,0,0,1-.39-.91,14.18,14.18,0,0,1,0-3.62,1.77,1.77,0,0,1,.39-.88,2.2,2.2,0,0,1,1.9-.93,2.29,2.29,0,0,1,1,.23,4.08,4.08,0,0,1,.83.62v-3.62h1.43v10h-1.43Zm-1.4-5a1.44,1.44,0,0,0-.77.17,1.08,1.08,0,0,0-.43.51,2.59,2.59,0,0,0-.17.7,8.17,8.17,0,0,0,0,.83,7.38,7.38,0,0,0,0,.79,2.63,2.63,0,0,0,.17.72,1.18,1.18,0,0,0,.43.51,1.31,1.31,0,0,0,.77.19,1.38,1.38,0,0,0,.8-.21,1,1,0,0,0,.4-.52,2.65,2.65,0,0,0,.18-.72q0-.39,0-.77t0-.79a2.63,2.63,0,0,0-.18-.7,1,1,0,0,0-.4-.52A1.42,1.42,0,0,0,307.3,244.37Z" transform="translate(-105.93 -47.6)" fill="#fff"/><path d="M346.21,229.6H137.3a4.78,4.78,0,0,0-4.77,4.77v22.22a4.78,4.78,0,0,0,4.77,4.77H346.21a4.78,4.78,0,0,0,4.77-4.77V234.37A4.78,4.78,0,0,0,346.21,229.6Zm-33,27.69H150.66V233.66H313.24Zm19.16-7.91a3.37,3.37,0,0,1-2.83-1.37.6.6,0,0,1,.5-.92.66.66,0,0,1,.49.25,2.56,2.56,0,0,0,1.83.85c1,0,1.51-.34,1.51-1,0-1.64-4.09-.88-4.09-3.58,0-1.11.8-2,2.57-2a3.11,3.11,0,0,1,2.54,1.05.65.65,0,0,1,.11.36.6.6,0,0,1-.6.59.74.74,0,0,1-.48-.25,2.31,2.31,0,0,0-1.57-.59c-.93,0-1.28.44-1.28.88,0,1.47,4.09.78,4.09,3.58C335.21,248.52,334.25,249.37,332.4,249.37Z" transform="translate(-105.93 -47.6)" fill="#fff"/><line x1="79.82" y1="240.92" x2="79.82" y2="225.93" fill="#1f9fda" stroke="#fff" stroke-miterlimit="10"/><line x1="65.82" y1="240.92" x2="65.82" y2="225.93" fill="#1f9fda" stroke="#fff" stroke-miterlimit="10"/><line x1="51.82" y1="240.92" x2="51.82" y2="225.93" fill="#1f9fda" stroke="#fff" stroke-miterlimit="10"/><path d="M289.86,283.45a.76.76,0,0,0,.32.62,1.5,1.5,0,0,0,1,.28,2.51,2.51,0,0,0,1.26-.21q.33-.23.33-1v-.51h-1.71Q289.85,282.62,289.86,283.45Z" transform="translate(-105.93 -47.6)" fill="#fff"/><path d="M309.74,280.57a1,1,0,0,0-.4-.52,1.41,1.41,0,0,0-.8-.2,1.43,1.43,0,0,0-.77.17,1.09,1.09,0,0,0-.43.51,2.61,2.61,0,0,0-.17.7,8.15,8.15,0,0,0,0,.83,7.4,7.4,0,0,0,0,.79,2.67,2.67,0,0,0,.17.72,1.19,1.19,0,0,0,.43.51,1.32,1.32,0,0,0,.77.19,1.37,1.37,0,0,0,.8-.21,1,1,0,0,0,.4-.52,2.61,2.61,0,0,0,.18-.72c0-.26,0-.52,0-.77s0-.54,0-.79A2.56,2.56,0,0,0,309.74,280.57Z" transform="translate(-105.93 -47.6)" fill="#fff"/><path d="M269.6,279.77a1.44,1.44,0,0,0-1.05.4,1.89,1.89,0,0,0-.44,1.25h3a1.8,1.8,0,0,0-.44-1.25A1.44,1.44,0,0,0,269.6,279.77Z" transform="translate(-105.93 -47.6)" fill="#fff"/><path d="M332.21,265.53H123.3a4.78,4.78,0,0,0-4.77,4.77v22.22a4.78,4.78,0,0,0,4.77,4.77H332.21a4.78,4.78,0,0,0,4.77-4.77V270.3A4.78,4.78,0,0,0,332.21,265.53ZM197,293.22H132.46V269.59H197Zm22.12-7.61h-1.43v-4.22a1.54,1.54,0,0,0-.39-1.13,1.34,1.34,0,0,0-1-.4,1.37,1.37,0,0,0-1,.4,1.5,1.5,0,0,0-.4,1.13v4.22h-1.43v-4.22a1.54,1.54,0,0,0-.39-1.13,1.37,1.37,0,0,0-1-.4,1.34,1.34,0,0,0-1,.4,1.49,1.49,0,0,0-.41,1.13v4.22h-1.43v-7.1h1.43v.75h0a2.3,2.3,0,0,1,1.85-.84,2.63,2.63,0,0,1,1.19.25,3.54,3.54,0,0,1,.81.68,2.8,2.8,0,0,1,2.24-.93,2.43,2.43,0,0,1,1.61.62,2.38,2.38,0,0,1,.75,1.85Zm8.49-3h-4.42a1.66,1.66,0,0,0,.49,1.3,1.64,1.64,0,0,0,1.2.45,2.13,2.13,0,0,0,1.55-.69l1,.88a3.35,3.35,0,0,1-2.56,1.15,3.7,3.7,0,0,1-1.09-.16,2.73,2.73,0,0,1-.52-.24,2.57,2.57,0,0,1-.5-.32,2.83,2.83,0,0,1-.73-1.11,4.37,4.37,0,0,1-.31-1.78,4.94,4.94,0,0,1,.27-1.75,3,3,0,0,1,.68-1.12,2.54,2.54,0,0,1,1-.6,3,3,0,0,1,1-.18,3,3,0,0,1,2.06.8,2.91,2.91,0,0,1,.87,2.2Zm4,3-1.43,1v-2.47h1.43Zm17.34,0h-1.43v-4.22a1.54,1.54,0,0,0-.39-1.13,1.34,1.34,0,0,0-1-.4,1.37,1.37,0,0,0-1,.4,1.5,1.5,0,0,0-.4,1.13v4.22h-1.43v-4.22a1.54,1.54,0,0,0-.39-1.13,1.37,1.37,0,0,0-1-.4,1.34,1.34,0,0,0-1,.4,1.49,1.49,0,0,0-.41,1.13v4.22h-1.43v-7.1h1.43v.75h0a2.3,2.3,0,0,1,1.85-.84,2.63,2.63,0,0,1,1.19.25,3.54,3.54,0,0,1,.81.68,2.8,2.8,0,0,1,2.24-.93,2.43,2.43,0,0,1,1.61.62,2.38,2.38,0,0,1,.75,1.85Zm5.32,1.47a2,2,0,0,1-.81,1.11,2.4,2.4,0,0,1-1.19.29h-.47v-1.35h.42a1,1,0,0,0,.52-.15.83.83,0,0,0,.33-.46l.39-1.19L251,278.51h1.51l1.68,5h0l1.67-5h1.52Zm9.36-2a3.65,3.65,0,0,1-2.1.59,4.51,4.51,0,0,1-3.12-1.27l1-1a3,3,0,0,0,2.24.91,1.9,1.9,0,0,0,1-.24.75.75,0,0,0,.39-.67.59.59,0,0,0-.23-.53,1.21,1.21,0,0,0-.64-.17l-1.26-.11a2.39,2.39,0,0,1-1.46-.6,1.83,1.83,0,0,1-.59-1.42,1.92,1.92,0,0,1,.77-1.64,3.06,3.06,0,0,1,1.87-.55,5.69,5.69,0,0,1,.88.06,4.37,4.37,0,0,1,.73.19,4.17,4.17,0,0,1,1.18.72l-.88,1a4.34,4.34,0,0,0-.87-.49,2.9,2.9,0,0,0-1-.17,1.41,1.41,0,0,0-.94.24.77.77,0,0,0-.28.62.48.48,0,0,0,.21.42,1.24,1.24,0,0,0,.72.25l1.18.09a2.2,2.2,0,0,1,1.6.67,2.26,2.26,0,0,1,.46,1.46A1.85,1.85,0,0,1,263.69,285.1Zm8.84-2.5H268.1a1.66,1.66,0,0,0,.49,1.3,1.64,1.64,0,0,0,1.2.45,2.13,2.13,0,0,0,1.55-.69l1,.88a3.35,3.35,0,0,1-2.56,1.15,3.7,3.7,0,0,1-1.09-.16,2.73,2.73,0,0,1-.52-.24,2.57,2.57,0,0,1-.5-.32,2.83,2.83,0,0,1-.73-1.11,4.37,4.37,0,0,1-.31-1.78,4.94,4.94,0,0,1,.27-1.75,3,3,0,0,1,.68-1.12,2.54,2.54,0,0,1,1-.6,3,3,0,0,1,1-.18,3,3,0,0,1,2.06.8,2.91,2.91,0,0,1,.87,2.2Zm5,3h-.64a2,2,0,0,1-1.29-.39,1.56,1.56,0,0,1-.53-1.33v-8.24h1.43v8.13c0,.32.18.49.53.49h.49Zm5.29-8.62H282q-.64,0-.62.59v.94h1.43v1.09h-1.43v6H280v-6h-.72v-1.09H280v-.94a1.85,1.85,0,0,1,.56-1.49,2.11,2.11,0,0,1,1.37-.44h.92Zm11.42,8.62H292.8V285h0a1.2,1.2,0,0,1-.62.53,2.94,2.94,0,0,1-1.13.18,2.59,2.59,0,0,1-1.83-.63,2,2,0,0,1-.68-1.54,2,2,0,0,1,.59-1.48,2.34,2.34,0,0,1,1.72-.62h2v-.75q0-.94-1.46-.91a2.57,2.57,0,0,0-.84.11,1,1,0,0,0-.51.44l-1.12-.85a2.76,2.76,0,0,1,2.4-1,3.8,3.8,0,0,1,2.14.51,2.07,2.07,0,0,1,.81,1.83Zm8.57,0h-1.43v-4.22a1.52,1.52,0,0,0-.4-1.13,1.34,1.34,0,0,0-1-.4,1.37,1.37,0,0,0-1,.4,1.5,1.5,0,0,0-.4,1.13v4.22h-1.43v-7.1h1.43v.75h0a2.29,2.29,0,0,1,1.85-.84,2.36,2.36,0,0,1,2.37,2.47Zm8.57,0h-1.43v-.75a2.42,2.42,0,0,1-1.84.83,2.36,2.36,0,0,1-1.1-.27,2.4,2.4,0,0,1-.8-.66,1.81,1.81,0,0,1-.39-.91,14.18,14.18,0,0,1,0-3.62,1.77,1.77,0,0,1,.39-.88,2.2,2.2,0,0,1,1.9-.93,2.29,2.29,0,0,1,1,.23,4,4,0,0,1,.83.62v-3.62h1.43Zm12.2,0h-1.43V285h0a1.2,1.2,0,0,1-.62.53,2.94,2.94,0,0,1-1.13.18,2.59,2.59,0,0,1-1.83-.63,2,2,0,0,1-.68-1.54,2,2,0,0,1,.59-1.48,2.34,2.34,0,0,1,1.72-.62h2v-.75q0-.94-1.46-.91a2.57,2.57,0,0,0-.84.11,1,1,0,0,0-.51.44l-1.12-.85a2.76,2.76,0,0,1,2.4-1,3.8,3.8,0,0,1,2.14.51,2.07,2.07,0,0,1,.81,1.83Zm4.37,0h-1.43v-7.1h1.43Zm0-8.54h-1.43v-1.43h1.43Z" transform="translate(-105.93 -47.6)" fill="#fff"/><path d="M319.2,283.45a.76.76,0,0,0,.32.62,1.5,1.5,0,0,0,1,.28,2.51,2.51,0,0,0,1.26-.21q.33-.23.33-1v-.51h-1.71Q319.19,282.62,319.2,283.45Z" transform="translate(-105.93 -47.6)" fill="#fff"/><path d="M224.72,279.77a1.44,1.44,0,0,0-1.05.4,1.89,1.89,0,0,0-.44,1.25h3a1.8,1.8,0,0,0-.44-1.25A1.44,1.44,0,0,0,224.72,279.77Z" transform="translate(-105.93 -47.6)" fill="#fff"/><path d="M144.94,284.46q1.55,0,1.58-1.11,0-.89-1-1.07l-1.06-.15a2.61,2.61,0,0,1-1.56-.76,2.12,2.12,0,0,1-.55-1.48,2.18,2.18,0,0,1,.69-1.68,2.72,2.72,0,0,1,1.91-.65,4.47,4.47,0,0,1,2.59.83l-.67,1a3.66,3.66,0,0,0-2-.61,1.51,1.51,0,0,0-.93.28,1,1,0,0,0-.4.86.88.88,0,0,0,.27.62,1.53,1.53,0,0,0,.86.39l.9.13a2.48,2.48,0,0,1,1.66.8,2.26,2.26,0,0,1,.53,1.49q-.06,2.29-2.8,2.32a4.52,4.52,0,0,1-3-1.09l.79-.91A3.5,3.5,0,0,0,144.94,284.46Z" transform="translate(-105.93 -47.6)" fill="#fff"/><path d="M295.64,312.62h1.21v6.83h3.88v1.14h-5.09Z" transform="translate(-105.93 -47.6)" fill="#fff"/><path d="M304.64,312.55h.88l-2.68,8.1H302Z" transform="translate(-105.93 -47.6)" fill="#fff"/><path d="M309.65,319.45q1.55,0,1.57-1.11,0-.89-1-1.07l-1.05-.15a2.61,2.61,0,0,1-1.56-.76,2.12,2.12,0,0,1-.55-1.48,2.18,2.18,0,0,1,.7-1.68,2.71,2.71,0,0,1,1.91-.65,4.48,4.48,0,0,1,2.59.83l-.67,1a3.66,3.66,0,0,0-2-.61,1.51,1.51,0,0,0-.93.28,1,1,0,0,0-.4.86.88.88,0,0,0,.27.62,1.53,1.53,0,0,0,.86.39l.9.13a2.48,2.48,0,0,1,1.66.8,2.26,2.26,0,0,1,.53,1.49q-.06,2.29-2.8,2.32a4.52,4.52,0,0,1-3-1.09l.79-.91A3.51,3.51,0,0,0,309.65,319.45Z" transform="translate(-105.93 -47.6)" fill="#fff"/><path d="M312.7,389.24a1.65,1.65,0,0,0-.42-.38,1.51,1.51,0,0,0-1.39,0,1.6,1.6,0,0,0-.44.38,1,1,0,0,0-.23.52,7.92,7.92,0,0,0-.05,1.15,7.5,7.5,0,0,0,.05,1.12,1.05,1.05,0,0,0,.23.53,1.32,1.32,0,0,0,.44.35,1.37,1.37,0,0,0,1.39,0,1.34,1.34,0,0,0,.42-.35,1.15,1.15,0,0,0,.24-.53,10.06,10.06,0,0,0,0-1.12,10.63,10.63,0,0,0,0-1.15A1,1,0,0,0,312.7,389.24Z" transform="translate(-105.93 -47.6)" fill="#fff"/><path d="M294.45,388.61a1.44,1.44,0,0,0-1.05.4,1.89,1.89,0,0,0-.44,1.25h3a1.8,1.8,0,0,0-.44-1.25A1.44,1.44,0,0,0,294.45,388.61Z" transform="translate(-105.93 -47.6)" fill="#fff"/><path d="M287.6,389.41a1,1,0,0,0-.4-.52,1.41,1.41,0,0,0-.8-.2,1.43,1.43,0,0,0-.77.17,1.09,1.09,0,0,0-.43.51,2.6,2.6,0,0,0-.17.7,8.15,8.15,0,0,0,0,.83,7.4,7.4,0,0,0,0,.79,2.67,2.67,0,0,0,.17.72,1.19,1.19,0,0,0,.43.51,1.32,1.32,0,0,0,.77.19,1.37,1.37,0,0,0,.8-.21,1,1,0,0,0,.4-.52,2.61,2.61,0,0,0,.18-.72c0-.26,0-.52,0-.77s0-.54,0-.79A2.56,2.56,0,0,0,287.6,389.41Z" transform="translate(-105.93 -47.6)" fill="#fff"/><path d="M332.21,373.8H123.3a4.78,4.78,0,0,0-4.77,4.77v22.22a4.78,4.78,0,0,0,4.77,4.77H332.21a4.78,4.78,0,0,0,4.77-4.77V378.57A4.78,4.78,0,0,0,332.21,373.8Zm-117,27.69H136.66V377.86h78.58Zm17.38-13.05h-1v4.14c0,.36.16.53.51.53h.53v1.35h-.75a1.69,1.69,0,0,1-1.23-.46,1.64,1.64,0,0,1-.49-1.29v-4.26h-.71v-1.09h.71v-2.16h1.43v2.16h1Zm8.06,6h-1.43v-.76h0a2.28,2.28,0,0,1-1.84.84,2.41,2.41,0,0,1-1.59-.64,2.22,2.22,0,0,1-.79-1.82v-4.72h1.43v4.22a1.51,1.51,0,0,0,.4,1.12,1.36,1.36,0,0,0,1,.4,1.34,1.34,0,0,0,1-.4,1.53,1.53,0,0,0,.4-1.12v-4.22h1.43Zm6.65-5.4a1.49,1.49,0,0,0-.94-.36,1.34,1.34,0,0,0-.94.36,1.39,1.39,0,0,0-.45,1.13v4.27h-1.43v-7.1H245v.75h0a2.38,2.38,0,0,1,3.34-.29Zm7.18,5.4-1.89-3.32-1.12,1.27v2h-1.43v-10h1.43v6.2h0l2.73-3.33H256l-2.45,2.77,2.78,4.33Zm5.35,0h-1.43v-7.1h1.43Zm0-8.54h-1.43v-1.43h1.43Zm7.37,8a3.65,3.65,0,0,1-2.1.59,4.51,4.51,0,0,1-3.12-1.27l1-1a3,3,0,0,0,2.24.91,1.9,1.9,0,0,0,1-.24.75.75,0,0,0,.39-.67.59.59,0,0,0-.23-.53,1.21,1.21,0,0,0-.64-.17l-1.26-.11a2.39,2.39,0,0,1-1.46-.6,1.83,1.83,0,0,1-.59-1.42,1.92,1.92,0,0,1,.77-1.64,3.06,3.06,0,0,1,1.87-.55,5.69,5.69,0,0,1,.88.06,4.37,4.37,0,0,1,.73.19,4.17,4.17,0,0,1,1.18.72l-.88,1a4.34,4.34,0,0,0-.87-.49,2.9,2.9,0,0,0-1-.17,1.41,1.41,0,0,0-.94.24.77.77,0,0,0-.28.62.48.48,0,0,0,.21.42,1.24,1.24,0,0,0,.72.25l1.18.09a2.2,2.2,0,0,1,1.6.67,2.26,2.26,0,0,1,.46,1.46A1.85,1.85,0,0,1,267.24,393.94Zm9,.51h-1.43v-4.22a1.52,1.52,0,0,0-.4-1.13,1.34,1.34,0,0,0-1-.4,1.37,1.37,0,0,0-1,.4,1.5,1.5,0,0,0-.4,1.13v4.22h-1.43v-10H272v3.62h0a2.29,2.29,0,0,1,1.85-.84,2.36,2.36,0,0,1,2.37,2.47Zm13,0H287.8v-.75a2.42,2.42,0,0,1-1.84.83,2.36,2.36,0,0,1-1.1-.27,2.4,2.4,0,0,1-.8-.66,1.81,1.81,0,0,1-.39-.91,14.18,14.18,0,0,1,0-3.62,1.77,1.77,0,0,1,.39-.88,2.2,2.2,0,0,1,1.9-.93,2.29,2.29,0,0,1,1,.23,4,4,0,0,1,.83.62v-3.62h1.43Zm8.15-3h-4.42a1.66,1.66,0,0,0,.49,1.3,1.64,1.64,0,0,0,1.2.45,2.13,2.13,0,0,0,1.55-.69l1,.88a3.35,3.35,0,0,1-2.56,1.15,3.7,3.7,0,0,1-1.09-.16,2.73,2.73,0,0,1-.52-.24,2.57,2.57,0,0,1-.5-.32,2.83,2.83,0,0,1-.73-1.11,4.37,4.37,0,0,1-.31-1.78,4.94,4.94,0,0,1,.27-1.75,3,3,0,0,1,.68-1.12,2.54,2.54,0,0,1,1-.6,3,3,0,0,1,1-.18,3,3,0,0,1,2.06.8,2.91,2.91,0,0,1,.87,2.2Zm5,3h-.64a2,2,0,0,1-1.29-.39,1.56,1.56,0,0,1-.53-1.33v-8.24h1.43v8.13c0,.32.18.49.53.49h.49Zm3.68,0h-1.43v-7.1H306Zm0-8.54h-1.43v-1.43H306Zm8.36,8.37a3,3,0,0,1-.92,2.35,3.22,3.22,0,0,1-2.16.77,3.25,3.25,0,0,1-2.46-1.19l1.11-.88a2.72,2.72,0,0,0,.63.43,1.7,1.7,0,0,0,1.93-.19,1.53,1.53,0,0,0,.45-1.13v-.73a2.41,2.41,0,0,1-1.83.83,2.27,2.27,0,0,1-1.15-.29,2.53,2.53,0,0,1-.73-.57,2.16,2.16,0,0,1-.4-.85,9,9,0,0,1-.13-1.9,9.33,9.33,0,0,1,.13-1.93,2.08,2.08,0,0,1,.4-.84,2.29,2.29,0,0,1,.73-.6,2.48,2.48,0,0,1,3,.57v-.75h1.43Zm8.57.17h-1.43v-4.22a1.52,1.52,0,0,0-.4-1.13,1.34,1.34,0,0,0-1-.4,1.37,1.37,0,0,0-1,.4,1.5,1.5,0,0,0-.4,1.13v4.22H317.3v-10h1.43v3.62h0a2.29,2.29,0,0,1,1.85-.84,2.36,2.36,0,0,1,2.37,2.47Zm5.45-6h-1v4.14c0,.36.16.53.51.53h.53v1.35h-.75a1.69,1.69,0,0,1-1.23-.46,1.64,1.64,0,0,1-.49-1.29v-4.26h-.71v-1.09H326v-2.16h1.43v2.16h1Z" transform="translate(-105.93 -47.6)" fill="#fff"/><path d="M146.52,391.9q1.55,0,1.58-1.11,0-.89-1-1.07l-1.06-.15a2.61,2.61,0,0,1-1.56-.76,2.12,2.12,0,0,1-.55-1.48,2.18,2.18,0,0,1,.69-1.68,2.72,2.72,0,0,1,1.91-.65,4.47,4.47,0,0,1,2.59.83l-.67,1a3.66,3.66,0,0,0-2-.61,1.51,1.51,0,0,0-.93.28,1,1,0,0,0-.4.86.88.88,0,0,0,.27.62,1.53,1.53,0,0,0,.86.39l.9.13a2.48,2.48,0,0,1,1.66.8,2.26,2.26,0,0,1,.53,1.49q-.06,2.29-2.8,2.32a4.52,4.52,0,0,1-3-1.09l.79-.91A3.5,3.5,0,0,0,146.52,391.9Z" transform="translate(-105.93 -47.6)" fill="#fff"/><path d="M178.57,423.38H180v.75h0a2.3,2.3,0,0,1,1.85-.84,2.65,2.65,0,0,1,1.19.25,3.55,3.55,0,0,1,.81.68,2.8,2.8,0,0,1,2.24-.93,2.43,2.43,0,0,1,1.61.62,2.39,2.39,0,0,1,.75,1.85v4.72h-1.43v-4.22a1.54,1.54,0,0,0-.39-1.13,1.35,1.35,0,0,0-1-.4,1.37,1.37,0,0,0-1,.4,1.51,1.51,0,0,0-.4,1.13v4.22h-1.43v-4.22a1.54,1.54,0,0,0-.39-1.13,1.37,1.37,0,0,0-1-.4,1.35,1.35,0,0,0-1,.4,1.49,1.49,0,0,0-.41,1.13v4.22h-1.43Z" transform="translate(-105.93 -47.6)" fill="#fff"/><path d="M191.12,426.92a6.19,6.19,0,0,1,.18-1.72,2.49,2.49,0,0,1,.59-1,2.67,2.67,0,0,1,.82-.64,3,3,0,0,1,1.33-.28,3.09,3.09,0,0,1,1.36.28,2.54,2.54,0,0,1,.79.64,2.23,2.23,0,0,1,.6,1,6.67,6.67,0,0,1,.17,1.72,6.5,6.5,0,0,1-.17,1.71,2.44,2.44,0,0,1-.6,1,2.25,2.25,0,0,1-.33.31,1.55,1.55,0,0,1-.46.29,2.84,2.84,0,0,1-1.36.31,2.77,2.77,0,0,1-1.33-.31,2.69,2.69,0,0,1-.82-.6,2.73,2.73,0,0,1-.59-1A6,6,0,0,1,191.12,426.92Zm4.42,0a6.39,6.39,0,0,0-.07-1.11,1.31,1.31,0,0,0-.28-.59,1,1,0,0,0-.46-.38,1.54,1.54,0,0,0-.68-.14,1.56,1.56,0,0,0-.67.14,1.27,1.27,0,0,0-.48.38,1.65,1.65,0,0,0-.27.59,5.24,5.24,0,0,0-.08,1.09,5.09,5.09,0,0,0,.08,1.08,1.79,1.79,0,0,0,.27.62,1.73,1.73,0,0,0,.48.36,1.5,1.5,0,0,0,.67.15,1.48,1.48,0,0,0,.68-.15,1.34,1.34,0,0,0,.46-.36,1.41,1.41,0,0,0,.28-.62A6,6,0,0,0,195.54,426.94Z" transform="translate(-105.93 -47.6)" fill="#fff"/><path d="M199.56,420.51H201v1.43l-1.43,1Z" transform="translate(-105.93 -47.6)" fill="#fff"/><path d="M208.17,429.73a2.42,2.42,0,0,1-1.84.83,2.34,2.34,0,0,1-1.1-.27,2.39,2.39,0,0,1-.8-.66,1.8,1.8,0,0,1-.39-.91,14.18,14.18,0,0,1,0-3.62,1.77,1.77,0,0,1,.39-.88,2.2,2.2,0,0,1,1.9-.93,2.29,2.29,0,0,1,1,.23,4.07,4.07,0,0,1,.83.62v-3.62h1.43v10h-1.43Zm-1.4-5a1.43,1.43,0,0,0-.77.17,1.09,1.09,0,0,0-.43.51,2.61,2.61,0,0,0-.17.7,8.17,8.17,0,0,0,0,.83,7.38,7.38,0,0,0,0,.79,2.65,2.65,0,0,0,.17.72,1.18,1.18,0,0,0,.43.51,1.31,1.31,0,0,0,.77.19,1.38,1.38,0,0,0,.8-.21,1,1,0,0,0,.4-.52,2.61,2.61,0,0,0,.18-.72q0-.39,0-.77t0-.79a2.6,2.6,0,0,0-.18-.7,1,1,0,0,0-.4-.52A1.41,1.41,0,0,0,206.77,424.72Z" transform="translate(-105.93 -47.6)" fill="#fff"/><path d="M216,429.85h0a1.19,1.19,0,0,1-.62.53,2.93,2.93,0,0,1-1.13.18,2.59,2.59,0,0,1-1.83-.63,2,2,0,0,1-.68-1.54,2,2,0,0,1,.59-1.48,2.34,2.34,0,0,1,1.72-.62h2v-.75q0-.94-1.46-.91a2.58,2.58,0,0,0-.84.11,1,1,0,0,0-.51.44l-1.12-.85a2.77,2.77,0,0,1,2.4-1,3.81,3.81,0,0,1,2.14.51,2.07,2.07,0,0,1,.81,1.83v4.85H216Zm0-2.38h-1.71q-1.24,0-1.23.85a.76.76,0,0,0,.32.62,1.5,1.5,0,0,0,1,.28,2.5,2.5,0,0,0,1.26-.21q.33-.23.33-1Z" transform="translate(-105.93 -47.6)" fill="#fff"/><path d="M220.37,421.22h1.43v2.16h1v1.09h-1v4.14c0,.36.16.54.51.53h.53v1.35h-.75a1.69,1.69,0,0,1-1.23-.46,1.64,1.64,0,0,1-.49-1.29v-4.26h-.71v-1.09h.71Z" transform="translate(-105.93 -47.6)" fill="#fff"/><path d="M229,429.85h0a1.19,1.19,0,0,1-.62.53,2.93,2.93,0,0,1-1.13.18,2.59,2.59,0,0,1-1.83-.63,2,2,0,0,1-.68-1.54,2,2,0,0,1,.59-1.48,2.34,2.34,0,0,1,1.72-.62h2v-.75q0-.94-1.46-.91a2.58,2.58,0,0,0-.84.11,1,1,0,0,0-.51.44l-1.12-.85a2.76,2.76,0,0,1,2.4-1,3.81,3.81,0,0,1,2.14.51,2.06,2.06,0,0,1,.81,1.83v4.85H229Zm0-2.38h-1.71q-1.25,0-1.23.85a.76.76,0,0,0,.32.62,1.5,1.5,0,0,0,1,.28,2.5,2.5,0,0,0,1.26-.21q.34-.23.34-1Z" transform="translate(-105.93 -47.6)" fill="#fff"/><path d="M237.77,423.38h1.43v.75h0a2.3,2.3,0,0,1,1.85-.84,2.65,2.65,0,0,1,1.19.25,3.56,3.56,0,0,1,.81.68,2.8,2.8,0,0,1,2.24-.93,2.43,2.43,0,0,1,1.61.62,2.39,2.39,0,0,1,.75,1.85v4.72h-1.43v-4.22a1.54,1.54,0,0,0-.39-1.13,1.35,1.35,0,0,0-1-.4,1.37,1.37,0,0,0-1,.4,1.51,1.51,0,0,0-.4,1.13v4.22H242v-4.22a1.54,1.54,0,0,0-.39-1.13,1.37,1.37,0,0,0-1-.4,1.35,1.35,0,0,0-1,.4,1.49,1.49,0,0,0-.41,1.13v4.22h-1.43Z" transform="translate(-105.93 -47.6)" fill="#fff"/><path d="M250.32,426.92a6.19,6.19,0,0,1,.18-1.72,2.49,2.49,0,0,1,.59-1,2.68,2.68,0,0,1,.82-.64,3,3,0,0,1,1.33-.28,3.09,3.09,0,0,1,1.36.28,2.53,2.53,0,0,1,.79.64,2.23,2.23,0,0,1,.6,1,6.65,6.65,0,0,1,.17,1.72,6.48,6.48,0,0,1-.17,1.71,2.44,2.44,0,0,1-.6,1,2.25,2.25,0,0,1-.33.31,1.55,1.55,0,0,1-.46.29,2.84,2.84,0,0,1-1.36.31,2.78,2.78,0,0,1-1.33-.31,2.7,2.7,0,0,1-.82-.6,2.73,2.73,0,0,1-.59-1A6,6,0,0,1,250.32,426.92Zm4.42,0a6.34,6.34,0,0,0-.07-1.11,1.31,1.31,0,0,0-.28-.59,1,1,0,0,0-.46-.38,1.54,1.54,0,0,0-.68-.14,1.57,1.57,0,0,0-.67.14,1.27,1.27,0,0,0-.48.38,1.65,1.65,0,0,0-.27.59,5.24,5.24,0,0,0-.08,1.09,5.09,5.09,0,0,0,.08,1.08,1.79,1.79,0,0,0,.27.62,1.73,1.73,0,0,0,.48.36,1.5,1.5,0,0,0,.67.15,1.48,1.48,0,0,0,.68-.15,1.34,1.34,0,0,0,.46-.36,1.41,1.41,0,0,0,.28-.62A5.94,5.94,0,0,0,254.74,426.94Z" transform="translate(-105.93 -47.6)" fill="#fff"/><path d="M258.76,420.51h1.43v1.43l-1.43,1Z" transform="translate(-105.93 -47.6)" fill="#fff"/><path d="M263.12,423.38h1.43v.74a2.46,2.46,0,0,1,1.83-.83,2.21,2.21,0,0,1,1.91.93,1.87,1.87,0,0,1,.4.88,11.2,11.2,0,0,1,.1,1.83,11,11,0,0,1-.1,1.8,2,2,0,0,1-.4.9,2.13,2.13,0,0,1-.77.66,2.47,2.47,0,0,1-1.13.27,2,2,0,0,1-1-.24,3.1,3.1,0,0,1-.85-.6v3.63h-1.43Zm2.83,5.75a1.45,1.45,0,0,0,.8-.19,1.09,1.09,0,0,0,.42-.51,2.65,2.65,0,0,0,.18-.71c0-.25,0-.52,0-.79s0-.56,0-.83a2.48,2.48,0,0,0-.18-.71,1,1,0,0,0-.42-.51,1.59,1.59,0,0,0-.8-.17,1.29,1.29,0,0,0-.76.2,1.16,1.16,0,0,0-.43.52,2.59,2.59,0,0,0-.17.7,7.78,7.78,0,0,0,0,.8,6.93,6.93,0,0,0,0,.75,2.61,2.61,0,0,0,.17.72,1.16,1.16,0,0,0,.43.52A1.26,1.26,0,0,0,266,429.13Z" transform="translate(-105.93 -47.6)" fill="#fff"/><path d="M271.44,423.38h1.43v.75h0a2.38,2.38,0,0,1,3.34-.29l-1,1.24a1.5,1.5,0,0,0-.94-.36,1.34,1.34,0,0,0-.94.36,1.39,1.39,0,0,0-.45,1.13v4.27h-1.43Z" transform="translate(-105.93 -47.6)" fill="#fff"/><path d="M277.34,426.92a6.19,6.19,0,0,1,.18-1.72,2.49,2.49,0,0,1,.59-1,2.68,2.68,0,0,1,.82-.64,3,3,0,0,1,1.33-.28,3.09,3.09,0,0,1,1.36.28,2.53,2.53,0,0,1,.79.64,2.23,2.23,0,0,1,.6,1,6.65,6.65,0,0,1,.17,1.72,6.48,6.48,0,0,1-.17,1.71,2.44,2.44,0,0,1-.6,1,2.25,2.25,0,0,1-.33.31,1.55,1.55,0,0,1-.46.29,2.84,2.84,0,0,1-1.36.31,2.78,2.78,0,0,1-1.33-.31,2.7,2.7,0,0,1-.82-.6,2.73,2.73,0,0,1-.59-1A6,6,0,0,1,277.34,426.92Zm4.42,0a6.34,6.34,0,0,0-.07-1.11,1.31,1.31,0,0,0-.28-.59,1,1,0,0,0-.46-.38,1.54,1.54,0,0,0-.68-.14,1.57,1.57,0,0,0-.67.14,1.27,1.27,0,0,0-.48.38,1.65,1.65,0,0,0-.27.59,5.24,5.24,0,0,0-.08,1.09,5.09,5.09,0,0,0,.08,1.08,1.79,1.79,0,0,0,.27.62,1.73,1.73,0,0,0,.48.36,1.5,1.5,0,0,0,.67.15,1.48,1.48,0,0,0,.68-.15,1.34,1.34,0,0,0,.46-.36,1.41,1.41,0,0,0,.28-.62A5.94,5.94,0,0,0,281.76,426.94Z" transform="translate(-105.93 -47.6)" fill="#fff"/><path d="M285.74,420.51h1.43v3.62a3.59,3.59,0,0,1,.85-.62,2.08,2.08,0,0,1,1-.23,2.21,2.21,0,0,1,1.91.93,1.87,1.87,0,0,1,.4.88,16.05,16.05,0,0,1,0,3.62,1.89,1.89,0,0,1-.4.91,2.13,2.13,0,0,1-.77.66,2.47,2.47,0,0,1-1.13.27,2.42,2.42,0,0,1-1.83-.83v.75h-1.43Zm2.83,4.21a1.29,1.29,0,0,0-.76.2,1.16,1.16,0,0,0-.43.52,2.59,2.59,0,0,0-.17.7,7.36,7.36,0,0,0,0,1.55,2.61,2.61,0,0,0,.17.72,1.16,1.16,0,0,0,.43.52,1.26,1.26,0,0,0,.76.21,1.45,1.45,0,0,0,.8-.19,1.09,1.09,0,0,0,.42-.51,2.66,2.66,0,0,0,.18-.72c0-.25,0-.52,0-.79s0-.56,0-.83a2.63,2.63,0,0,0-.18-.7,1,1,0,0,0-.42-.51A1.59,1.59,0,0,0,288.57,424.72Z" transform="translate(-105.93 -47.6)" fill="#fff"/><path d="M294.05,420.51h1.43v8.13q0,.48.53.49h.49v1.35h-.64a2,2,0,0,1-1.29-.39,1.55,1.55,0,0,1-.53-1.33Z" transform="translate(-105.93 -47.6)" fill="#fff"/><path d="M299.79,427.47a1.66,1.66,0,0,0,.49,1.3,1.64,1.64,0,0,0,1.2.45,2.13,2.13,0,0,0,1.55-.69l1,.88a3.35,3.35,0,0,1-2.56,1.15,3.7,3.7,0,0,1-1.09-.16,2.67,2.67,0,0,1-.52-.24,2.53,2.53,0,0,1-.5-.32,2.82,2.82,0,0,1-.73-1.11,4.37,4.37,0,0,1-.31-1.78,4.94,4.94,0,0,1,.27-1.75,3,3,0,0,1,.68-1.12,2.54,2.54,0,0,1,1-.6,3.05,3.05,0,0,1,1-.18,3,3,0,0,1,2.06.8,2.91,2.91,0,0,1,.87,2.2v1.18Zm3-1.18a1.8,1.8,0,0,0-.44-1.25,1.58,1.58,0,0,0-2.11,0,1.89,1.89,0,0,0-.44,1.25Z" transform="translate(-105.93 -47.6)" fill="#fff"/><path d="M306.84,423.38h1.43v.75h0a2.3,2.3,0,0,1,1.85-.84,2.65,2.65,0,0,1,1.19.25,3.56,3.56,0,0,1,.81.68,2.8,2.8,0,0,1,2.24-.93,2.43,2.43,0,0,1,1.61.62,2.39,2.39,0,0,1,.75,1.85v4.72h-1.43v-4.22a1.54,1.54,0,0,0-.39-1.13,1.35,1.35,0,0,0-1-.4,1.37,1.37,0,0,0-1,.4,1.51,1.51,0,0,0-.4,1.13v4.22h-1.43v-4.22a1.54,1.54,0,0,0-.39-1.13,1.37,1.37,0,0,0-1-.4,1.35,1.35,0,0,0-1,.4,1.49,1.49,0,0,0-.41,1.13v4.22h-1.43Z" transform="translate(-105.93 -47.6)" fill="#fff"/><path d="M322.19,429.22a1.9,1.9,0,0,0,1-.24.75.75,0,0,0,.39-.67.59.59,0,0,0-.23-.53,1.22,1.22,0,0,0-.64-.17l-1.26-.11a2.39,2.39,0,0,1-1.46-.6,1.82,1.82,0,0,1-.59-1.42,1.92,1.92,0,0,1,.77-1.64,3.06,3.06,0,0,1,1.87-.55,5.69,5.69,0,0,1,.88.06,4.43,4.43,0,0,1,.73.19,4.18,4.18,0,0,1,1.18.72l-.88,1a4.39,4.39,0,0,0-.87-.49,2.92,2.92,0,0,0-1-.17,1.41,1.41,0,0,0-.94.24.77.77,0,0,0-.28.62.48.48,0,0,0,.21.42,1.23,1.23,0,0,0,.72.25l1.18.09a2.2,2.2,0,0,1,1.6.67,2.26,2.26,0,0,1,.46,1.46,1.84,1.84,0,0,1-.84,1.59,3.65,3.65,0,0,1-2.1.59,4.51,4.51,0,0,1-3.12-1.27l1-1A3,3,0,0,0,322.19,429.22Z" transform="translate(-105.93 -47.6)" fill="#fff"/><path d="M346.21,410.2H137.3a4.78,4.78,0,0,0-4.77,4.77v22.22a4.78,4.78,0,0,0,4.77,4.77H346.21a4.78,4.78,0,0,0,4.77-4.77V415A4.78,4.78,0,0,0,346.21,410.2ZM152,430.54a4.52,4.52,0,0,1-3-1.09l.79-.91a3.51,3.51,0,0,0,2.26.79q1.55,0,1.57-1.11,0-.89-1-1.07l-1.06-.15a2.61,2.61,0,0,1-1.56-.76,2.12,2.12,0,0,1-.55-1.48,2.18,2.18,0,0,1,.69-1.68,2.7,2.7,0,0,1,1.91-.65,4.48,4.48,0,0,1,2.59.83l-.67,1a3.65,3.65,0,0,0-2-.61,1.51,1.51,0,0,0-.93.28,1,1,0,0,0-.4.86.88.88,0,0,0,.27.62,1.55,1.55,0,0,0,.86.39l.9.13a2.47,2.47,0,0,1,1.66.8,2.26,2.26,0,0,1,.53,1.49Q154.73,430.51,152,430.54Zm180.86,7.35H170.26V414.26H332.84Z" transform="translate(-105.93 -47.6)" fill="#fff"/></svg>