<svg xmlns="http://www.w3.org/2000/svg" viewBox="0 0 397.51 422.62"><title>offcourse tool_kaarten_wit</title><g id="Layer_1" data-name="Layer 1"><path d="M291.74,434.19c-.46,0-.74.27-.8.81h1.6C292.48,434.46,292.2,434.19,291.74,434.19Z" transform="translate(-41.32 -27.47)" fill="#fff"/><path d="M162.71,27.47V450.09H317.58V27.47Zm8.45,49.32h26.29v26.29H171.17Zm0,143.59h138.2V240.5H171.17Zm0,24.72h138.2v32.18H171.17Zm0,36.91h138.2v20.13H171.17Zm0,24.55h138.2v32.18H171.17Zm0,36.81h138.2v20.13H171.17Zm67.41,46.76V381h23.08v9.13Zm21,1.83v9.13h-21v-9.13Zm2.09,0H303.4v9.13H261.65Zm1.45-1.83V381h31.43v9.13Zm-61.73,0V381h35.49v9.13Zm35.36,1.83v9.13H204.57v-9.13Zm-65.89-11h28.44v9.13H170.84Zm0,11h31.84v9.13H170.84Zm9.73,40.3c-.08.11-.16.22-.25.32a5.65,5.65,0,0,1-.58.56.45.45,0,0,0-.16.35,6.39,6.39,0,0,1-.8,3,6,6,0,0,1-1.3,1.61,5.42,5.42,0,0,1-1.41.89,5.62,5.62,0,0,1-1.66.45c-.19,0-.37.05-.56.06a5.26,5.26,0,0,1-.93,0,6.14,6.14,0,0,1-1.1-.23,7.06,7.06,0,0,1-1.36-.61.28.28,0,0,1-.09-.07,4.34,4.34,0,0,0,1.63-.13,4,4,0,0,0,1.46-.73,2.09,2.09,0,0,1-1.2-.43,2.13,2.13,0,0,1-.74-1,2.57,2.57,0,0,0,.91,0,2.15,2.15,0,0,1-1.65-2.1,2.16,2.16,0,0,0,.45.18,1.93,1.93,0,0,0,.48.08,2.11,2.11,0,0,1-.86-1.29,2.09,2.09,0,0,1,.23-1.51,6,6,0,0,0,4.32,2.2s0,0,0-.06a2.15,2.15,0,0,1,0-.48,2,2,0,0,1,.26-1,2.13,2.13,0,0,1,1.3-1c.1,0,.2,0,.29-.07h.49a.62.62,0,0,0,.15,0,2.12,2.12,0,0,1,1,.5.3.3,0,0,0,.29.08,4.65,4.65,0,0,0,1.11-.43l.05,0h0a2.31,2.31,0,0,1-.87,1.13,5.83,5.83,0,0,0,1.16-.31Zm11.78,6.51a.73.73,0,0,1-.73.73h-6.81a.73.73,0,0,1-.73-.73v-6.81a.73.73,0,0,1,.73-.73h6.81a.73.73,0,0,1,.73.73ZM219.12,412H170.84V402.9h48.27Zm45.54,0h-44V402.9h44Zm1.6-9.13h43V412h-43Zm42.53,28.71v5.75H307.7v-5.75Zm-2.16,1.8a1,1,0,0,1,.46.09v.92a1.29,1.29,0,0,0-.56-.11,1,1,0,0,0-.8.31v2.74h-1.08v-3.86h1V434A1.08,1.08,0,0,1,306.62,433.41Zm-5.17,3.08c.67,0,1-.29,1-1.08v-2.9h1.1v3c0,1.35-.79,1.92-2.08,1.92s-2.08-.57-2.08-1.92v-3h1.1v2.9C300.47,436.2,300.78,436.49,301.45,436.49Zm-5.31.1a1.66,1.66,0,0,0,.52-.09v.82a2.23,2.23,0,0,1-.8.13c-1,0-1.35-.56-1.35-1.32v-1.83H294v-.8h.35c.32,0,.43-.12.43-.43v-.7h.85v1.14h1.14v.8h-1.14V436C295.59,436.39,295.7,436.59,296.14,436.59Zm-4.36.05a.69.69,0,0,0,.76-.58h1a1.68,1.68,0,0,1-1.83,1.39,2,2,0,0,1,0-4,1.77,1.77,0,0,1,1.87,2v.16h-2.68C290.94,436.29,291.24,436.64,291.78,436.64Zm-5.16.81c-1.23,0-2.18-.77-2.18-2.5a2.22,2.22,0,0,1,2.32-2.52,2,2,0,0,1,2.16,1.65h-1.1a.94.94,0,0,0-1-.71c-.8,0-1.25.48-1.25,1.58s.43,1.56,1.2,1.56,1.09-.36,1.14-.8H286.8v-.83H289v2.48h-.87v-.6A1.69,1.69,0,0,1,286.62,437.45Zm23,4.4H283.9v-1.3h25.7Z" transform="translate(-41.32 -27.47)" fill="#fff"/><path d="M172,41.61c0-3.37,2.12-4.43,4.08-4.43s3.54,1,3.8,2.9h-1.94a1.65,1.65,0,0,0-1.8-1.25c-1.4,0-2.2.84-2.2,2.78s.76,2.75,2.11,2.75,1.91-.64,2-1.4h-1.89V41.49H180v4.37h-1.53V44.8A3,3,0,0,1,175.84,46C173.67,46,172,44.65,172,41.61Z" transform="translate(-41.32 -27.47)"/><path d="M188.08,43.57A3,3,0,0,1,184.86,46c-1.63,0-3.31-.87-3.31-3.56s1.73-3.54,3.28-3.54,3.28.76,3.28,3.54v.27H183.4c0,1.25.56,1.86,1.51,1.86a1.21,1.21,0,0,0,1.34-1Zm-1.85-1.86c-.11-.95-.6-1.42-1.4-1.42s-1.3.47-1.4,1.42Z" transform="translate(-41.32 -27.47)"/><path d="M189.7,40.47h-1v-1.4h.61c.56,0,.76-.21.76-.76V37.06h1.5v2h2v1.4h-2v3c0,.67.2,1,1,1a2.92,2.92,0,0,0,.92-.15v1.43a3.93,3.93,0,0,1-1.4.23c-1.82,0-2.38-1-2.38-2.32Z" transform="translate(-41.32 -27.47)"/><path d="M199.76,43.23c.08.92.89,1.3,1.82,1.3s1.43-.38,1.43-1-.32-.79-1.11-1l-1.71-.46c-1.42-.38-2.2-1.16-2.2-2.41,0-1.8,1.6-2.5,3.28-2.5,1.86,0,3.27.87,3.4,2.72h-2c-.06-.89-.76-1.24-1.57-1.24s-1.22.34-1.22.89.27.75,1.1,1l1.71.46c1.36.37,2.21,1.08,2.21,2.43,0,1.91-1.71,2.6-3.48,2.6-2.12,0-3.54-1-3.68-2.78Z" transform="translate(-41.32 -27.47)"/><path d="M206.51,40.47h-1v-1.4h.61c.56,0,.76-.21.76-.76V37.06h1.5v2h2v1.4h-2v3c0,.67.2,1,1,1a2.92,2.92,0,0,0,.92-.15v1.43a3.93,3.93,0,0,1-1.4.23c-1.82,0-2.38-1-2.38-2.32Z" transform="translate(-41.32 -27.47)"/><path d="M215.82,44.94a3,3,0,0,1-2.4,1.07c-1.19,0-2.18-.56-2.18-1.91,0-1.69,1.59-2,2.78-2.11l1.47-.12v-.15c0-.87-.14-1.4-1.08-1.4s-1.1.4-1.11,1.11h-1.77c0-2.06,1.66-2.52,3.07-2.52,2.11,0,2.78,1,2.78,2.64v2.63c0,.26.09.4.37.4a1.21,1.21,0,0,0,.53-.14v1.28a2.45,2.45,0,0,1-1.21.29c-1,0-1.24-.53-1.24-1Zm-.34-2L214.4,43c-.84.09-1.28.35-1.28.95s.27.75.92.75a2.23,2.23,0,0,0,1.45-.55Z" transform="translate(-41.32 -27.47)"/><path d="M219.42,39.06h1.68V40a1.9,1.9,0,0,1,1.79-1.08,1.76,1.76,0,0,1,.81.15v1.62a2.27,2.27,0,0,0-1-.2,1.7,1.7,0,0,0-1.4.55v4.82h-1.89Z" transform="translate(-41.32 -27.47)"/><path d="M225,40.47h-1v-1.4h.61c.56,0,.76-.21.76-.76V37.06h1.5v2h2v1.4h-2v3c0,.67.2,1,1,1a2.92,2.92,0,0,0,.92-.15v1.43a3.93,3.93,0,0,1-1.4.23c-1.82,0-2.38-1-2.38-2.32Z" transform="translate(-41.32 -27.47)"/><path d="M236.27,43.57A3,3,0,0,1,233.05,46c-1.63,0-3.31-.87-3.31-3.56s1.72-3.54,3.28-3.54,3.28.76,3.28,3.54v.27h-4.72c0,1.25.56,1.86,1.51,1.86a1.21,1.21,0,0,0,1.34-1Zm-1.85-1.86c-.11-.95-.6-1.42-1.4-1.42s-1.3.47-1.4,1.42Z" transform="translate(-41.32 -27.47)"/><path d="M242.34,45a2.32,2.32,0,0,1-2,1c-1.45,0-2.9-1-2.9-3.53s1.47-3.57,2.9-3.57a2.21,2.21,0,0,1,1.8.79v-4H244V45.86h-1.68Zm-.21-4.12a1.8,1.8,0,0,0-1.24-.46c-1,0-1.54.7-1.54,2s.52,2,1.54,2a1.8,1.8,0,0,0,1.24-.46Z" transform="translate(-41.32 -27.47)"/><path d="M248.5,37.34h1.86l1.53,6.09,1.57-6.09h1.92L257,43.43l1.51-6.09h1.8L258,45.86H256l-1.63-6.18-1.63,6.18h-1.94Z" transform="translate(-41.32 -27.47)"/><path d="M261.55,35.75h2v1.68h-2Zm0,3.31h1.89v6.79H261.6Z" transform="translate(-41.32 -27.47)"/><path d="M265.51,40.47h-1v-1.4h.61c.56,0,.76-.21.76-.76V37.06h1.5v2h2v1.4h-2v3c0,.67.2,1,1,1a2.92,2.92,0,0,0,.92-.15v1.43a3.93,3.93,0,0,1-1.4.23c-1.82,0-2.38-1-2.38-2.32Z" transform="translate(-41.32 -27.47)"/><path d="M270.68,35.75h1.89v4.09a2.32,2.32,0,0,1,2-.93c1.08,0,2.29.47,2.29,2.75v4.2H275V42c0-1-.23-1.47-1.14-1.47a1.75,1.75,0,0,0-1.3.5v4.82h-1.89Z" transform="translate(-41.32 -27.47)"/><path d="M172,53.73c0-2.64,1.36-4.41,4.12-4.41s4.12,1.77,4.12,4.41-1.36,4.41-4.12,4.41S172,56.37,172,53.73Zm6.24,0c0-1.34-.41-2.73-2.12-2.73S174,52.39,174,53.73s.41,2.73,2.12,2.73S178.25,55.08,178.25,53.73Z" transform="translate(-41.32 -27.47)"/><path d="M182.17,52.6h-1V51.2h1V50.07a2.1,2.1,0,0,1,2.29-2.34,2.34,2.34,0,0,1,.93.15v1.45a2,2,0,0,0-.53-.08c-.61,0-.79.35-.79.92v1h1.33v1.4h-1.33V58h-1.89Z" transform="translate(-41.32 -27.47)"/><path d="M186.69,52.6h-1V51.2h1V50.07A2.1,2.1,0,0,1,189,47.73a2.34,2.34,0,0,1,.93.15v1.45a2,2,0,0,0-.53-.08c-.61,0-.79.35-.79.92v1h1.33v1.4h-1.33V58h-1.89Z" transform="translate(-41.32 -27.47)"/><path d="M197.06,55.47a2.8,2.8,0,0,1-3.1,2.67c-1.56,0-3.37-.78-3.37-3.56S192.4,51,194,51a2.8,2.8,0,0,1,3.1,2.67H195.2a1.15,1.15,0,0,0-1.25-1.13c-1,0-1.43.7-1.43,2s.47,2,1.43,2a1.15,1.15,0,0,0,1.25-1.13Z" transform="translate(-41.32 -27.47)"/><path d="M198.14,54.59c0-2.76,1.82-3.54,3.42-3.54s3.42.78,3.42,3.54-1.82,3.56-3.42,3.56S198.14,57.35,198.14,54.59Zm4.92,0c0-1.34-.52-2-1.5-2s-1.5.66-1.5,2,.52,2,1.5,2S203.06,55.92,203.06,54.59Z" transform="translate(-41.32 -27.47)"/><path d="M206.43,51.2h1.89V55c0,1,.21,1.48,1.1,1.48a1.67,1.67,0,0,0,1.27-.5V51.2h1.89V58h-1.66v-.9a2.43,2.43,0,0,1-2.18,1.05c-1.13,0-2.31-.47-2.31-2.75Z" transform="translate(-41.32 -27.47)"/><path d="M214.48,51.2h1.68v.93A1.9,1.9,0,0,1,217.94,51a1.76,1.76,0,0,1,.81.15v1.62a2.27,2.27,0,0,0-1-.2,1.7,1.7,0,0,0-1.4.55V58h-1.89Z" transform="translate(-41.32 -27.47)"/><path d="M221.19,55.78a1.22,1.22,0,0,0,1.37,1.1c.63,0,1.07-.27,1.07-.76,0-.64-.76-.67-2-1-.92-.26-2-.67-2-2,0-1.51,1.4-2,2.79-2,1.56,0,2.76.69,2.87,2.14h-1.86a1,1,0,0,0-1.05-.87c-.49,0-.87.23-.87.64,0,.63.87.66,2,1,1,.27,2,.73,2,2,0,1.62-1.51,2.17-3,2.17-1.76,0-3.08-.78-3.21-2.37Z" transform="translate(-41.32 -27.47)"/><path d="M233.18,55.7A3,3,0,0,1,230,58.14c-1.63,0-3.31-.87-3.31-3.56S228.37,51,229.92,51s3.28.76,3.28,3.54v.27h-4.72c0,1.25.56,1.86,1.51,1.86a1.21,1.21,0,0,0,1.34-1Zm-1.85-1.86c-.11-.95-.6-1.42-1.4-1.42s-1.3.47-1.4,1.42Z" transform="translate(-41.32 -27.47)"/><rect x="134.48" y="66.93" width="16.83" height="4.31" fill="#fff"/><path d="M209.08,85.15a1.42,1.42,0,0,1-1.56,1.33c-1.07,0-1.63-.72-1.63-1.81s.56-1.81,1.63-1.81a1.42,1.42,0,0,1,1.56,1.33h-.81a.68.68,0,0,0-.74-.64c-.66,0-.82.57-.82,1.12s.16,1.12.82,1.12a.68.68,0,0,0,.74-.64Z" transform="translate(-41.32 -27.47)"/><path d="M209.71,83.63h.78V85.2c0,.39.09.61.45.61a.68.68,0,0,0,.52-.21v-2h.78v2.79h-.68V86a1,1,0,0,1-.9.43c-.46,0-.95-.19-.95-1.13Z" transform="translate(-41.32 -27.47)"/><path d="M213,83.63h.69V84a.78.78,0,0,1,.73-.44.72.72,0,0,1,.33.06v.66a.93.93,0,0,0-.4-.08.69.69,0,0,0-.58.23v2H213Z" transform="translate(-41.32 -27.47)"/><path d="M216.88,86a1.22,1.22,0,0,1-1,.44c-.49,0-.9-.23-.9-.78s.65-.83,1.14-.86l.6-.05v-.06c0-.36-.06-.58-.44-.58s-.45.16-.46.46h-.73c0-.84.68-1,1.26-1,.86,0,1.14.41,1.14,1.08v1.08c0,.11,0,.16.15.16a.49.49,0,0,0,.22-.06v.53a1,1,0,0,1-.49.12c-.42,0-.51-.22-.51-.41Zm-.14-.84-.44.05c-.34,0-.53.14-.53.39s.11.31.38.31a.92.92,0,0,0,.59-.23Z" transform="translate(-41.32 -27.47)"/><path d="M218.4,84.2H218v-.58h.25c.23,0,.31-.09.31-.31v-.51h.61v.82H220v.58h-.82v1.23c0,.28.08.42.4.42a1.2,1.2,0,0,0,.38-.06v.59a1.61,1.61,0,0,1-.58.09c-.74,0-1-.4-1-1Z" transform="translate(-41.32 -27.47)"/><path d="M223,85.47a1.21,1.21,0,0,1-1.32,1,1.46,1.46,0,0,1,0-2.91A1.27,1.27,0,0,1,223,85v.11H221.1c0,.51.23.76.62.76a.5.5,0,0,0,.55-.42Zm-.76-.76c0-.39-.24-.58-.58-.58s-.53.19-.58.58Z" transform="translate(-41.32 -27.47)"/><path d="M225.51,86.08a1,1,0,0,1-.83.39c-.59,0-1.19-.39-1.19-1.45s.6-1.46,1.19-1.46a.91.91,0,0,1,.74.33V82.27h.78v4.14h-.69Zm-.09-1.69a.74.74,0,0,0-.51-.19c-.42,0-.63.29-.63.81s.21.82.63.82a.74.74,0,0,0,.51-.19Z" transform="translate(-41.32 -27.47)"/><path d="M228.39,82.27h.78v1.61a1,1,0,0,1,.75-.32c.58,0,1.18.39,1.18,1.45s-.6,1.46-1.19,1.46a1,1,0,0,1-.83-.39v.33h-.69Zm.78,3.38a.74.74,0,0,0,.51.19c.42,0,.63-.29.63-.81s-.21-.82-.63-.82a.74.74,0,0,0-.51.19Z" transform="translate(-41.32 -27.47)"/><path d="M231.59,87a1.11,1.11,0,0,0,.32.06.4.4,0,0,0,.41-.32l.09-.24-1-2.9h.83l.62,2,.62-2h.76l-1.1,3.12c-.16.46-.4,1-1.11,1a1.24,1.24,0,0,1-.41-.06Z" transform="translate(-41.32 -27.47)"/><path d="M176.52,126.64a2,2,0,0,1-2.15,1.83c-1.47,0-2.24-1-2.24-2.49s.77-2.49,2.24-2.49a2,2,0,0,1,2.15,1.83h-1.11a.93.93,0,0,0-1-.88c-.9,0-1.13.78-1.13,1.54s.22,1.54,1.13,1.54a.93.93,0,0,0,1-.88Z" transform="translate(-41.32 -27.47)"/><path d="M177.21,126.46a1.93,1.93,0,1,1,1.93,2A1.79,1.79,0,0,1,177.21,126.46Zm2.77,0c0-.76-.29-1.13-.84-1.13s-.84.37-.84,1.13.29,1.14.84,1.14S180,127.21,180,126.46Z" transform="translate(-41.32 -27.47)"/><path d="M181.89,124.55H183v2.17c0,.54.12.84.62.84a.94.94,0,0,0,.71-.28v-2.72h1.07v3.83h-.94v-.51a1.37,1.37,0,0,1-1.23.59c-.64,0-1.3-.27-1.3-1.55Z" transform="translate(-41.32 -27.47)"/><path d="M186.43,124.55h.95v.53a1.07,1.07,0,0,1,1-.61,1,1,0,0,1,.46.09v.91a1.28,1.28,0,0,0-.55-.11,1,1,0,0,0-.79.31v2.72h-1.07Z" transform="translate(-41.32 -27.47)"/><path d="M190.21,127.13a.69.69,0,0,0,.78.62c.35,0,.6-.15.6-.43s-.43-.38-1.15-.58c-.52-.15-1.14-.38-1.14-1.13s.79-1.15,1.58-1.15,1.56.39,1.62,1.21h-1.05a.54.54,0,0,0-.59-.49c-.28,0-.49.13-.49.36s.49.37,1.15.55,1.13.41,1.13,1.15c0,.91-.85,1.22-1.68,1.22-1,0-1.74-.44-1.81-1.33Z" transform="translate(-41.32 -27.47)"/><path d="M197,127.09a1.67,1.67,0,0,1-1.82,1.38,2,2,0,0,1,0-4,1.75,1.75,0,0,1,1.85,2v.15h-2.66c0,.71.32,1.05.85,1.05a.69.69,0,0,0,.76-.58Zm-1-1.05c-.06-.53-.34-.8-.79-.8s-.73.27-.79.8Z" transform="translate(-41.32 -27.47)"/><path d="M199.8,123.57h1.71a2.4,2.4,0,1,1,0,4.81H199.8Zm1.7,3.91c1.08,0,1.33-.78,1.33-1.51s-.25-1.51-1.33-1.51h-.6v3Z" transform="translate(-41.32 -27.47)"/><path d="M208.44,127.09a1.67,1.67,0,0,1-1.82,1.38,2,2,0,0,1,0-4,1.75,1.75,0,0,1,1.85,2v.15h-2.66c0,.71.32,1.05.85,1.05a.68.68,0,0,0,.76-.58Zm-1-1.05c-.06-.53-.34-.8-.79-.8s-.73.27-.79.8Z" transform="translate(-41.32 -27.47)"/><path d="M210.1,127.13a.69.69,0,0,0,.78.62c.35,0,.6-.15.6-.43s-.43-.38-1.15-.58c-.52-.15-1.14-.38-1.14-1.13s.79-1.15,1.58-1.15,1.56.39,1.62,1.21h-1.05a.54.54,0,0,0-.59-.49c-.28,0-.49.13-.49.36s.49.37,1.15.55,1.13.41,1.13,1.15c0,.91-.85,1.22-1.68,1.22-1,0-1.74-.44-1.81-1.33Z" transform="translate(-41.32 -27.47)"/><path d="M216.82,127a1.58,1.58,0,0,1-1.75,1.51,2,2,0,0,1,0-4,1.58,1.58,0,0,1,1.75,1.51h-1.05a.65.65,0,0,0-.71-.64c-.54,0-.81.4-.81,1.13s.27,1.14.81,1.14a.65.65,0,0,0,.71-.64Z" transform="translate(-41.32 -27.47)"/><path d="M217.64,124.55h.95v.53a1.07,1.07,0,0,1,1-.61,1,1,0,0,1,.46.09v.91a1.28,1.28,0,0,0-.55-.11,1,1,0,0,0-.79.31v2.72h-1.07Z" transform="translate(-41.32 -27.47)"/><path d="M220.65,122.68h1.12v.95h-1.12Zm0,1.87h1.07v3.83h-1.07Z" transform="translate(-41.32 -27.47)"/><path d="M222.82,124.55h.95V125a1.31,1.31,0,0,1,1.14-.54c.82,0,1.64.54,1.64,2s-.83,2-1.64,2a1.25,1.25,0,0,1-1-.45v2.07h-1.07Zm1.07,2.78a1,1,0,0,0,.7.26c.58,0,.87-.4.87-1.12s-.29-1.13-.87-1.13a1,1,0,0,0-.7.26Z" transform="translate(-41.32 -27.47)"/><path d="M227.46,125.34h-.55v-.79h.34c.32,0,.43-.12.43-.43v-.7h.84v1.13h1.13v.79h-1.13V127c0,.38.11.58.55.58a1.64,1.64,0,0,0,.52-.09v.81a2.22,2.22,0,0,1-.79.13c-1,0-1.34-.55-1.34-1.31Z" transform="translate(-41.32 -27.47)"/><path d="M230.36,122.68h1.12v.95h-1.12Zm0,1.87h1.07v3.83h-1.07Z" transform="translate(-41.32 -27.47)"/><path d="M232.32,126.46a1.93,1.93,0,1,1,1.93,2A1.79,1.79,0,0,1,232.32,126.46Zm2.77,0c0-.76-.29-1.13-.84-1.13s-.84.37-.84,1.13.29,1.14.84,1.14S235.1,127.21,235.1,126.46Z" transform="translate(-41.32 -27.47)"/><path d="M237,124.55H238v.5a1.39,1.39,0,0,1,1.25-.59c.64,0,1.32.27,1.32,1.55v2.37h-1.07V126.2c0-.54-.13-.83-.65-.83a1,1,0,0,0-.73.28v2.72H237Z" transform="translate(-41.32 -27.47)"/><path d="M176,228h1.1v3.9h2.15v.95H176Z" transform="translate(-41.32 -27.47)" fill="#fff"/><path d="M183.41,231.51a1.68,1.68,0,0,1-1.83,1.39,2,2,0,0,1,0-4,1.77,1.77,0,0,1,1.87,2V231h-2.68c0,.71.32,1.06.86,1.06a.69.69,0,0,0,.76-.58Zm-1.05-1.06c-.06-.54-.34-.81-.8-.81s-.74.27-.8.81Z" transform="translate(-41.32 -27.47)" fill="#fff"/><path d="M184.33,229.74h-.56v-.8h.35c.32,0,.43-.12.43-.43v-.7h.85v1.14h1.14v.8h-1.14v1.71c0,.38.11.58.56.58a1.68,1.68,0,0,0,.52-.09v.82a2.23,2.23,0,0,1-.8.13c-1,0-1.35-.56-1.35-1.32Z" transform="translate(-41.32 -27.47)" fill="#fff"/><path d="M188.53,228.76l-.62,1.23h-.53l.59-1.23h-.59v-1.15h1.15Z" transform="translate(-41.32 -27.47)" fill="#fff"/><path d="M190.16,231.55a.7.7,0,0,0,.78.63c.36,0,.61-.16.61-.43s-.43-.38-1.15-.58c-.52-.15-1.15-.38-1.15-1.14s.8-1.16,1.59-1.16,1.57.39,1.63,1.22h-1.06a.54.54,0,0,0-.6-.49c-.28,0-.5.13-.5.36s.5.37,1.16.56,1.14.42,1.14,1.16c0,.92-.86,1.23-1.69,1.23-1,0-1.75-.44-1.82-1.35Z" transform="translate(-41.32 -27.47)" fill="#fff"/><path d="M196.21,231.32c0,.52.5.74,1,.74s.82-.22.82-.55-.18-.45-.63-.57l-1-.26c-.81-.22-1.25-.66-1.25-1.37,0-1,.91-1.42,1.87-1.42s1.86.5,1.94,1.55h-1.11c0-.5-.43-.7-.89-.7s-.69.19-.69.5.16.43.63.56l1,.26c.77.21,1.26.62,1.26,1.38,0,1.09-1,1.48-2,1.48-1.21,0-2-.56-2.09-1.58Z" transform="translate(-41.32 -27.47)" fill="#fff"/><path d="M200,229.74h-.56v-.8h.35c.32,0,.43-.12.43-.43v-.7h.85v1.14h1.14v.8h-1.14v1.71c0,.38.11.58.56.58a1.68,1.68,0,0,0,.52-.09v.82a2.23,2.23,0,0,1-.8.13c-1,0-1.35-.56-1.35-1.32Z" transform="translate(-41.32 -27.47)" fill="#fff"/><path d="M205.35,232.29a1.69,1.69,0,0,1-1.36.61c-.68,0-1.24-.32-1.24-1.09,0-1,.9-1.15,1.58-1.2l.83-.07v-.09c0-.5-.08-.8-.62-.8s-.62.23-.63.63h-1c0-1.17.95-1.43,1.75-1.43,1.2,0,1.58.57,1.58,1.5v1.49c0,.15.05.23.21.23a.68.68,0,0,0,.3-.08v.73a1.39,1.39,0,0,1-.69.17c-.58,0-.7-.3-.7-.56Zm-.19-1.16-.62.07c-.48.05-.73.2-.73.54s.16.43.52.43a1.27,1.27,0,0,0,.83-.31Z" transform="translate(-41.32 -27.47)" fill="#fff"/><path d="M207.4,228.95h1v.53a1.08,1.08,0,0,1,1-.62,1,1,0,0,1,.46.09v.92a1.3,1.3,0,0,0-.56-.11,1,1,0,0,0-.8.31v2.74H207.4Z" transform="translate(-41.32 -27.47)" fill="#fff"/><path d="M210.57,229.74H210v-.8h.35c.32,0,.43-.12.43-.43v-.7h.85v1.14h1.14v.8h-1.14v1.71c0,.38.11.58.56.58a1.69,1.69,0,0,0,.52-.09v.82a2.23,2.23,0,0,1-.8.13c-1,0-1.35-.56-1.35-1.32Z" transform="translate(-41.32 -27.47)" fill="#fff"/><path d="M215,228H216l.87,3.46.89-3.46h1.09l.9,3.46.86-3.46h1l-1.32,4.85h-1.1l-.93-3.52-.93,3.52h-1.1Z" transform="translate(-41.32 -27.47)" fill="#fff"/><path d="M222.38,227.06h1.13v1h-1.13Zm0,1.88h1.08v3.86h-1.08Z" transform="translate(-41.32 -27.47)" fill="#fff"/><path d="M224.63,229.74h-.56v-.8h.35c.32,0,.43-.12.43-.43v-.7h.85v1.14h1.14v.8h-1.14v1.71c0,.38.11.58.56.58a1.69,1.69,0,0,0,.52-.09v.82a2.23,2.23,0,0,1-.8.13c-1,0-1.35-.56-1.35-1.32Z" transform="translate(-41.32 -27.47)" fill="#fff"/><path d="M227.58,227.06h1.08v2.33a1.32,1.32,0,0,1,1.16-.53c.62,0,1.3.27,1.3,1.56v2.39H230v-2.2c0-.55-.13-.83-.65-.83a1,1,0,0,0-.74.29v2.74h-1.08Z" transform="translate(-41.32 -27.47)" fill="#fff"/><path d="M234.87,228.91h-1.4V228h3.9v.95H236v3.9h-1.1Z" transform="translate(-41.32 -27.47)" fill="#fff"/><path d="M238.06,227.06h1.08v2.33a1.32,1.32,0,0,1,1.16-.53c.62,0,1.3.27,1.3,1.56v2.39h-1.08v-2.2c0-.55-.13-.83-.65-.83a1,1,0,0,0-.74.29v2.74h-1.08Z" transform="translate(-41.32 -27.47)" fill="#fff"/><path d="M246.14,231.51a1.68,1.68,0,0,1-1.83,1.39,2,2,0,0,1,0-4,1.77,1.77,0,0,1,1.87,2V231h-2.68c0,.71.32,1.06.86,1.06a.69.69,0,0,0,.76-.58Zm-1.05-1.06c-.06-.54-.34-.81-.8-.81s-.74.27-.8.81Z" transform="translate(-41.32 -27.47)" fill="#fff"/><path d="M249,228h2c1.17,0,1.81.49,1.81,1.35a1,1,0,0,1-.62,1,1.06,1.06,0,0,1,.82,1.1c0,.89-.65,1.41-1.88,1.41H249Zm1.9,2c.63,0,.78-.22.78-.55s-.16-.55-.78-.55h-.8v1.09Zm.11,2c.69,0,.87-.23.87-.6s-.17-.6-.87-.6h-.91v1.2Z" transform="translate(-41.32 -27.47)" fill="#fff"/><path d="M256.3,232.29a1.69,1.69,0,0,1-1.36.61c-.68,0-1.24-.32-1.24-1.09,0-1,.9-1.15,1.58-1.2l.83-.07v-.09c0-.5-.08-.8-.62-.8s-.63.23-.63.63h-1c0-1.17.95-1.43,1.75-1.43,1.2,0,1.58.57,1.58,1.5v1.49c0,.15.05.23.21.23a.68.68,0,0,0,.3-.08v.73a1.39,1.39,0,0,1-.69.17c-.58,0-.7-.3-.7-.56Zm-.19-1.16-.62.07c-.48.05-.73.2-.73.54s.16.43.52.43a1.27,1.27,0,0,0,.82-.31Z" transform="translate(-41.32 -27.47)" fill="#fff"/><path d="M259.17,231.55a.7.7,0,0,0,.78.63c.36,0,.61-.16.61-.43s-.43-.38-1.16-.58c-.52-.15-1.15-.38-1.15-1.14s.8-1.16,1.59-1.16,1.57.39,1.63,1.22h-1.06a.54.54,0,0,0-.6-.49c-.28,0-.49.13-.49.36s.49.37,1.16.56,1.14.42,1.14,1.16c0,.92-.86,1.23-1.69,1.23-1,0-1.75-.44-1.82-1.35Z" transform="translate(-41.32 -27.47)" fill="#fff"/><path d="M262.47,227.06h1.13v1h-1.13Zm0,1.88h1.08v3.86h-1.08Z" transform="translate(-41.32 -27.47)" fill="#fff"/><path d="M268.13,231.38a1.59,1.59,0,0,1-1.76,1.52,2,2,0,0,1,0-4,1.59,1.59,0,0,1,1.76,1.52h-1.06a.66.66,0,0,0-.71-.64c-.55,0-.82.4-.82,1.14s.27,1.15.82,1.15a.66.66,0,0,0,.71-.64Z" transform="translate(-41.32 -27.47)" fill="#fff"/><path d="M269.77,231.55a.7.7,0,0,0,.78.63c.36,0,.61-.16.61-.43s-.43-.38-1.16-.58c-.52-.15-1.15-.38-1.15-1.14s.8-1.16,1.59-1.16,1.57.39,1.63,1.22H271a.54.54,0,0,0-.6-.49c-.28,0-.49.13-.49.36s.49.37,1.16.56,1.14.42,1.14,1.16c0,.92-.86,1.23-1.69,1.23-1,0-1.75-.44-1.82-1.35Z" transform="translate(-41.32 -27.47)" fill="#fff"/><path d="M180.22,292.38a2,2,0,0,1-2.17,1.84c-1.48,0-2.26-1-2.26-2.51s.77-2.51,2.26-2.51a2,2,0,0,1,2.17,1.84H179.1a.94.94,0,0,0-1-.89c-.91,0-1.14.79-1.14,1.55s.23,1.55,1.14,1.55a.94.94,0,0,0,1-.89Z" transform="translate(-41.32 -27.47)" fill="#fff"/><path d="M181.12,290.27h1v.53a1.08,1.08,0,0,1,1-.62,1,1,0,0,1,.46.09v.92a1.29,1.29,0,0,0-.56-.11,1,1,0,0,0-.8.31v2.74h-1.08Z" transform="translate(-41.32 -27.47)" fill="#fff"/><path d="M187.64,292.83a1.68,1.68,0,0,1-1.83,1.39,2,2,0,0,1,0-4,1.77,1.77,0,0,1,1.87,2v.16H185c0,.71.32,1.06.86,1.06a.69.69,0,0,0,.76-.58Zm-1.05-1.06c-.06-.54-.34-.81-.8-.81s-.74.27-.8.81Z" transform="translate(-41.32 -27.47)" fill="#fff"/><path d="M190.85,293.61a1.69,1.69,0,0,1-1.36.61c-.68,0-1.24-.32-1.24-1.09,0-1,.9-1.15,1.58-1.2l.83-.07v-.09c0-.49-.08-.8-.62-.8s-.63.23-.63.63h-1c0-1.17.95-1.43,1.75-1.43,1.2,0,1.58.57,1.58,1.5v1.49c0,.15.05.23.21.23a.68.68,0,0,0,.3-.08v.73a1.4,1.4,0,0,1-.69.16c-.58,0-.7-.3-.7-.56Zm-.19-1.16-.62.07c-.48.05-.73.2-.73.54s.16.43.52.43a1.27,1.27,0,0,0,.83-.31Z" transform="translate(-41.32 -27.47)" fill="#fff"/><path d="M193,291.07h-.56v-.8h.35c.32,0,.43-.12.43-.43v-.7H194v1.14h1.14v.8H194v1.71c0,.38.11.58.56.58a1.66,1.66,0,0,0,.52-.09v.82a2.25,2.25,0,0,1-.8.13c-1,0-1.35-.56-1.35-1.32Z" transform="translate(-41.32 -27.47)" fill="#fff"/><path d="M199.38,292.83a1.68,1.68,0,0,1-1.83,1.39,2,2,0,0,1,0-4,1.77,1.77,0,0,1,1.87,2v.16h-2.68c0,.71.32,1.06.86,1.06a.69.69,0,0,0,.76-.58Zm-1.05-1.06c-.06-.54-.34-.81-.8-.81s-.74.27-.8.81Z" transform="translate(-41.32 -27.47)" fill="#fff"/><path d="M203.09,292.28l-1.77-3h1.21l1.14,2,1.14-2H206l-1.77,3v1.85h-1.1Z" transform="translate(-41.32 -27.47)" fill="#fff"/><path d="M206,292.2a1.95,1.95,0,1,1,1.95,2A1.81,1.81,0,0,1,206,292.2Zm2.8,0c0-.76-.3-1.14-.85-1.14s-.85.37-.85,1.14.3,1.15.85,1.15S208.77,293,208.77,292.2Z" transform="translate(-41.32 -27.47)" fill="#fff"/><path d="M210.69,290.27h1.08v2.19c0,.55.12.84.63.84a1,1,0,0,0,.72-.29v-2.74h1.08v3.86h-.95v-.51a1.38,1.38,0,0,1-1.24.6c-.64,0-1.31-.27-1.31-1.56Z" transform="translate(-41.32 -27.47)" fill="#fff"/><path d="M215.27,290.27h1v.53a1.08,1.08,0,0,1,1-.62,1,1,0,0,1,.46.09v.92a1.29,1.29,0,0,0-.56-.11,1,1,0,0,0-.8.31v2.74h-1.08Z" transform="translate(-41.32 -27.47)" fill="#fff"/><path d="M221.49,289.29h1.22l1.78,4.85h-1.16l-.3-.88h-1.9l-.3.88h-1.12Zm1.27,3.14-.69-2-.68,2Z" transform="translate(-41.32 -27.47)" fill="#fff"/><path d="M228.63,292.7a1.59,1.59,0,0,1-1.76,1.52,2,2,0,0,1,0-4,1.6,1.6,0,0,1,1.76,1.52h-1.06a.65.65,0,0,0-.71-.64c-.55,0-.82.4-.82,1.14s.27,1.15.82,1.15a.66.66,0,0,0,.71-.64Z" transform="translate(-41.32 -27.47)" fill="#fff"/><path d="M232.93,292.7a1.59,1.59,0,0,1-1.76,1.52,2,2,0,0,1,0-4,1.6,1.6,0,0,1,1.76,1.52h-1.06a.65.65,0,0,0-.71-.64c-.55,0-.82.4-.82,1.14s.27,1.15.82,1.15a.66.66,0,0,0,.71-.64Z" transform="translate(-41.32 -27.47)" fill="#fff"/><path d="M233.55,292.2a1.95,1.95,0,1,1,1.94,2A1.81,1.81,0,0,1,233.55,292.2Zm2.8,0c0-.76-.3-1.14-.85-1.14s-.85.37-.85,1.14.3,1.15.85,1.15S236.34,293,236.34,292.2Z" transform="translate(-41.32 -27.47)" fill="#fff"/><path d="M238.26,290.27h1.08v2.19c0,.55.12.84.63.84a1,1,0,0,0,.72-.29v-2.74h1.08v3.86h-.95v-.51a1.38,1.38,0,0,1-1.24.6c-.64,0-1.31-.27-1.31-1.56Z" transform="translate(-41.32 -27.47)" fill="#fff"/><path d="M242.84,290.27h1v.5a1.4,1.4,0,0,1,1.26-.59c.64,0,1.33.27,1.33,1.56v2.39h-1.08v-2.2c0-.55-.13-.83-.65-.83a1,1,0,0,0-.74.29v2.74h-1.08Z" transform="translate(-41.32 -27.47)" fill="#fff"/><path d="M247.48,291.07h-.56v-.8h.35c.32,0,.43-.12.43-.43v-.7h.85v1.14h1.14v.8h-1.14v1.71c0,.38.11.58.56.58a1.66,1.66,0,0,0,.52-.09v.82a2.25,2.25,0,0,1-.8.13c-1,0-1.35-.56-1.35-1.32Z" transform="translate(-41.32 -27.47)" fill="#fff"/><path d="M175.79,353a2.22,2.22,0,0,1,2.32-2.52,2,2,0,0,1,2.16,1.65h-1.1a.94.94,0,0,0-1-.71c-.8,0-1.25.48-1.25,1.58s.43,1.56,1.2,1.56,1.09-.36,1.14-.8h-1.08V353h2.18v2.48h-.87v-.6a1.69,1.69,0,0,1-1.49.69C176.74,355.54,175.79,354.77,175.79,353Z" transform="translate(-41.32 -27.47)" fill="#fff"/><path d="M184.94,354.15a1.68,1.68,0,0,1-1.83,1.39,2,2,0,0,1,0-4,1.77,1.77,0,0,1,1.87,2v.16h-2.68c0,.71.32,1.06.86,1.06a.69.69,0,0,0,.76-.58Zm-1.05-1.06c-.06-.54-.34-.81-.8-.81s-.74.27-.8.81Z" transform="translate(-41.32 -27.47)" fill="#fff"/><path d="M185.86,352.39h-.56v-.8h.35c.32,0,.43-.12.43-.43v-.7h.85v1.14h1.14v.8h-1.14v1.71c0,.38.11.58.56.58a1.68,1.68,0,0,0,.52-.09v.82a2.25,2.25,0,0,1-.8.13c-1,0-1.35-.56-1.35-1.32Z" transform="translate(-41.32 -27.47)" fill="#fff"/><path d="M191.58,354c0,.52.5.74,1,.74s.82-.22.82-.55-.18-.45-.63-.57l-1-.26c-.81-.22-1.25-.66-1.25-1.37,0-1,.91-1.42,1.87-1.42s1.86.5,1.94,1.55h-1.11c0-.5-.43-.7-.89-.7s-.69.19-.69.5.16.43.63.56l1,.26c.77.21,1.26.62,1.26,1.38,0,1.09-1,1.48-2,1.48-1.21,0-2-.56-2.09-1.58Z" transform="translate(-41.32 -27.47)" fill="#fff"/><path d="M195.43,352.39h-.56v-.8h.35c.32,0,.43-.12.43-.43v-.7h.85v1.14h1.14v.8H196.5v1.71c0,.38.11.58.56.58a1.68,1.68,0,0,0,.52-.09v.82a2.25,2.25,0,0,1-.8.13c-1,0-1.35-.56-1.35-1.32Z" transform="translate(-41.32 -27.47)" fill="#fff"/><path d="M200.73,354.93a1.69,1.69,0,0,1-1.36.61c-.68,0-1.24-.32-1.24-1.09,0-1,.9-1.15,1.58-1.2l.83-.07v-.09c0-.5-.08-.8-.62-.8s-.62.23-.63.63h-1c0-1.17.95-1.43,1.75-1.43,1.2,0,1.58.57,1.58,1.5v1.49c0,.15.05.23.21.23a.69.69,0,0,0,.3-.08v.73a1.39,1.39,0,0,1-.69.17c-.58,0-.7-.3-.7-.56Zm-.19-1.16-.62.07c-.48.05-.73.2-.73.54s.16.43.52.43a1.27,1.27,0,0,0,.83-.31Z" transform="translate(-41.32 -27.47)" fill="#fff"/><path d="M202.78,351.59h1v.53a1.08,1.08,0,0,1,1-.62,1,1,0,0,1,.46.09v.92a1.29,1.29,0,0,0-.56-.11,1,1,0,0,0-.8.31v2.74h-1.08Z" transform="translate(-41.32 -27.47)" fill="#fff"/><path d="M205.95,352.39h-.56v-.8h.35c.32,0,.43-.12.43-.43v-.7H207v1.14h1.14v.8H207v1.71c0,.38.11.58.56.58a1.68,1.68,0,0,0,.52-.09v.82a2.25,2.25,0,0,1-.8.13c-1,0-1.35-.56-1.35-1.32Z" transform="translate(-41.32 -27.47)" fill="#fff"/><path d="M212.37,354.15a1.68,1.68,0,0,1-1.83,1.39,2,2,0,0,1,0-4,1.77,1.77,0,0,1,1.87,2v.16H209.7c0,.71.32,1.06.86,1.06a.69.69,0,0,0,.76-.58Zm-1.05-1.06c-.06-.54-.34-.81-.8-.81s-.74.27-.8.81Z" transform="translate(-41.32 -27.47)" fill="#fff"/><path d="M215.82,355a1.32,1.32,0,0,1-1.15.55c-.82,0-1.65-.55-1.65-2s.83-2,1.65-2a1.26,1.26,0,0,1,1,.45v-2.25h1.08v5.75h-1Zm-.12-2.34a1,1,0,0,0-.7-.26c-.58,0-.88.4-.88,1.13s.3,1.14.88,1.14a1,1,0,0,0,.7-.26Z" transform="translate(-41.32 -27.47)" fill="#fff"/><path d="M219.71,353a2.35,2.35,0,1,1,2.34,2.51A2.22,2.22,0,0,1,219.71,353Zm3.55,0c0-.76-.23-1.55-1.21-1.55s-1.21.79-1.21,1.55.23,1.55,1.21,1.55S223.26,353.8,223.26,353Z" transform="translate(-41.32 -27.47)" fill="#fff"/><path d="M225.42,351.59h1v.5a1.4,1.4,0,0,1,1.26-.59c.64,0,1.33.27,1.33,1.56v2.39h-1.08v-2.2c0-.55-.13-.83-.65-.83a1,1,0,0,0-.74.29v2.74h-1.08Z" transform="translate(-41.32 -27.47)" fill="#fff"/><path d="M231.86,353a2.35,2.35,0,1,1,2.34,2.51A2.22,2.22,0,0,1,231.86,353Zm3.55,0c0-.76-.23-1.55-1.21-1.55S233,352.27,233,353s.23,1.55,1.21,1.55S235.41,353.8,235.41,353Z" transform="translate(-41.32 -27.47)" fill="#fff"/><path d="M237.65,352.39h-.56v-.8h.56v-.64a1.19,1.19,0,0,1,1.3-1.33,1.34,1.34,0,0,1,.53.09v.82a1.11,1.11,0,0,0-.3,0c-.35,0-.45.2-.45.52v.58h.76v.8h-.76v3.07h-1.08Z" transform="translate(-41.32 -27.47)" fill="#fff"/><path d="M240.22,352.39h-.56v-.8h.56v-.64a1.19,1.19,0,0,1,1.3-1.33,1.34,1.34,0,0,1,.53.09v.82a1.11,1.11,0,0,0-.3,0c-.35,0-.45.2-.45.52v.58h.76v.8h-.76v3.07h-1.08Z" transform="translate(-41.32 -27.47)" fill="#fff"/><path d="M246.12,354a1.59,1.59,0,0,1-1.76,1.52,2,2,0,0,1,0-4,1.59,1.59,0,0,1,1.76,1.52h-1.06a.66.66,0,0,0-.71-.64c-.55,0-.82.4-.82,1.14s.27,1.15.82,1.15a.65.65,0,0,0,.71-.64Z" transform="translate(-41.32 -27.47)" fill="#fff"/><path d="M246.74,353.52a1.95,1.95,0,1,1,1.94,2A1.81,1.81,0,0,1,246.74,353.52Zm2.8,0c0-.76-.3-1.14-.85-1.14s-.85.37-.85,1.14.3,1.15.85,1.15S249.53,354.27,249.53,353.52Z" transform="translate(-41.32 -27.47)" fill="#fff"/><path d="M251.45,351.59h1.08v2.19c0,.55.12.84.63.84a1,1,0,0,0,.72-.29v-2.74H255v3.86H254v-.51a1.38,1.38,0,0,1-1.24.6c-.64,0-1.31-.27-1.31-1.56Z" transform="translate(-41.32 -27.47)" fill="#fff"/><path d="M256,351.59h1v.53a1.08,1.08,0,0,1,1-.62,1,1,0,0,1,.46.09v.92a1.29,1.29,0,0,0-.56-.11,1,1,0,0,0-.8.31v2.74H256Z" transform="translate(-41.32 -27.47)" fill="#fff"/><path d="M259.86,354.2a.7.7,0,0,0,.78.63c.36,0,.61-.16.61-.43s-.43-.38-1.16-.58c-.52-.15-1.15-.38-1.15-1.14s.8-1.16,1.59-1.16,1.57.39,1.63,1.22h-1.06a.54.54,0,0,0-.6-.5c-.28,0-.49.13-.49.37s.49.37,1.16.56,1.14.42,1.14,1.16c0,.92-.86,1.23-1.69,1.23-1,0-1.75-.44-1.82-1.35Z" transform="translate(-41.32 -27.47)" fill="#fff"/><path d="M266.68,354.15a1.68,1.68,0,0,1-1.83,1.39,2,2,0,0,1,0-4,1.77,1.77,0,0,1,1.87,2v.16H264c0,.71.32,1.06.86,1.06a.69.69,0,0,0,.76-.58Zm-1.05-1.06c-.06-.54-.34-.81-.8-.81s-.74.27-.8.81Z" transform="translate(-41.32 -27.47)" fill="#fff"/><path d="M171.87,135.07h1l.81,3.25.84-3.25h1l.85,3.25.81-3.25h1l-1.24,4.55h-1l-.87-3.3-.87,3.3h-1Z" transform="translate(-41.32 -27.47)"/><path d="M178.83,134.22h1.06v.9h-1.06Zm0,1.77h1v3.63h-1Z" transform="translate(-41.32 -27.47)"/><path d="M180.94,136.74h-.52V136h.33c.3,0,.41-.11.41-.41v-.66h.8V136H183v.75h-1.07v1.6c0,.36.11.55.52.55a1.56,1.56,0,0,0,.49-.08v.77a2.09,2.09,0,0,1-.75.12c-1,0-1.27-.52-1.27-1.24Z" transform="translate(-41.32 -27.47)"/><path d="M183.7,134.22h1v2.18a1.24,1.24,0,0,1,1.09-.5c.58,0,1.22.25,1.22,1.47v2.24h-1v-2.06c0-.51-.12-.78-.61-.78a.93.93,0,0,0-.69.27v2.57h-1Z" transform="translate(-41.32 -27.47)"/><path d="M189.73,137.34a2.2,2.2,0,1,1,2.2,2.35A2.08,2.08,0,0,1,189.73,137.34Zm3.33,0c0-.72-.22-1.46-1.13-1.46s-1.13.74-1.13,1.46.22,1.46,1.13,1.46S193.06,138.06,193.06,137.34Z" transform="translate(-41.32 -27.47)"/><path d="M195.15,136.74h-.52V136h.52v-.6a1.12,1.12,0,0,1,1.22-1.25,1.25,1.25,0,0,1,.5.08V135a1,1,0,0,0-.29,0c-.33,0-.42.19-.42.49V136h.71v.75h-.71v2.88h-1Z" transform="translate(-41.32 -27.47)"/><path d="M197.56,136.74H197V136h.52v-.6a1.12,1.12,0,0,1,1.22-1.25,1.25,1.25,0,0,1,.5.08V135a1,1,0,0,0-.29,0c-.33,0-.42.19-.42.49V136h.71v.75h-.71v2.88h-1Z" transform="translate(-41.32 -27.47)"/><path d="M203.09,138.27a1.5,1.5,0,0,1-1.65,1.43,1.9,1.9,0,0,1,0-3.79,1.5,1.5,0,0,1,1.65,1.43h-1a.61.61,0,0,0-.67-.6c-.51,0-.77.37-.77,1.07s.25,1.08.77,1.08a.61.61,0,0,0,.67-.6Z" transform="translate(-41.32 -27.47)"/><path d="M203.67,137.8a1.83,1.83,0,1,1,1.82,1.9A1.69,1.69,0,0,1,203.67,137.8Zm2.62,0c0-.72-.28-1.07-.8-1.07s-.8.35-.8,1.07.28,1.08.8,1.08S206.29,138.51,206.29,137.8Z" transform="translate(-41.32 -27.47)"/><path d="M208.09,136h1V138c0,.51.11.79.59.79a.89.89,0,0,0,.68-.27V136h1v3.63h-.89v-.48a1.3,1.3,0,0,1-1.17.56c-.6,0-1.23-.25-1.23-1.47Z" transform="translate(-41.32 -27.47)"/><path d="M212.38,136h.9v.5a1,1,0,0,1,1-.58.93.93,0,0,1,.43.08v.86a1.21,1.21,0,0,0-.52-.11.9.9,0,0,0-.75.29v2.57h-1Z" transform="translate(-41.32 -27.47)"/><path d="M216,138.44a.65.65,0,0,0,.73.59c.33,0,.57-.15.57-.41s-.41-.36-1.08-.55c-.49-.14-1.08-.36-1.08-1.07s.75-1.09,1.49-1.09,1.47.37,1.53,1.14h-1a.51.51,0,0,0-.56-.46c-.26,0-.46.12-.46.34s.46.35,1.09.52,1.07.39,1.07,1.09c0,.86-.81,1.16-1.59,1.16-.94,0-1.65-.42-1.71-1.26Z" transform="translate(-41.32 -27.47)"/><path d="M222.36,138.39a1.58,1.58,0,0,1-1.72,1.3,1.9,1.9,0,0,1,0-3.79,1.66,1.66,0,0,1,1.75,1.89v.15h-2.52c0,.67.3,1,.81,1a.65.65,0,0,0,.72-.55Zm-1-1c-.06-.5-.32-.76-.75-.76s-.69.25-.75.76Z" transform="translate(-41.32 -27.47)"/><path d="M223.77,139.62h-.53v-1.08h1.08v1.08l-.64,1.31h-.52Z" transform="translate(-41.32 -27.47)"/><path d="M227.13,140.42a1.46,1.46,0,0,0,.42.07.52.52,0,0,0,.54-.42l.11-.31L226.86,136h1.08l.81,2.58.81-2.58h1L229.11,140c-.21.59-.52,1.26-1.44,1.26a1.61,1.61,0,0,1-.53-.08Z" transform="translate(-41.32 -27.47)"/><path d="M230.89,137.8a1.83,1.83,0,1,1,1.82,1.9A1.69,1.69,0,0,1,230.89,137.8Zm2.62,0c0-.72-.28-1.07-.8-1.07s-.8.35-.8,1.07.28,1.08.8,1.08S233.51,138.51,233.51,137.8Z" transform="translate(-41.32 -27.47)"/><path d="M235.31,136h1V138c0,.51.11.79.59.79a.89.89,0,0,0,.68-.27V136h1v3.63h-.89v-.48a1.3,1.3,0,0,1-1.17.56c-.6,0-1.23-.25-1.23-1.47Z" transform="translate(-41.32 -27.47)"/><path d="M244.61,138.27A1.5,1.5,0,0,1,243,139.7a1.9,1.9,0,0,1,0-3.79,1.5,1.5,0,0,1,1.65,1.43h-1a.61.61,0,0,0-.67-.6c-.51,0-.76.37-.76,1.07s.25,1.08.76,1.08a.61.61,0,0,0,.67-.6Z" transform="translate(-41.32 -27.47)"/><path d="M247.59,139.13a1.59,1.59,0,0,1-1.28.57c-.64,0-1.16-.3-1.16-1,0-.9.85-1.08,1.48-1.12l.78-.07v-.08c0-.46-.07-.75-.58-.75s-.59.21-.59.59h-.95c0-1.1.89-1.34,1.64-1.34,1.12,0,1.48.54,1.48,1.41v1.4c0,.14,0,.21.2.21a.65.65,0,0,0,.29-.07v.68a1.31,1.31,0,0,1-.64.15c-.55,0-.66-.29-.66-.53Zm-.18-1.09-.58.07c-.45,0-.68.19-.68.5s.15.4.49.4a1.19,1.19,0,0,0,.77-.29Z" transform="translate(-41.32 -27.47)"/><path d="M249.51,136h.9v.47a1.31,1.31,0,0,1,1.18-.55c.6,0,1.25.25,1.25,1.47v2.24h-1v-2.06c0-.51-.12-.78-.61-.78a.93.93,0,0,0-.69.27v2.57h-1Z" transform="translate(-41.32 -27.47)"/><path d="M257.09,135.91a1.83,1.83,0,0,1,1.25.46,1.05,1.05,0,0,1,1-.46v.88a1.54,1.54,0,0,0-.65.1,1.51,1.51,0,0,1,0,.35,1.44,1.44,0,0,1-1.6,1.33,2.25,2.25,0,0,1-.64-.1.35.35,0,0,0-.21.29c0,.17.18.29.55.29h.93c.75,0,1.38.28,1.38,1s-.76,1.25-2,1.25-1.8-.39-1.8-1a.8.8,0,0,1,.61-.73.71.71,0,0,1-.46-.65.8.8,0,0,1,.58-.71,1.19,1.19,0,0,1-.54-1A1.44,1.44,0,0,1,257.09,135.91Zm-.7,3.93a.39.39,0,0,0-.23.36c0,.29.28.47,1,.47s1-.15,1-.49-.18-.34-.6-.34Zm.7-3.23a.62.62,0,1,0,.66.62A.59.59,0,0,0,257.09,136.62Z" transform="translate(-41.32 -27.47)"/><path d="M262,139.13a1.58,1.58,0,0,1-1.28.57c-.64,0-1.17-.3-1.17-1,0-.9.85-1.08,1.48-1.12l.78-.07v-.08c0-.46-.07-.75-.58-.75s-.59.21-.59.59h-.95c0-1.1.89-1.34,1.64-1.34,1.12,0,1.48.54,1.48,1.41v1.4c0,.14,0,.21.2.21a.65.65,0,0,0,.29-.07v.68a1.31,1.31,0,0,1-.64.15c-.55,0-.66-.29-.66-.53Zm-.18-1.09-.58.07c-.45,0-.68.19-.68.5s.15.4.49.4a1.19,1.19,0,0,0,.77-.29Z" transform="translate(-41.32 -27.47)"/><path d="M264,136.74h-.52V136h.33c.3,0,.41-.11.41-.41v-.66h.8V136H266v.75H265v1.6c0,.36.11.55.52.55a1.55,1.55,0,0,0,.49-.08v.77a2.09,2.09,0,0,1-.75.12c-1,0-1.27-.52-1.27-1.24Z" transform="translate(-41.32 -27.47)"/><path d="M266.72,134.22h1v2.18a1.24,1.24,0,0,1,1.09-.5c.58,0,1.22.25,1.22,1.47v2.24h-1v-2.06c0-.51-.12-.78-.61-.78a.93.93,0,0,0-.69.27v2.57h-1Z" transform="translate(-41.32 -27.47)"/><path d="M274.31,138.39a1.58,1.58,0,0,1-1.72,1.3,1.9,1.9,0,0,1,0-3.79,1.66,1.66,0,0,1,1.75,1.89v.15H271.8c0,.67.3,1,.81,1a.65.65,0,0,0,.72-.55Zm-1-1c-.06-.5-.32-.76-.75-.76s-.69.25-.75.76Z" transform="translate(-41.32 -27.47)"/><path d="M275.11,136h.9v.5a1,1,0,0,1,1-.58.94.94,0,0,1,.43.08v.86a1.21,1.21,0,0,0-.52-.11.9.9,0,0,0-.75.29v2.57h-1Z" transform="translate(-41.32 -27.47)"/><path d="M281.93,139.13a1.59,1.59,0,0,1-1.28.57c-.64,0-1.16-.3-1.16-1,0-.9.85-1.08,1.48-1.12l.78-.07v-.08c0-.46-.07-.75-.58-.75s-.59.21-.59.59h-.95c0-1.1.89-1.34,1.64-1.34,1.12,0,1.48.54,1.48,1.41v1.4c0,.14,0,.21.2.21a.65.65,0,0,0,.29-.07v.68a1.31,1.31,0,0,1-.64.15c-.55,0-.66-.29-.66-.53Zm-.18-1.09-.58.07c-.45,0-.68.19-.68.5s.15.4.49.4a1.19,1.19,0,0,0,.77-.29Z" transform="translate(-41.32 -27.47)"/><path d="M283.85,136h.9v.47a1.31,1.31,0,0,1,1.18-.55c.6,0,1.25.25,1.25,1.47v2.24h-1v-2.06c0-.51-.12-.78-.61-.78a.93.93,0,0,0-.69.27v2.57h-1Z" transform="translate(-41.32 -27.47)"/><path d="M290.57,139.18a1.24,1.24,0,0,1-1.07.51c-.77,0-1.55-.51-1.55-1.88s.78-1.91,1.55-1.91a1.18,1.18,0,0,1,1,.42v-2.11h1v5.39h-.9Zm-.11-2.2a1,1,0,0,0-.66-.24c-.55,0-.82.37-.82,1.06s.28,1.07.82,1.07a1,1,0,0,0,.66-.24Z" transform="translate(-41.32 -27.47)"/><path d="M172.93,150.33a.65.65,0,0,0,.73.59c.33,0,.57-.15.57-.41s-.41-.36-1.08-.55c-.49-.14-1.08-.36-1.08-1.07s.75-1.09,1.49-1.09,1.47.37,1.53,1.14h-1a.51.51,0,0,0-.56-.46c-.26,0-.46.12-.46.34s.46.35,1.09.52,1.07.39,1.07,1.09c0,.86-.81,1.16-1.59,1.16-.94,0-1.65-.42-1.71-1.26Z" transform="translate(-41.32 -27.47)"/><path d="M176.09,148.64h-.52v-.75h.33c.3,0,.41-.11.41-.41v-.66h.8v1.07h1.07v.75H177.1v1.6c0,.36.11.55.52.55a1.56,1.56,0,0,0,.49-.08v.77a2.09,2.09,0,0,1-.75.12c-1,0-1.27-.52-1.27-1.24Z" transform="translate(-41.32 -27.47)"/><path d="M178.85,147.89h.9v.5a1,1,0,0,1,1-.58.94.94,0,0,1,.43.08v.86a1.21,1.21,0,0,0-.52-.11.91.91,0,0,0-.75.29v2.57h-1Z" transform="translate(-41.32 -27.47)"/><path d="M181.66,147.89h1v2.05c0,.51.11.79.59.79a.89.89,0,0,0,.68-.27v-2.57h1v3.63h-.89V151a1.3,1.3,0,0,1-1.17.56c-.6,0-1.23-.25-1.23-1.47Z" transform="translate(-41.32 -27.47)"/><path d="M189.21,150.17a1.5,1.5,0,0,1-1.65,1.43,1.9,1.9,0,0,1,0-3.79,1.5,1.5,0,0,1,1.65,1.43h-1a.61.61,0,0,0-.67-.6c-.51,0-.77.37-.77,1.07s.25,1.08.77,1.08a.61.61,0,0,0,.67-.6Z" transform="translate(-41.32 -27.47)"/><path d="M190,148.64h-.52v-.75h.33c.3,0,.41-.11.41-.41v-.66h.8v1.07h1.07v.75h-1.07v1.6c0,.36.11.55.52.55a1.56,1.56,0,0,0,.49-.08v.77a2.09,2.09,0,0,1-.75.12c-1,0-1.27-.52-1.27-1.24Z" transform="translate(-41.32 -27.47)"/><path d="M192.76,147.89h1v2.05c0,.51.11.79.59.79a.89.89,0,0,0,.68-.27v-2.57h1v3.63h-.89V151a1.3,1.3,0,0,1-1.17.56c-.6,0-1.23-.25-1.23-1.47Z" transform="translate(-41.32 -27.47)"/><path d="M197.05,147.89h.9v.5a1,1,0,0,1,1-.58.94.94,0,0,1,.43.08v.86a1.21,1.21,0,0,0-.52-.11.91.91,0,0,0-.75.29v2.57h-1Z" transform="translate(-41.32 -27.47)"/><path d="M203.16,150.29a1.58,1.58,0,0,1-1.72,1.3,1.9,1.9,0,0,1,0-3.79,1.66,1.66,0,0,1,1.75,1.89v.15h-2.52c0,.67.3,1,.81,1a.65.65,0,0,0,.72-.55Zm-1-1c-.06-.5-.32-.76-.75-.76s-.69.25-.75.76Z" transform="translate(-41.32 -27.47)"/><path d="M205.44,149.7a1.83,1.83,0,1,1,1.82,1.9A1.69,1.69,0,0,1,205.44,149.7Zm2.62,0c0-.72-.28-1.07-.8-1.07s-.8.35-.8,1.07.28,1.08.8,1.08S208.07,150.41,208.07,149.7Z" transform="translate(-41.32 -27.47)"/><path d="M209.91,147.89h.9v.47a1.31,1.31,0,0,1,1.18-.55c.6,0,1.25.25,1.25,1.47v2.24h-1v-2.06c0-.51-.12-.78-.61-.78a.93.93,0,0,0-.69.27v2.57h-1Z" transform="translate(-41.32 -27.47)"/><path d="M214.2,146.12h1v5.39h-1Z" transform="translate(-41.32 -27.47)"/><path d="M216.2,146.12h1.06v.9H216.2Zm0,1.77h1v3.63h-1Z" transform="translate(-41.32 -27.47)"/><path d="M218.25,147.89h.9v.47a1.31,1.31,0,0,1,1.18-.55c.6,0,1.25.25,1.25,1.47v2.24h-1v-2.06c0-.51-.12-.78-.61-.78a.93.93,0,0,0-.69.27v2.57h-1Z" transform="translate(-41.32 -27.47)"/><path d="M225.83,150.29a1.58,1.58,0,0,1-1.72,1.3,1.9,1.9,0,0,1,0-3.79,1.66,1.66,0,0,1,1.75,1.89v.15h-2.52c0,.67.3,1,.81,1a.65.65,0,0,0,.72-.55Zm-1-1c-.06-.5-.32-.76-.75-.76s-.69.25-.75.76Z" transform="translate(-41.32 -27.47)"/><path d="M228.4,147.89h.9v.5a1,1,0,0,1,1-.58.94.94,0,0,1,.43.08v.86a1.21,1.21,0,0,0-.52-.11.9.9,0,0,0-.75.29v2.57h-1Z" transform="translate(-41.32 -27.47)"/><path d="M234.5,150.29a1.58,1.58,0,0,1-1.72,1.3,1.9,1.9,0,0,1,0-3.79,1.66,1.66,0,0,1,1.75,1.89v.15H232c0,.67.3,1,.81,1a.65.65,0,0,0,.72-.55Zm-1-1c-.06-.5-.32-.76-.75-.76s-.69.25-.75.76Z" transform="translate(-41.32 -27.47)"/><path d="M236.07,150.33a.65.65,0,0,0,.73.59c.33,0,.57-.15.57-.41s-.41-.36-1.08-.55c-.49-.14-1.08-.36-1.08-1.07s.75-1.09,1.49-1.09,1.47.37,1.53,1.14h-1a.51.51,0,0,0-.56-.46c-.26,0-.46.12-.46.34s.46.35,1.09.52,1.07.39,1.07,1.09c0,.86-.81,1.16-1.59,1.16-.94,0-1.65-.42-1.71-1.26Z" transform="translate(-41.32 -27.47)"/><path d="M239,149.7a1.83,1.83,0,1,1,1.82,1.9A1.69,1.69,0,0,1,239,149.7Zm2.62,0c0-.72-.28-1.07-.8-1.07s-.8.35-.8,1.07.28,1.08.8,1.08S241.6,150.41,241.6,149.7Z" transform="translate(-41.32 -27.47)"/><path d="M243.4,147.89h1v2.05c0,.51.11.79.59.79a.89.89,0,0,0,.68-.27v-2.57h1v3.63h-.89V151a1.3,1.3,0,0,1-1.16.56c-.6,0-1.23-.25-1.23-1.47Z" transform="translate(-41.32 -27.47)"/><path d="M247.69,147.89h.9v.5a1,1,0,0,1,1-.58.94.94,0,0,1,.43.08v.86a1.21,1.21,0,0,0-.52-.11.9.9,0,0,0-.75.29v2.57h-1Z" transform="translate(-41.32 -27.47)"/><path d="M253.77,150.17a1.5,1.5,0,0,1-1.65,1.43,1.9,1.9,0,0,1,0-3.79,1.5,1.5,0,0,1,1.65,1.43h-1a.61.61,0,0,0-.67-.6c-.51,0-.77.37-.77,1.07s.25,1.08.77,1.08a.61.61,0,0,0,.67-.6Z" transform="translate(-41.32 -27.47)"/><path d="M257.83,150.29a1.58,1.58,0,0,1-1.72,1.3,1.9,1.9,0,0,1,0-3.79,1.66,1.66,0,0,1,1.75,1.89v.15h-2.52c0,.67.3,1,.81,1a.65.65,0,0,0,.72-.55Zm-1-1c-.06-.5-.32-.76-.75-.76s-.69.25-.75.76Z" transform="translate(-41.32 -27.47)"/><path d="M259.4,150.33a.65.65,0,0,0,.73.59c.33,0,.57-.15.57-.41s-.41-.36-1.08-.55c-.49-.14-1.08-.36-1.08-1.07s.75-1.09,1.49-1.09,1.47.37,1.53,1.14h-1a.51.51,0,0,0-.56-.46c-.26,0-.46.12-.46.34s.46.35,1.09.52,1.07.39,1.07,1.09c0,.86-.81,1.16-1.59,1.16-.94,0-1.65-.42-1.71-1.26Z" transform="translate(-41.32 -27.47)"/><path d="M264.24,146.12h1.06v.9h-1.06Zm0,1.77h1v3.63h-1Z" transform="translate(-41.32 -27.47)"/><path d="M266.29,147.89h.9v.47a1.31,1.31,0,0,1,1.18-.55c.6,0,1.25.25,1.25,1.47v2.24h-1v-2.06c0-.51-.12-.78-.61-.78a.93.93,0,0,0-.69.27v2.57h-1Z" transform="translate(-41.32 -27.47)"/><path d="M270.64,148.64h-.52v-.75h.33c.3,0,.41-.11.41-.41v-.66h.8v1.07h1.07v.75h-1.07v1.6c0,.36.11.55.52.55a1.55,1.55,0,0,0,.49-.08v.77a2.09,2.09,0,0,1-.75.12c-1,0-1.27-.52-1.27-1.24Z" transform="translate(-41.32 -27.47)"/><path d="M276.66,150.29a1.58,1.58,0,0,1-1.72,1.3,1.9,1.9,0,0,1,0-3.79,1.66,1.66,0,0,1,1.75,1.89v.15h-2.52c0,.67.3,1,.81,1a.65.65,0,0,0,.72-.55Zm-1-1c-.06-.5-.32-.76-.75-.76s-.69.25-.75.76Z" transform="translate(-41.32 -27.47)"/><path d="M282.43,150.29a1.58,1.58,0,0,1-1.72,1.3,1.9,1.9,0,0,1,0-3.79,1.66,1.66,0,0,1,1.75,1.89v.15h-2.52c0,.67.3,1,.81,1a.65.65,0,0,0,.72-.55Zm-1-1c-.06-.5-.32-.76-.75-.76s-.69.25-.75.76Z" transform="translate(-41.32 -27.47)"/><path d="M285.44,151a1.59,1.59,0,0,1-1.28.57c-.64,0-1.16-.3-1.16-1,0-.9.85-1.08,1.48-1.12l.78-.07v-.08c0-.46-.07-.75-.58-.75s-.59.21-.59.59h-.95c0-1.1.89-1.34,1.64-1.34,1.12,0,1.48.54,1.48,1.41v1.4c0,.14,0,.21.2.21a.64.64,0,0,0,.29-.07v.68a1.31,1.31,0,0,1-.64.15c-.55,0-.66-.29-.66-.53Zm-.18-1.09-.58.07c-.45,0-.68.19-.68.5s.15.4.49.4a1.19,1.19,0,0,0,.77-.29Z" transform="translate(-41.32 -27.47)"/><path d="M288.13,150.33a.65.65,0,0,0,.73.59c.33,0,.57-.15.57-.41s-.41-.36-1.08-.55c-.49-.14-1.08-.36-1.08-1.07s.75-1.09,1.49-1.09,1.47.37,1.53,1.14h-1a.51.51,0,0,0-.56-.46c-.26,0-.46.12-.46.34s.46.35,1.09.52,1.07.39,1.07,1.09c0,.86-.81,1.16-1.59,1.16-.94,0-1.65-.42-1.71-1.26Z" transform="translate(-41.32 -27.47)"/><path d="M291.05,152.32a1.46,1.46,0,0,0,.42.07A.52.52,0,0,0,292,152l.11-.31-1.34-3.78h1.08l.81,2.58.81-2.58h1L293,151.95c-.21.59-.52,1.26-1.44,1.26a1.61,1.61,0,0,1-.53-.08Z" transform="translate(-41.32 -27.47)"/><path d="M294.84,149.17h2v.9h-2Z" transform="translate(-41.32 -27.47)"/><path d="M172.93,162.23a.65.65,0,0,0,.73.59c.33,0,.57-.15.57-.41s-.41-.36-1.08-.55c-.49-.14-1.08-.36-1.08-1.07s.75-1.09,1.49-1.09,1.47.37,1.53,1.14h-1a.51.51,0,0,0-.56-.46c-.26,0-.46.12-.46.34s.46.35,1.09.52,1.07.39,1.07,1.09c0,.86-.81,1.16-1.59,1.16-.94,0-1.65-.42-1.71-1.26Z" transform="translate(-41.32 -27.47)"/><path d="M176,158h1v2.18a1.24,1.24,0,0,1,1.09-.5c.58,0,1.22.25,1.22,1.47v2.24h-1v-2.06c0-.51-.12-.78-.61-.78a.93.93,0,0,0-.69.27v2.57h-1Z" transform="translate(-41.32 -27.47)"/><path d="M182.53,162.93a1.58,1.58,0,0,1-1.28.57c-.64,0-1.17-.3-1.17-1,0-.9.85-1.08,1.48-1.12l.78-.07v-.08c0-.46-.07-.75-.58-.75s-.59.21-.59.59h-.94c0-1.1.89-1.34,1.64-1.34,1.12,0,1.48.54,1.48,1.41v1.4c0,.14,0,.21.2.21a.64.64,0,0,0,.29-.07v.68a1.31,1.31,0,0,1-.64.15c-.55,0-.66-.29-.66-.53Zm-.18-1.09-.58.07c-.45,0-.68.19-.68.5s.15.4.49.4a1.19,1.19,0,0,0,.77-.29Z" transform="translate(-41.32 -27.47)"/><path d="M184.45,159.79h.9v.5a1,1,0,0,1,1-.58.94.94,0,0,1,.43.08v.86a1.21,1.21,0,0,0-.52-.11.91.91,0,0,0-.75.29v2.57h-1Z" transform="translate(-41.32 -27.47)"/><path d="M190.56,162.19a1.58,1.58,0,0,1-1.72,1.3,1.9,1.9,0,0,1,0-3.79,1.66,1.66,0,0,1,1.75,1.89v.15h-2.52c0,.67.3,1,.81,1a.65.65,0,0,0,.72-.55Zm-1-1c-.06-.5-.32-.76-.75-.76s-.69.25-.75.76Z" transform="translate(-41.32 -27.47)"/><path d="M193.57,162.93a1.58,1.58,0,0,1-1.28.57c-.64,0-1.17-.3-1.17-1,0-.9.85-1.08,1.48-1.12l.78-.07v-.08c0-.46-.07-.75-.58-.75s-.59.21-.59.59h-.94c0-1.1.89-1.34,1.64-1.34,1.12,0,1.48.54,1.48,1.41v1.4c0,.14,0,.21.2.21a.64.64,0,0,0,.29-.07v.68a1.31,1.31,0,0,1-.64.15c-.55,0-.66-.29-.66-.53Zm-.18-1.09-.58.07c-.45,0-.68.19-.68.5s.15.4.49.4a1.19,1.19,0,0,0,.77-.29Z" transform="translate(-41.32 -27.47)"/><path d="M195.49,158h1v2.1a1.31,1.31,0,0,1,1-.42c.76,0,1.53.51,1.53,1.88s-.78,1.91-1.55,1.91a1.24,1.24,0,0,1-1.08-.51v.43h-.9Zm1,4.4a1,1,0,0,0,.66.24c.55,0,.82-.37.82-1.06s-.28-1.07-.82-1.07a1,1,0,0,0-.66.24Z" transform="translate(-41.32 -27.47)"/><path d="M199.82,158h1v5.39h-1Z" transform="translate(-41.32 -27.47)"/><path d="M205.13,162.19a1.58,1.58,0,0,1-1.72,1.3,1.9,1.9,0,0,1,0-3.79,1.66,1.66,0,0,1,1.75,1.89v.15h-2.52c0,.67.3,1,.81,1a.65.65,0,0,0,.72-.55Zm-1-1c-.06-.5-.32-.76-.75-.76s-.69.25-.75.76Z" transform="translate(-41.32 -27.47)"/><path d="M210.87,162.07a1.5,1.5,0,0,1-1.65,1.43,1.9,1.9,0,0,1,0-3.79,1.5,1.5,0,0,1,1.65,1.43h-1a.61.61,0,0,0-.67-.6c-.51,0-.77.37-.77,1.07s.25,1.08.77,1.08a.61.61,0,0,0,.67-.6Z" transform="translate(-41.32 -27.47)"/><path d="M211.44,161.6a1.83,1.83,0,1,1,1.82,1.9A1.69,1.69,0,0,1,211.44,161.6Zm2.62,0c0-.72-.28-1.07-.8-1.07s-.8.35-.8,1.07.28,1.08.8,1.08S214.07,162.31,214.07,161.6Z" transform="translate(-41.32 -27.47)"/><path d="M215.86,159.79h1v2.05c0,.51.11.79.59.79a.89.89,0,0,0,.68-.27v-2.57h1v3.63h-.89v-.48a1.3,1.3,0,0,1-1.17.56c-.6,0-1.23-.25-1.23-1.47Z" transform="translate(-41.32 -27.47)"/><path d="M220.16,159.79h.9v.5a1,1,0,0,1,1-.58.93.93,0,0,1,.43.08v.86a1.21,1.21,0,0,0-.52-.11.9.9,0,0,0-.75.29v2.57h-1Z" transform="translate(-41.32 -27.47)"/><path d="M223.74,162.23a.65.65,0,0,0,.73.59c.33,0,.57-.15.57-.41s-.41-.36-1.08-.55c-.49-.14-1.08-.36-1.08-1.07s.75-1.09,1.49-1.09,1.47.37,1.53,1.14h-1a.51.51,0,0,0-.56-.46c-.26,0-.46.12-.46.34s.46.35,1.09.52,1.07.39,1.07,1.09c0,.86-.81,1.16-1.59,1.16-.94,0-1.65-.42-1.71-1.26Z" transform="translate(-41.32 -27.47)"/><path d="M230.13,162.19a1.58,1.58,0,0,1-1.72,1.3,1.9,1.9,0,0,1,0-3.79,1.66,1.66,0,0,1,1.75,1.89v.15h-2.52c0,.67.3,1,.81,1a.65.65,0,0,0,.72-.55Zm-1-1c-.06-.5-.32-.76-.75-.76s-.69.25-.75.76Z" transform="translate(-41.32 -27.47)"/><path d="M231.7,162.23a.65.65,0,0,0,.73.59c.33,0,.57-.15.57-.41s-.41-.36-1.08-.55c-.49-.14-1.08-.36-1.08-1.07s.75-1.09,1.49-1.09,1.47.37,1.53,1.14h-1a.51.51,0,0,0-.56-.46c-.26,0-.46.12-.46.34s.46.35,1.09.52,1.07.39,1.07,1.09c0,.86-.81,1.16-1.59,1.16-.94,0-1.65-.42-1.71-1.26Z" transform="translate(-41.32 -27.47)"/><path d="M234.88,162.34H236v1.08h-1.08Z" transform="translate(-41.32 -27.47)"/><path d="M238.75,162.75h.63v-3.21h-.63v-.67H241v.67h-.63v3.21H241v.67h-2.29Z" transform="translate(-41.32 -27.47)"/><path d="M241.86,159.79h.9v.47a1.31,1.31,0,0,1,1.18-.55c.6,0,1.25.25,1.25,1.47v2.24h-1v-2.06c0-.51-.12-.78-.61-.78a.93.93,0,0,0-.69.27v2.57h-1Z" transform="translate(-41.32 -27.47)"/><path d="M248,160.54h-.52v-.75h.33c.3,0,.41-.11.41-.41v-.66h.8v1.07h1.07v.75H249v1.6c0,.36.11.55.52.55a1.55,1.55,0,0,0,.49-.08v.77a2.09,2.09,0,0,1-.75.12c-1,0-1.27-.52-1.27-1.24Z" transform="translate(-41.32 -27.47)"/><path d="M250.77,158h1v2.18a1.24,1.24,0,0,1,1.09-.5c.58,0,1.22.25,1.22,1.47v2.24h-1v-2.06c0-.51-.12-.78-.61-.78a.93.93,0,0,0-.69.27v2.57h-1Z" transform="translate(-41.32 -27.47)"/><path d="M255,158h1.06v.9H255Zm0,1.77h1v3.63h-1Z" transform="translate(-41.32 -27.47)"/><path d="M257.86,162.23a.65.65,0,0,0,.73.59c.33,0,.57-.15.57-.41s-.41-.36-1.08-.55c-.49-.14-1.08-.36-1.08-1.07s.75-1.09,1.49-1.09,1.47.37,1.53,1.14h-1a.51.51,0,0,0-.56-.46c-.26,0-.46.12-.46.34s.46.35,1.09.52,1.07.39,1.07,1.09c0,.86-.81,1.16-1.59,1.16-.94,0-1.65-.42-1.71-1.26Z" transform="translate(-41.32 -27.47)"/><path d="M265.89,162.07a1.5,1.5,0,0,1-1.65,1.43,1.9,1.9,0,0,1,0-3.79,1.5,1.5,0,0,1,1.65,1.43h-1a.61.61,0,0,0-.67-.6c-.51,0-.77.37-.77,1.07s.25,1.08.77,1.08a.61.61,0,0,0,.67-.6Z" transform="translate(-41.32 -27.47)"/><path d="M266.47,161.6a1.83,1.83,0,1,1,1.82,1.9A1.69,1.69,0,0,1,266.47,161.6Zm2.62,0c0-.72-.28-1.07-.8-1.07s-.8.35-.8,1.07.28,1.08.8,1.08S269.09,162.31,269.09,161.6Z" transform="translate(-41.32 -27.47)"/><path d="M270.89,159.79h1v2.05c0,.51.11.79.59.79a.89.89,0,0,0,.68-.27v-2.57h1v3.63h-.89v-.48a1.3,1.3,0,0,1-1.17.56c-.6,0-1.23-.25-1.23-1.47Z" transform="translate(-41.32 -27.47)"/><path d="M275.18,159.79h.9v.5a1,1,0,0,1,1-.58.93.93,0,0,1,.43.08v.86a1.21,1.21,0,0,0-.52-.11.9.9,0,0,0-.75.29v2.57h-1Z" transform="translate(-41.32 -27.47)"/><path d="M278.76,162.23a.65.65,0,0,0,.73.59c.33,0,.57-.15.57-.41s-.41-.36-1.08-.55c-.49-.14-1.08-.36-1.08-1.07s.75-1.09,1.49-1.09,1.47.37,1.53,1.14h-1a.51.51,0,0,0-.56-.46c-.26,0-.46.12-.46.34s.46.35,1.09.52,1.07.39,1.07,1.09c0,.86-.81,1.16-1.59,1.16-.94,0-1.65-.42-1.71-1.26Z" transform="translate(-41.32 -27.47)"/><path d="M285.16,162.19a1.58,1.58,0,0,1-1.72,1.3,1.9,1.9,0,0,1,0-3.79,1.66,1.66,0,0,1,1.75,1.89v.15h-2.52c0,.67.3,1,.81,1a.65.65,0,0,0,.72-.55Zm-1-1c-.06-.5-.32-.76-.75-.76s-.69.25-.75.76Z" transform="translate(-41.32 -27.47)"/><path d="M286.57,163.41H286v-1.08h1.08v1.08l-.64,1.31H286Z" transform="translate(-41.32 -27.47)"/><path d="M289.69,159.79h1l.65,2.59.65-2.59h1l.65,2.59.65-2.59h1l-1.1,3.63h-1.08l-.64-2.45-.64,2.45h-1.07Z" transform="translate(-41.32 -27.47)"/><path d="M299.19,162.19a1.58,1.58,0,0,1-1.72,1.3,1.9,1.9,0,0,1,0-3.79,1.66,1.66,0,0,1,1.75,1.89v.15h-2.52c0,.67.3,1,.81,1a.65.65,0,0,0,.72-.55Zm-1-1c-.06-.5-.32-.76-.75-.76s-.69.25-.75.76Z" transform="translate(-41.32 -27.47)"/><path d="M171.8,171.69h1l.65,2.59.65-2.59h1l.65,2.59.65-2.59h1l-1.1,3.63h-1.08l-.64-2.45-.64,2.45H172.9Z" transform="translate(-41.32 -27.47)"/><path d="M178,169.92h1.06v.9H178Zm0,1.77h1v3.63h-1Z" transform="translate(-41.32 -27.47)"/><path d="M180.08,169.92h1v5.39h-1Z" transform="translate(-41.32 -27.47)"/><path d="M182.1,169.92h1v5.39h-1Z" transform="translate(-41.32 -27.47)"/><path d="M185.95,169.92H187v.9h-1.06Zm0,1.77h1v3.63h-1Z" transform="translate(-41.32 -27.47)"/><path d="M188,171.69h.9v.47a1.31,1.31,0,0,1,1.18-.55c.6,0,1.25.25,1.25,1.47v2.24h-1v-2.06c0-.51-.12-.78-.61-.78a.93.93,0,0,0-.69.27v2.57h-1Z" transform="translate(-41.32 -27.47)"/><path d="M192.35,172.44h-.52v-.75h.33c.3,0,.41-.11.41-.41v-.66h.8v1.07h1.07v.75h-1.07V174c0,.36.11.55.52.55a1.56,1.56,0,0,0,.49-.08v.77a2.09,2.09,0,0,1-.75.12c-1,0-1.27-.52-1.27-1.24Z" transform="translate(-41.32 -27.47)"/><path d="M195.11,171.69h.9v.5a1,1,0,0,1,1-.58.94.94,0,0,1,.43.08v.86a1.21,1.21,0,0,0-.52-.11.91.91,0,0,0-.75.29v2.57h-1Z" transform="translate(-41.32 -27.47)"/><path d="M197.73,173.5a1.83,1.83,0,1,1,1.82,1.9A1.69,1.69,0,0,1,197.73,173.5Zm2.62,0c0-.72-.28-1.07-.8-1.07s-.8.35-.8,1.07.28,1.08.8,1.08S200.35,174.21,200.35,173.5Z" transform="translate(-41.32 -27.47)"/><path d="M204.62,174.88a1.24,1.24,0,0,1-1.08.51c-.77,0-1.55-.51-1.55-1.88s.78-1.91,1.55-1.91a1.18,1.18,0,0,1,1,.42v-2.11h1v5.39h-.9Zm-.11-2.2a1,1,0,0,0-.66-.24c-.55,0-.82.37-.82,1.06s.28,1.07.82,1.07a1,1,0,0,0,.66-.24Z" transform="translate(-41.32 -27.47)"/><path d="M206.48,171.69h1v2.05c0,.51.11.79.59.79a.89.89,0,0,0,.68-.27v-2.57h1v3.63h-.89v-.48a1.3,1.3,0,0,1-1.16.56c-.6,0-1.23-.25-1.23-1.47Z" transform="translate(-41.32 -27.47)"/><path d="M214,174a1.5,1.5,0,0,1-1.65,1.43,1.9,1.9,0,0,1,0-3.79A1.5,1.5,0,0,1,214,173h-1a.61.61,0,0,0-.67-.6c-.51,0-.77.37-.77,1.07s.25,1.08.77,1.08a.61.61,0,0,0,.67-.6Z" transform="translate(-41.32 -27.47)"/><path d="M218.09,174.09a1.58,1.58,0,0,1-1.72,1.3,1.9,1.9,0,0,1,0-3.79,1.66,1.66,0,0,1,1.75,1.89v.15h-2.52c0,.67.3,1,.81,1a.65.65,0,0,0,.72-.55Zm-1-1c-.06-.5-.32-.76-.75-.76s-.69.25-.75.76Z" transform="translate(-41.32 -27.47)"/><path d="M220.45,176.12a1.46,1.46,0,0,0,.42.07.52.52,0,0,0,.54-.42l.11-.31-1.34-3.78h1.08l.81,2.58.81-2.58h1l-1.43,4.06c-.21.59-.52,1.26-1.44,1.26a1.61,1.61,0,0,1-.53-.08Z" transform="translate(-41.32 -27.47)"/><path d="M224.2,173.5a1.83,1.83,0,1,1,1.82,1.9A1.69,1.69,0,0,1,224.2,173.5Zm2.62,0c0-.72-.28-1.07-.8-1.07s-.8.35-.8,1.07.28,1.08.8,1.08S226.83,174.21,226.83,173.5Z" transform="translate(-41.32 -27.47)"/><path d="M228.62,171.69h1v2.05c0,.51.11.79.59.79a.89.89,0,0,0,.68-.27v-2.57h1v3.63H231v-.48a1.3,1.3,0,0,1-1.16.56c-.6,0-1.23-.25-1.23-1.47Z" transform="translate(-41.32 -27.47)"/><path d="M234.77,172.44h-.52v-.75h.33c.3,0,.41-.11.41-.41v-.66h.8v1.07h1.07v.75h-1.07V174c0,.36.11.55.52.55a1.55,1.55,0,0,0,.49-.08v.77a2.09,2.09,0,0,1-.75.12c-1,0-1.27-.52-1.27-1.24Z" transform="translate(-41.32 -27.47)"/><path d="M237.3,173.5a1.83,1.83,0,1,1,1.82,1.9A1.69,1.69,0,0,1,237.3,173.5Zm2.62,0c0-.72-.28-1.07-.8-1.07s-.8.35-.8,1.07.28,1.08.8,1.08S239.93,174.21,239.93,173.5Z" transform="translate(-41.32 -27.47)"/><path d="M243.54,172.44H243v-.75h.33c.3,0,.41-.11.41-.41v-.66h.8v1.07h1.07v.75h-1.07V174c0,.36.11.55.52.55a1.55,1.55,0,0,0,.49-.08v.77a2.09,2.09,0,0,1-.75.12c-1,0-1.27-.52-1.27-1.24Z" transform="translate(-41.32 -27.47)"/><path d="M246.3,169.92h1v2.18a1.24,1.24,0,0,1,1.09-.5c.58,0,1.22.25,1.22,1.47v2.24h-1v-2.06c0-.51-.12-.78-.61-.78a.93.93,0,0,0-.69.27v2.57h-1Z" transform="translate(-41.32 -27.47)"/><path d="M253.88,174.09a1.58,1.58,0,0,1-1.72,1.3,1.9,1.9,0,0,1,0-3.79,1.66,1.66,0,0,1,1.75,1.89v.15h-2.52c0,.67.3,1,.81,1a.65.65,0,0,0,.72-.55Zm-1-1c-.06-.5-.32-.76-.75-.76s-.69.25-.75.76Z" transform="translate(-41.32 -27.47)"/><path d="M256.44,171.69h.9v.43a1.24,1.24,0,0,1,1.08-.51c.77,0,1.55.51,1.55,1.88s-.78,1.91-1.55,1.91a1.18,1.18,0,0,1-1-.42v2h-1Zm1,2.63a1,1,0,0,0,.66.24c.55,0,.82-.37.82-1.06s-.28-1.07-.82-1.07a1,1,0,0,0-.66.24Z" transform="translate(-41.32 -27.47)"/><path d="M260.77,169.92h1v5.39h-1Z" transform="translate(-41.32 -27.47)"/><path d="M265,174.83a1.59,1.59,0,0,1-1.28.57c-.64,0-1.16-.3-1.16-1,0-.9.85-1.08,1.48-1.12l.78-.07v-.08c0-.46-.07-.75-.58-.75s-.59.21-.59.59h-.95c0-1.1.89-1.34,1.64-1.34,1.12,0,1.48.54,1.48,1.41v1.4c0,.14,0,.21.2.21a.64.64,0,0,0,.29-.07v.68a1.31,1.31,0,0,1-.64.15c-.55,0-.66-.29-.66-.53Zm-.18-1.09-.58.07c-.45,0-.68.19-.68.5s.15.4.49.4a1.19,1.19,0,0,0,.77-.29Z" transform="translate(-41.32 -27.47)"/><path d="M267,172.44h-.52v-.75h.33c.3,0,.41-.11.41-.41v-.66h.8v1.07H269v.75H268V174c0,.36.11.55.52.55a1.55,1.55,0,0,0,.49-.08v.77a2.09,2.09,0,0,1-.75.12c-1,0-1.27-.52-1.27-1.24Z" transform="translate(-41.32 -27.47)"/><path d="M269.72,172.44h-.52v-.75h.52v-.6a1.12,1.12,0,0,1,1.22-1.25,1.25,1.25,0,0,1,.5.08v.77a1,1,0,0,0-.29,0c-.33,0-.42.19-.42.49v.55h.71v.75h-.71v2.88h-1Z" transform="translate(-41.32 -27.47)"/><path d="M271.8,173.5a1.83,1.83,0,1,1,1.82,1.9A1.69,1.69,0,0,1,271.8,173.5Zm2.62,0c0-.72-.28-1.07-.8-1.07s-.8.35-.8,1.07.28,1.08.8,1.08S274.42,174.21,274.42,173.5Z" transform="translate(-41.32 -27.47)"/><path d="M276.26,171.69h.9v.5a1,1,0,0,1,1-.58.93.93,0,0,1,.43.08v.86a1.21,1.21,0,0,0-.52-.11.9.9,0,0,0-.75.29v2.57h-1Z" transform="translate(-41.32 -27.47)"/><path d="M279.12,171.69h.9v.47a1.21,1.21,0,0,1,1.11-.55,1,1,0,0,1,1,.55,1.35,1.35,0,0,1,1.17-.55c.58,0,1.2.25,1.2,1.47v2.24h-1v-2.06c0-.5-.11-.78-.55-.78a.86.86,0,0,0-.64.27c0,.11,0,.21,0,.33v2.24h-1v-2.06c0-.51-.11-.78-.55-.78a.8.8,0,0,0-.63.27v2.57h-1Z" transform="translate(-41.32 -27.47)"/><path d="M285.67,174.24h1.08v1.08h-1.08Z" transform="translate(-41.32 -27.47)"/><path d="M291,170.77h1.14l1.67,4.55H292.7l-.29-.82h-1.78l-.28.82H289.3Zm1.19,2.94-.64-1.91-.64,1.91Z" transform="translate(-41.32 -27.47)"/><path d="M294.45,169.92h1v5.39h-1Z" transform="translate(-41.32 -27.47)"/><path d="M297.23,174.13a.65.65,0,0,0,.73.59c.33,0,.57-.15.57-.41s-.41-.36-1.08-.55c-.49-.14-1.08-.36-1.08-1.07s.75-1.09,1.49-1.09,1.47.37,1.53,1.14h-1a.51.51,0,0,0-.56-.46c-.26,0-.46.12-.46.34s.46.35,1.09.52,1.07.39,1.07,1.09c0,.86-.81,1.16-1.59,1.16-.94,0-1.65-.42-1.71-1.26Z" transform="translate(-41.32 -27.47)"/><path d="M300.14,173.5a1.83,1.83,0,1,1,1.82,1.9A1.69,1.69,0,0,1,300.14,173.5Zm2.62,0c0-.72-.28-1.07-.8-1.07s-.8.35-.8,1.07.28,1.08.8,1.08S302.76,174.21,302.76,173.5Z" transform="translate(-41.32 -27.47)"/><path d="M305.17,175.31h-.53v-1.08h1.08v1.08l-.64,1.31h-.52Z" transform="translate(-41.32 -27.47)"/><path d="M172,188a1.46,1.46,0,0,0,.42.07.52.52,0,0,0,.54-.42l.11-.31-1.34-3.78h1.08l.81,2.58.81-2.58h1L174,187.64c-.21.59-.52,1.26-1.44,1.26a1.61,1.61,0,0,1-.53-.08Z" transform="translate(-41.32 -27.47)"/><path d="M175.79,185.4a1.83,1.83,0,1,1,1.82,1.9A1.69,1.69,0,0,1,175.79,185.4Zm2.62,0c0-.72-.28-1.07-.8-1.07s-.8.35-.8,1.07.28,1.08.8,1.08S178.42,186.11,178.42,185.4Z" transform="translate(-41.32 -27.47)"/><path d="M180.21,183.59h1v2.05c0,.51.11.79.59.79a.89.89,0,0,0,.68-.27v-2.57h1v3.63h-.89v-.48a1.3,1.3,0,0,1-1.17.56c-.6,0-1.23-.25-1.23-1.47Z" transform="translate(-41.32 -27.47)"/><path d="M185.9,183.59h1l.65,2.59.65-2.59h1l.65,2.59.65-2.59h1l-1.1,3.63h-1.08l-.64-2.45-.64,2.45H187Z" transform="translate(-41.32 -27.47)"/><path d="M192.13,181.82h1.06v.9h-1.06Zm0,1.77h1v3.63h-1Z" transform="translate(-41.32 -27.47)"/><path d="M194.19,181.82h1v5.39h-1Z" transform="translate(-41.32 -27.47)"/><path d="M196.2,181.82h1v5.39h-1Z" transform="translate(-41.32 -27.47)"/><path d="M200.06,181.82h1v5.39h-1Z" transform="translate(-41.32 -27.47)"/><path d="M205.37,186a1.58,1.58,0,0,1-1.72,1.3,1.9,1.9,0,0,1,0-3.79,1.66,1.66,0,0,1,1.75,1.89v.15h-2.52c0,.67.3,1,.81,1a.65.65,0,0,0,.72-.55Zm-1-1c-.06-.5-.32-.76-.75-.76s-.69.25-.75.76Z" transform="translate(-41.32 -27.47)"/><path d="M208.39,186.72a1.58,1.58,0,0,1-1.28.57c-.64,0-1.17-.3-1.17-1,0-.9.85-1.08,1.48-1.12l.78-.07V185c0-.46-.07-.75-.58-.75s-.59.21-.59.59h-.94c0-1.1.89-1.34,1.64-1.34,1.12,0,1.48.54,1.48,1.41v1.4c0,.14,0,.21.2.21a.65.65,0,0,0,.29-.07v.68a1.31,1.31,0,0,1-.64.15c-.55,0-.66-.29-.66-.53Zm-.18-1.09-.58.07c-.45,0-.68.19-.68.5s.15.4.49.4a1.19,1.19,0,0,0,.77-.29Z" transform="translate(-41.32 -27.47)"/><path d="M210.3,183.59h.9v.5a1,1,0,0,1,1-.58.94.94,0,0,1,.43.08v.86a1.21,1.21,0,0,0-.52-.11.9.9,0,0,0-.75.29v2.57h-1Z" transform="translate(-41.32 -27.47)"/><path d="M213.16,183.59h.9v.47a1.31,1.31,0,0,1,1.18-.55c.6,0,1.25.25,1.25,1.47v2.24h-1v-2.06c0-.51-.12-.78-.61-.78a.93.93,0,0,0-.69.27v2.57h-1Z" transform="translate(-41.32 -27.47)"/><path d="M219.29,181.82h1V184a1.24,1.24,0,0,1,1.09-.5c.58,0,1.22.25,1.22,1.47v2.24h-1v-2.06c0-.51-.12-.78-.61-.78a.93.93,0,0,0-.69.27v2.57h-1Z" transform="translate(-41.32 -27.47)"/><path d="M223.39,185.4a1.83,1.83,0,1,1,1.82,1.9A1.69,1.69,0,0,1,223.39,185.4Zm2.62,0c0-.72-.28-1.07-.8-1.07s-.8.35-.8,1.07.28,1.08.8,1.08S226,186.11,226,185.4Z" transform="translate(-41.32 -27.47)"/><path d="M227.46,183.59h1l.65,2.59.65-2.59h1l.65,2.59.65-2.59h1l-1.1,3.63H230.9l-.64-2.45-.64,2.45h-1.07Z" transform="translate(-41.32 -27.47)"/><path d="M235.49,184.34H235v-.75h.33c.3,0,.41-.11.41-.41v-.66h.8v1.07h1.07v.75H236.5v1.6c0,.36.11.55.52.55a1.56,1.56,0,0,0,.49-.08v.77a2.09,2.09,0,0,1-.75.12c-1,0-1.27-.52-1.27-1.24Z" transform="translate(-41.32 -27.47)"/><path d="M238,185.4a1.83,1.83,0,1,1,1.82,1.9A1.69,1.69,0,0,1,238,185.4Zm2.62,0c0-.72-.28-1.07-.8-1.07s-.8.35-.8,1.07.28,1.08.8,1.08S240.64,186.11,240.64,185.4Z" transform="translate(-41.32 -27.47)"/><path d="M247.42,185.87a1.5,1.5,0,0,1-1.65,1.43,1.9,1.9,0,0,1,0-3.79,1.5,1.5,0,0,1,1.65,1.43h-1a.61.61,0,0,0-.67-.6c-.51,0-.77.37-.77,1.07s.25,1.08.77,1.08a.61.61,0,0,0,.67-.6Z" transform="translate(-41.32 -27.47)"/><path d="M248.19,183.59h.9v.5a1,1,0,0,1,1-.58.93.93,0,0,1,.43.08v.86a1.21,1.21,0,0,0-.52-.11.9.9,0,0,0-.75.29v2.57h-1Z" transform="translate(-41.32 -27.47)"/><path d="M254.3,186a1.58,1.58,0,0,1-1.72,1.3,1.9,1.9,0,0,1,0-3.79,1.66,1.66,0,0,1,1.75,1.89v.15h-2.52c0,.67.3,1,.81,1a.65.65,0,0,0,.72-.55Zm-1-1c-.06-.5-.32-.76-.75-.76s-.69.25-.75.76Z" transform="translate(-41.32 -27.47)"/><path d="M257.31,186.72a1.59,1.59,0,0,1-1.28.57c-.64,0-1.16-.3-1.16-1,0-.9.85-1.08,1.48-1.12l.78-.07V185c0-.46-.07-.75-.58-.75s-.59.21-.59.59H255c0-1.1.89-1.34,1.64-1.34,1.12,0,1.48.54,1.48,1.41v1.4c0,.14,0,.21.2.21a.65.65,0,0,0,.29-.07v.68a1.31,1.31,0,0,1-.64.15c-.55,0-.66-.29-.66-.53Zm-.18-1.09-.58.07c-.45,0-.68.19-.68.5s.15.4.49.4a1.19,1.19,0,0,0,.77-.29Z" transform="translate(-41.32 -27.47)"/><path d="M259.28,184.34h-.52v-.75h.33c.3,0,.41-.11.41-.41v-.66h.8v1.07h1.07v.75h-1.07v1.6c0,.36.11.55.52.55a1.56,1.56,0,0,0,.49-.08v.77a2.09,2.09,0,0,1-.75.12c-1,0-1.27-.52-1.27-1.24Z" transform="translate(-41.32 -27.47)"/><path d="M265.29,186a1.58,1.58,0,0,1-1.72,1.3,1.9,1.9,0,0,1,0-3.79,1.66,1.66,0,0,1,1.75,1.89v.15h-2.52c0,.67.3,1,.81,1a.65.65,0,0,0,.72-.55Zm-1-1c-.06-.5-.32-.76-.75-.76s-.69.25-.75.76Z" transform="translate(-41.32 -27.47)"/><path d="M267.65,188a1.46,1.46,0,0,0,.42.07.52.52,0,0,0,.54-.42l.11-.31-1.34-3.78h1.08l.81,2.58.81-2.58h1l-1.43,4.06c-.21.59-.52,1.26-1.44,1.26a1.61,1.61,0,0,1-.53-.08Z" transform="translate(-41.32 -27.47)"/><path d="M271.41,185.4a1.83,1.83,0,1,1,1.82,1.9A1.69,1.69,0,0,1,271.41,185.4Zm2.62,0c0-.72-.28-1.07-.8-1.07s-.8.35-.8,1.07.28,1.08.8,1.08S274,186.11,274,185.4Z" transform="translate(-41.32 -27.47)"/><path d="M275.83,183.59h1v2.05c0,.51.11.79.59.79a.89.89,0,0,0,.68-.27v-2.57h1v3.63h-.89v-.48a1.3,1.3,0,0,1-1.16.56c-.6,0-1.23-.25-1.23-1.47Z" transform="translate(-41.32 -27.47)"/><path d="M280.12,183.59h.9v.5a1,1,0,0,1,1-.58.94.94,0,0,1,.43.08v.86a1.21,1.21,0,0,0-.52-.11.9.9,0,0,0-.75.29v2.57h-1Z" transform="translate(-41.32 -27.47)"/><path d="M284.77,184.34h-.52v-.75h.52V183a1.12,1.12,0,0,1,1.22-1.25,1.25,1.25,0,0,1,.5.08v.77a1,1,0,0,0-.29,0c-.33,0-.42.19-.42.49v.55h.71v.75h-.71v2.88h-1Z" transform="translate(-41.32 -27.47)"/><path d="M287,181.82h1.06v.9H287Zm0,1.77h1v3.63h-1Z" transform="translate(-41.32 -27.47)"/><path d="M289.09,183.59h.9v.5a1,1,0,0,1,1-.58.94.94,0,0,1,.43.08v.86a1.21,1.21,0,0,0-.52-.11.9.9,0,0,0-.75.29v2.57h-1Z" transform="translate(-41.32 -27.47)"/><path d="M292.67,186a.65.65,0,0,0,.73.59c.33,0,.57-.15.57-.41s-.41-.36-1.08-.55c-.49-.14-1.08-.36-1.08-1.07s.75-1.09,1.49-1.09,1.47.37,1.53,1.14h-1a.51.51,0,0,0-.56-.46c-.26,0-.46.12-.46.34s.46.35,1.09.52,1.07.39,1.07,1.09c0,.86-.81,1.16-1.59,1.16-.94,0-1.65-.42-1.71-1.26Z" transform="translate(-41.32 -27.47)"/><path d="M295.83,184.34h-.52v-.75h.33c.3,0,.41-.11.41-.41v-.66h.8v1.07h1.07v.75h-1.07v1.6c0,.36.11.55.52.55a1.56,1.56,0,0,0,.49-.08v.77a2.09,2.09,0,0,1-.75.12c-1,0-1.27-.52-1.27-1.24Z" transform="translate(-41.32 -27.47)"/><path d="M172,197.3a1.83,1.83,0,1,1,1.82,1.9A1.69,1.69,0,0,1,172,197.3Zm2.62,0c0-.72-.28-1.07-.8-1.07s-.8.35-.8,1.07.28,1.08.8,1.08S174.59,198,174.59,197.3Z" transform="translate(-41.32 -27.47)"/><path d="M176,195.49h1l.65,2.59.65-2.59h1l.65,2.59.65-2.59h1l-1.1,3.63h-1.08l-.64-2.45-.64,2.45h-1.07Z" transform="translate(-41.32 -27.47)"/><path d="M182.29,195.49h.9V196a1.31,1.31,0,0,1,1.18-.55c.6,0,1.25.25,1.25,1.47v2.24h-1v-2.06c0-.51-.12-.78-.61-.78a.93.93,0,0,0-.69.27v2.57h-1Z" transform="translate(-41.32 -27.47)"/><path d="M191.6,197.77a1.5,1.5,0,0,1-1.65,1.43,1.9,1.9,0,0,1,0-3.79,1.5,1.5,0,0,1,1.65,1.43h-1a.61.61,0,0,0-.67-.6c-.51,0-.77.37-.77,1.07s.25,1.08.77,1.08a.61.61,0,0,0,.67-.6Z" transform="translate(-41.32 -27.47)"/><path d="M192.17,197.3a1.83,1.83,0,1,1,1.82,1.9A1.69,1.69,0,0,1,192.17,197.3Zm2.62,0c0-.72-.28-1.07-.8-1.07s-.8.35-.8,1.07.28,1.08.8,1.08S194.8,198,194.8,197.3Z" transform="translate(-41.32 -27.47)"/><path d="M196.59,195.49h1v2.05c0,.51.11.79.59.79a.89.89,0,0,0,.68-.27v-2.57h1v3.63H199v-.48a1.3,1.3,0,0,1-1.17.56c-.6,0-1.23-.25-1.23-1.47Z" transform="translate(-41.32 -27.47)"/><path d="M200.89,195.49h.9v.5a1,1,0,0,1,1-.58.94.94,0,0,1,.43.08v.86a1.21,1.21,0,0,0-.52-.11.91.91,0,0,0-.75.29v2.57h-1Z" transform="translate(-41.32 -27.47)"/><path d="M204.47,197.93a.65.65,0,0,0,.73.59c.33,0,.57-.15.57-.41s-.41-.36-1.08-.55c-.49-.14-1.08-.36-1.08-1.07s.75-1.09,1.49-1.09,1.47.37,1.53,1.14h-1a.51.51,0,0,0-.56-.46c-.26,0-.46.12-.46.34s.46.35,1.09.52,1.07.39,1.07,1.09c0,.86-.81,1.16-1.59,1.16-.94,0-1.65-.42-1.71-1.26Z" transform="translate(-41.32 -27.47)"/><path d="M210.86,197.89a1.58,1.58,0,0,1-1.72,1.3,1.9,1.9,0,0,1,0-3.79,1.66,1.66,0,0,1,1.75,1.89v.15h-2.52c0,.67.3,1,.81,1a.65.65,0,0,0,.72-.55Zm-1-1c-.06-.5-.32-.76-.75-.76s-.69.25-.75.76Z" transform="translate(-41.32 -27.47)"/><path d="M211.75,198h1.08v1.08h-1.08Z" transform="translate(-41.32 -27.47)"/><path d="M206.78,94.43c0-2,1-3.39,3.17-3.39s3.17,1.36,3.17,3.39-1,3.39-3.17,3.39S206.78,96.46,206.78,94.43Zm4.8,0c0-1-.32-2.1-1.63-2.1s-1.63,1.07-1.63,2.1.32,2.1,1.63,2.1S211.58,95.46,211.58,94.43Z" transform="translate(-41.32 -27.47)"/><path d="M214.6,93.56h-.75V92.48h.75v-.87a1.61,1.61,0,0,1,1.76-1.8,1.8,1.8,0,0,1,.72.12V91a1.51,1.51,0,0,0-.41-.06c-.47,0-.61.27-.61.7v.79h1v1.08h-1V97.7H214.6Z" transform="translate(-41.32 -27.47)"/><path d="M218.08,93.56h-.75V92.48h.75v-.87a1.61,1.61,0,0,1,1.76-1.8,1.8,1.8,0,0,1,.72.12V91a1.51,1.51,0,0,0-.41-.06c-.47,0-.61.27-.61.7v.79h1v1.08h-1V97.7h-1.46Z" transform="translate(-41.32 -27.47)"/><path d="M226.05,95.77a2.16,2.16,0,0,1-2.38,2.05,2.73,2.73,0,0,1,0-5.46,2.16,2.16,0,0,1,2.38,2.05h-1.43a.89.89,0,0,0-1-.87c-.74,0-1.1.54-1.1,1.54s.36,1.55,1.1,1.55a.89.89,0,0,0,1-.87Z" transform="translate(-41.32 -27.47)"/><path d="M226.88,95.09a2.63,2.63,0,1,1,2.63,2.74A2.44,2.44,0,0,1,226.88,95.09Zm3.78,0c0-1-.4-1.54-1.15-1.54s-1.15.5-1.15,1.54.4,1.55,1.15,1.55S230.67,96.11,230.67,95.09Z" transform="translate(-41.32 -27.47)"/><path d="M233.26,92.48h1.46v3c0,.74.16,1.14.85,1.14a1.28,1.28,0,0,0,1-.39V92.48H238V97.7h-1.28V97a1.87,1.87,0,0,1-1.68.81c-.87,0-1.77-.36-1.77-2.11Z" transform="translate(-41.32 -27.47)"/><path d="M239.45,92.48h1.29v.72a1.46,1.46,0,0,1,1.37-.83,1.36,1.36,0,0,1,.62.12v1.24a1.74,1.74,0,0,0-.75-.15,1.3,1.3,0,0,0-1.08.42V97.7h-1.46Z" transform="translate(-41.32 -27.47)"/><path d="M244.61,96a.94.94,0,0,0,1.06.85c.48,0,.82-.21.82-.59s-.59-.52-1.56-.79c-.7-.2-1.55-.52-1.55-1.54s1.08-1.57,2.15-1.57,2.13.53,2.21,1.64h-1.43a.73.73,0,0,0-.81-.67c-.38,0-.67.18-.67.49,0,.48.67.5,1.57.75s1.54.56,1.54,1.57c0,1.24-1.16,1.67-2.29,1.67-1.35,0-2.37-.6-2.47-1.82Z" transform="translate(-41.32 -27.47)"/><path d="M253.83,95.94a2.27,2.27,0,0,1-2.48,1.88,2.74,2.74,0,0,1,0-5.46,2.39,2.39,0,0,1,2.52,2.72v.21h-3.63c0,1,.43,1.43,1.16,1.43a.93.93,0,0,0,1-.79Zm-1.42-1.43c-.08-.73-.46-1.09-1.08-1.09s-1,.36-1.08,1.09Z" transform="translate(-41.32 -27.47)"/><path d="M176,252.49h1.1v3.9h2.15v.95H176Z" transform="translate(-41.32 -27.47)" fill="#fff"/><path d="M183.41,256a1.68,1.68,0,0,1-1.83,1.39,2,2,0,0,1,0-4,1.77,1.77,0,0,1,1.87,2v.16h-2.68c0,.71.32,1.06.86,1.06a.69.69,0,0,0,.76-.58ZM182.36,255c-.06-.54-.34-.81-.8-.81s-.74.27-.8.81Z" transform="translate(-41.32 -27.47)" fill="#fff"/><path d="M186.62,256.82a1.69,1.69,0,0,1-1.36.61c-.68,0-1.24-.32-1.24-1.09,0-1,.9-1.15,1.58-1.2l.83-.07V255c0-.49-.08-.8-.62-.8s-.63.23-.63.63h-1c0-1.17.95-1.43,1.75-1.43,1.2,0,1.58.57,1.58,1.5v1.49c0,.15.05.23.21.23a.68.68,0,0,0,.3-.08v.73a1.4,1.4,0,0,1-.69.16c-.58,0-.7-.3-.7-.56Zm-.19-1.16-.62.07c-.48.05-.73.2-.73.54s.16.43.52.43a1.27,1.27,0,0,0,.83-.31Z" transform="translate(-41.32 -27.47)" fill="#fff"/><path d="M188.67,253.48h1V254a1.08,1.08,0,0,1,1-.62,1,1,0,0,1,.46.09v.92a1.29,1.29,0,0,0-.56-.11,1,1,0,0,0-.8.31v2.74h-1.08Z" transform="translate(-41.32 -27.47)" fill="#fff"/><path d="M191.72,253.48h1v.5a1.4,1.4,0,0,1,1.26-.59c.64,0,1.33.27,1.33,1.56v2.39h-1.08v-2.2c0-.55-.13-.83-.65-.83a1,1,0,0,0-.74.29v2.74h-1.08Z" transform="translate(-41.32 -27.47)" fill="#fff"/><path d="M199.55,252.49h1.22l1.78,4.85h-1.16l-.3-.88h-1.9l-.3.88h-1.12Zm1.27,3.14-.69-2-.68,2Z" transform="translate(-41.32 -27.47)" fill="#fff"/><path d="M203.26,251.59h1.08v2.24a1.39,1.39,0,0,1,1-.44c.81,0,1.63.55,1.63,2s-.83,2-1.65,2a1.32,1.32,0,0,1-1.15-.55v.46h-1Zm1.08,4.69a1,1,0,0,0,.7.26c.58,0,.88-.4.88-1.13s-.3-1.14-.88-1.14a1,1,0,0,0-.7.26Z" transform="translate(-41.32 -27.47)" fill="#fff"/><path d="M207.68,255.4a1.95,1.95,0,1,1,1.95,2A1.81,1.81,0,0,1,207.68,255.4Zm2.8,0c0-.76-.3-1.14-.85-1.14s-.85.37-.85,1.14.3,1.15.85,1.15S210.47,256.16,210.47,255.4Z" transform="translate(-41.32 -27.47)" fill="#fff"/><path d="M212.4,253.48h1.08v2.19c0,.55.12.84.63.84a1,1,0,0,0,.72-.29v-2.74h1.08v3.86h-.95v-.51a1.38,1.38,0,0,1-1.24.6c-.64,0-1.31-.27-1.31-1.56Z" transform="translate(-41.32 -27.47)" fill="#fff"/><path d="M217,254.27h-.56v-.8h.35c.32,0,.43-.12.43-.43v-.7h.85v1.14h1.14v.8h-1.14V256c0,.38.11.58.56.58a1.66,1.66,0,0,0,.52-.09v.82a2.25,2.25,0,0,1-.8.13c-1,0-1.35-.56-1.35-1.32Z" transform="translate(-41.32 -27.47)" fill="#fff"/><path d="M222,252.49h1.35l1.12,2.2,1.13-2.2h1.28v4.85h-1.05v-3.41L224.76,256h-.61l-1.09-2.12v3.41H222Z" transform="translate(-41.32 -27.47)" fill="#fff"/><path d="M227.88,255.4a1.95,1.95,0,1,1,1.94,2A1.81,1.81,0,0,1,227.88,255.4Zm2.8,0c0-.76-.3-1.14-.85-1.14s-.85.37-.85,1.14.3,1.15.85,1.15S230.68,256.16,230.68,255.4Z" transform="translate(-41.32 -27.47)" fill="#fff"/><path d="M232.64,253.48h1V254a1.08,1.08,0,0,1,1-.62,1,1,0,0,1,.46.09v.92a1.29,1.29,0,0,0-.56-.11,1,1,0,0,0-.8.31v2.74h-1.08Z" transform="translate(-41.32 -27.47)" fill="#fff"/><path d="M239.16,256a1.68,1.68,0,0,1-1.83,1.39,2,2,0,0,1,0-4,1.77,1.77,0,0,1,1.87,2v.16h-2.68c0,.71.32,1.06.86,1.06a.69.69,0,0,0,.76-.58ZM238.11,255c-.06-.54-.34-.81-.8-.81s-.74.27-.8.81Z" transform="translate(-41.32 -27.47)" fill="#fff"/><path d="M241.79,254.92a2.35,2.35,0,1,1,2.34,2.51A2.22,2.22,0,0,1,241.79,254.92Zm3.55,0c0-.76-.23-1.55-1.21-1.55s-1.21.79-1.21,1.55.23,1.55,1.21,1.55S245.35,255.68,245.35,254.92Z" transform="translate(-41.32 -27.47)" fill="#fff"/><path d="M247.58,254.27H247v-.8h.56v-.64a1.19,1.19,0,0,1,1.3-1.33,1.32,1.32,0,0,1,.53.09v.82a1.11,1.11,0,0,0-.3,0c-.35,0-.45.2-.45.52v.58h.76v.8h-.76v3.07h-1.08Z" transform="translate(-41.32 -27.47)" fill="#fff"/><path d="M250.15,254.27h-.56v-.8h.56v-.64a1.19,1.19,0,0,1,1.3-1.33,1.32,1.32,0,0,1,.53.09v.82a1.11,1.11,0,0,0-.3,0c-.35,0-.45.2-.45.52v.58H252v.8h-.76v3.07h-1.08Z" transform="translate(-41.32 -27.47)" fill="#fff"/><path d="M256.05,255.91a1.59,1.59,0,0,1-1.76,1.52,2,2,0,0,1,0-4,1.6,1.6,0,0,1,1.76,1.52H255a.65.65,0,0,0-.71-.64c-.55,0-.82.4-.82,1.14s.27,1.15.82,1.15a.66.66,0,0,0,.71-.64Z" transform="translate(-41.32 -27.47)" fill="#fff"/><path d="M256.67,255.4a1.95,1.95,0,1,1,1.94,2A1.81,1.81,0,0,1,256.67,255.4Zm2.8,0c0-.76-.3-1.14-.85-1.14s-.85.37-.85,1.14.3,1.15.85,1.15S259.47,256.16,259.47,255.4Z" transform="translate(-41.32 -27.47)" fill="#fff"/><path d="M261.39,253.48h1.08v2.19c0,.55.12.84.63.84a1,1,0,0,0,.72-.29v-2.74h1.08v3.86h-.95v-.51a1.38,1.38,0,0,1-1.24.6c-.64,0-1.31-.27-1.31-1.56Z" transform="translate(-41.32 -27.47)" fill="#fff"/><path d="M266,253.48h1V254a1.08,1.08,0,0,1,1-.62,1,1,0,0,1,.46.09v.92a1.29,1.29,0,0,0-.56-.11,1,1,0,0,0-.8.31v2.74H266Z" transform="translate(-41.32 -27.47)" fill="#fff"/><path d="M269.79,256.08a.7.7,0,0,0,.78.63c.36,0,.61-.16.61-.43s-.43-.38-1.16-.58c-.52-.15-1.15-.38-1.15-1.14s.8-1.16,1.59-1.16,1.57.39,1.63,1.22H271a.54.54,0,0,0-.6-.5c-.28,0-.49.13-.49.36s.49.37,1.16.56,1.14.42,1.14,1.16c0,.92-.86,1.23-1.69,1.23-1,0-1.75-.44-1.82-1.35Z" transform="translate(-41.32 -27.47)" fill="#fff"/><path d="M276.61,256a1.68,1.68,0,0,1-1.83,1.39,2,2,0,0,1,0-4,1.77,1.77,0,0,1,1.87,2v.16h-2.68c0,.71.32,1.06.86,1.06a.69.69,0,0,0,.76-.58ZM275.56,255c-.06-.54-.34-.81-.8-.81s-.74.27-.8.81Z" transform="translate(-41.32 -27.47)" fill="#fff"/><path d="M176,264.39h3.29v.93h-2.19v1h1.84v.93h-1.84v2H176Z" transform="translate(-41.32 -27.47)" fill="#fff"/><path d="M180,265.37h1.08v2.19c0,.55.12.84.63.84a1,1,0,0,0,.72-.29v-2.74h1.08v3.86h-.95v-.51a1.38,1.38,0,0,1-1.24.6c-.64,0-1.31-.27-1.31-1.56Z" transform="translate(-41.32 -27.47)" fill="#fff"/><path d="M184.57,265.37h1v.5a1.4,1.4,0,0,1,1.26-.59c.64,0,1.33.27,1.33,1.56v2.39H187V267c0-.55-.13-.83-.65-.83a1,1,0,0,0-.74.29v2.74h-1.08Z" transform="translate(-41.32 -27.47)" fill="#fff"/><path d="M192.63,267.81a1.59,1.59,0,0,1-1.76,1.52,2,2,0,0,1,0-4,1.59,1.59,0,0,1,1.76,1.52h-1.06a.65.65,0,0,0-.71-.64c-.55,0-.82.4-.82,1.14s.27,1.15.82,1.15a.65.65,0,0,0,.71-.64Z" transform="translate(-41.32 -27.47)" fill="#fff"/><path d="M193.51,266.17H193v-.8h.35c.32,0,.43-.12.43-.43v-.7h.85v1.14h1.14v.8h-1.14v1.71c0,.38.11.58.56.58a1.68,1.68,0,0,0,.52-.09v.82a2.23,2.23,0,0,1-.8.13c-1,0-1.35-.56-1.35-1.32Z" transform="translate(-41.32 -27.47)" fill="#fff"/><path d="M196.44,263.49h1.13v1h-1.13Zm0,1.88h1.08v3.86h-1.08Z" transform="translate(-41.32 -27.47)" fill="#fff"/><path d="M198.42,267.3a1.95,1.95,0,1,1,1.95,2A1.81,1.81,0,0,1,198.42,267.3Zm2.8,0c0-.76-.3-1.14-.85-1.14s-.85.37-.85,1.14.3,1.15.85,1.15S201.22,268.06,201.22,267.3Z" transform="translate(-41.32 -27.47)" fill="#fff"/><path d="M203.19,265.37h1v.5a1.4,1.4,0,0,1,1.26-.59c.64,0,1.33.27,1.33,1.56v2.39h-1.08V267c0-.55-.13-.83-.65-.83a1,1,0,0,0-.74.29v2.74h-1.08Z" transform="translate(-41.32 -27.47)" fill="#fff"/><path d="M210.12,268.72a1.69,1.69,0,0,1-1.36.61c-.68,0-1.24-.32-1.24-1.09,0-1,.9-1.15,1.58-1.2l.83-.07v-.09c0-.5-.08-.8-.62-.8s-.62.23-.63.63h-1c0-1.17.95-1.43,1.75-1.43,1.2,0,1.58.57,1.58,1.5v1.49c0,.15.05.23.21.23a.68.68,0,0,0,.3-.08v.73a1.39,1.39,0,0,1-.69.17c-.58,0-.7-.3-.7-.56Zm-.19-1.16-.62.07c-.48.05-.73.2-.73.54s.16.43.52.43a1.27,1.27,0,0,0,.83-.31Z" transform="translate(-41.32 -27.47)" fill="#fff"/><path d="M212.17,263.49h1.08v5.75h-1.08Z" transform="translate(-41.32 -27.47)" fill="#fff"/><path d="M214.31,263.49h1.13v1h-1.13Zm0,1.88h1.08v3.86h-1.08Z" transform="translate(-41.32 -27.47)" fill="#fff"/><path d="M216.56,266.17H216v-.8h.35c.32,0,.43-.12.43-.43v-.7h.85v1.14h1.14v.8h-1.14v1.71c0,.38.11.58.56.58a1.69,1.69,0,0,0,.52-.09v.82a2.23,2.23,0,0,1-.8.13c-1,0-1.35-.56-1.35-1.32Z" transform="translate(-41.32 -27.47)" fill="#fff"/><path d="M219.49,263.49h1.13v1h-1.13Zm0,1.88h1.08v3.86h-1.08Z" transform="translate(-41.32 -27.47)" fill="#fff"/><path d="M225.19,267.94a1.68,1.68,0,0,1-1.83,1.39,2,2,0,0,1,0-4,1.77,1.77,0,0,1,1.87,2v.16h-2.68c0,.71.32,1.06.86,1.06a.69.69,0,0,0,.76-.58Zm-1.05-1.06c-.06-.54-.34-.81-.8-.81s-.74.27-.8.81Z" transform="translate(-41.32 -27.47)" fill="#fff"/><path d="M226.86,268a.7.7,0,0,0,.78.63c.36,0,.61-.16.61-.43s-.43-.38-1.16-.58c-.52-.15-1.15-.38-1.15-1.14s.8-1.16,1.59-1.16,1.57.39,1.63,1.22h-1.06a.54.54,0,0,0-.6-.49c-.28,0-.49.13-.49.36s.49.37,1.16.56,1.14.42,1.14,1.16c0,.92-.86,1.23-1.69,1.23-1,0-1.75-.44-1.82-1.35Z" transform="translate(-41.32 -27.47)" fill="#fff"/><path d="M176,314.08h1.73a2.42,2.42,0,1,1,0,4.85H176Zm1.71,3.94c1.09,0,1.34-.78,1.34-1.52s-.25-1.52-1.34-1.52h-.61v3Z" transform="translate(-41.32 -27.47)" fill="#fff"/><path d="M181.15,313.17h1.13v1h-1.13Zm0,1.88h1.08v3.86h-1.08Z" transform="translate(-41.32 -27.47)" fill="#fff"/><path d="M184.16,317.66a.7.7,0,0,0,.78.63c.36,0,.61-.16.61-.43s-.43-.38-1.15-.58c-.52-.15-1.15-.38-1.15-1.14s.8-1.16,1.59-1.16,1.57.39,1.63,1.22h-1.06a.54.54,0,0,0-.6-.49c-.28,0-.5.13-.5.36s.5.37,1.16.56,1.14.42,1.14,1.16c0,.92-.86,1.23-1.69,1.23-1,0-1.75-.44-1.82-1.35Z" transform="translate(-41.32 -27.47)" fill="#fff"/><path d="M190.94,317.49a1.59,1.59,0,0,1-1.76,1.52,2,2,0,0,1,0-4,1.59,1.59,0,0,1,1.76,1.52h-1.06a.65.65,0,0,0-.71-.64c-.55,0-.82.4-.82,1.14s.27,1.15.82,1.15a.65.65,0,0,0,.71-.64Z" transform="translate(-41.32 -27.47)" fill="#fff"/><path d="M191.56,317a1.95,1.95,0,1,1,1.95,2A1.81,1.81,0,0,1,191.56,317Zm2.8,0c0-.76-.3-1.14-.85-1.14s-.85.37-.85,1.14.3,1.15.85,1.15S194.36,317.74,194.36,317Z" transform="translate(-41.32 -27.47)" fill="#fff"/><path d="M195.84,315.06H197l.86,2.75.86-2.75h1.05l-1.36,3.86h-1.2Z" transform="translate(-41.32 -27.47)" fill="#fff"/><path d="M203.88,317.62A1.68,1.68,0,0,1,202,319a2,2,0,0,1,0-4,1.77,1.77,0,0,1,1.87,2v.16h-2.68c0,.71.32,1.06.86,1.06a.69.69,0,0,0,.76-.58Zm-1.05-1.06c-.06-.54-.34-.81-.8-.81s-.74.27-.8.81Z" transform="translate(-41.32 -27.47)" fill="#fff"/><path d="M204.74,315.06h1v.53a1.08,1.08,0,0,1,1-.62,1,1,0,0,1,.46.09V316a1.3,1.3,0,0,0-.56-.11,1,1,0,0,0-.8.31v2.74h-1.08Z" transform="translate(-41.32 -27.47)" fill="#fff"/><path d="M209.78,314.08h1.1V316h2v-1.89h1.1v4.85h-1.1v-2h-2v2h-1.1Z" transform="translate(-41.32 -27.47)" fill="#fff"/><path d="M214.93,317a1.95,1.95,0,1,1,1.94,2A1.81,1.81,0,0,1,214.93,317Zm2.8,0c0-.76-.3-1.14-.85-1.14s-.85.37-.85,1.14.3,1.15.85,1.15S217.72,317.74,217.72,317Z" transform="translate(-41.32 -27.47)" fill="#fff"/><path d="M219.27,315.06h1.08l.69,2.76.69-2.76h1.11l.69,2.76.69-2.76h1l-1.17,3.86h-1.15l-.68-2.61-.68,2.61h-1.14Z" transform="translate(-41.32 -27.47)" fill="#fff"/><path d="M228.57,315h-1.4v-.95h3.9V315h-1.4v3.9h-1.1Z" transform="translate(-41.32 -27.47)" fill="#fff"/><path d="M231.38,317a1.95,1.95,0,1,1,1.94,2A1.81,1.81,0,0,1,231.38,317Zm2.8,0c0-.76-.3-1.14-.85-1.14s-.85.37-.85,1.14.3,1.15.85,1.15S234.17,317.74,234.17,317Z" transform="translate(-41.32 -27.47)" fill="#fff"/><path d="M238.13,314.08h1.35l1.12,2.2,1.13-2.2H243v4.85H242v-3.41l-1.08,2.12h-.61l-1.09-2.12v3.41h-1.05Z" transform="translate(-41.32 -27.47)" fill="#fff"/><path d="M246.56,318.4a1.69,1.69,0,0,1-1.36.61c-.68,0-1.24-.32-1.24-1.09,0-1,.9-1.15,1.58-1.2l.83-.07v-.09c0-.5-.08-.8-.62-.8s-.63.23-.63.63h-1c0-1.17.95-1.43,1.75-1.43,1.2,0,1.58.57,1.58,1.5V318c0,.15.05.23.21.23a.68.68,0,0,0,.3-.08v.73a1.39,1.39,0,0,1-.69.17c-.58,0-.7-.3-.7-.56Zm-.19-1.16-.62.07c-.48.05-.73.2-.73.54s.16.43.52.43a1.27,1.27,0,0,0,.82-.31Z" transform="translate(-41.32 -27.47)" fill="#fff"/><path d="M248.61,313.17h1.08v3.51l1.43-1.62h1.19l-1.4,1.5,1.42,2.36h-1.24l-.91-1.64-.49.53v1.11h-1.08Z" transform="translate(-41.32 -27.47)" fill="#fff"/><path d="M256.38,317.62a1.68,1.68,0,0,1-1.83,1.39,2,2,0,0,1,0-4,1.77,1.77,0,0,1,1.87,2v.16h-2.68c0,.71.32,1.06.86,1.06a.69.69,0,0,0,.76-.58Zm-1.05-1.06c-.06-.54-.34-.81-.8-.81s-.74.27-.8.81Z" transform="translate(-41.32 -27.47)" fill="#fff"/><path d="M263.45,317.17a2,2,0,0,1-2.17,1.84c-1.48,0-2.26-1-2.26-2.51s.77-2.51,2.26-2.51a2,2,0,0,1,2.17,1.84h-1.12a.94.94,0,0,0-1-.89c-.91,0-1.14.79-1.14,1.55s.23,1.55,1.14,1.55a.94.94,0,0,0,1-.89Z" transform="translate(-41.32 -27.47)" fill="#fff"/><path d="M264.14,317a1.95,1.95,0,1,1,1.94,2A1.81,1.81,0,0,1,264.14,317Zm2.8,0c0-.76-.3-1.14-.85-1.14s-.85.37-.85,1.14.3,1.15.85,1.15S266.94,317.74,266.94,317Z" transform="translate(-41.32 -27.47)" fill="#fff"/><path d="M268.86,315.06h1.08v2.19c0,.55.12.84.63.84a1,1,0,0,0,.72-.29v-2.74h1.08v3.86h-.95v-.51a1.38,1.38,0,0,1-1.24.6c-.64,0-1.31-.27-1.31-1.56Z" transform="translate(-41.32 -27.47)" fill="#fff"/><path d="M273.44,315.06h1v.53a1.08,1.08,0,0,1,1-.62,1,1,0,0,1,.46.09V316a1.3,1.3,0,0,0-.56-.11,1,1,0,0,0-.8.31v2.74h-1.08Z" transform="translate(-41.32 -27.47)" fill="#fff"/><path d="M277.26,317.66a.7.7,0,0,0,.78.63c.36,0,.61-.16.61-.43s-.43-.38-1.16-.58c-.52-.15-1.15-.38-1.15-1.14s.8-1.16,1.59-1.16,1.57.39,1.63,1.22h-1.06a.54.54,0,0,0-.6-.49c-.28,0-.49.13-.49.36s.49.37,1.16.56,1.14.42,1.14,1.16c0,.92-.86,1.23-1.69,1.23-1,0-1.75-.44-1.82-1.35Z" transform="translate(-41.32 -27.47)" fill="#fff"/><path d="M284.08,317.62a1.68,1.68,0,0,1-1.83,1.39,2,2,0,0,1,0-4,1.77,1.77,0,0,1,1.87,2v.16h-2.68c0,.71.32,1.06.86,1.06a.69.69,0,0,0,.76-.58ZM283,316.56c-.06-.54-.34-.81-.8-.81s-.74.27-.8.81Z" transform="translate(-41.32 -27.47)" fill="#fff"/><path d="M285.76,317.66a.7.7,0,0,0,.78.63c.36,0,.61-.16.61-.43s-.43-.38-1.16-.58c-.52-.15-1.15-.38-1.15-1.14s.8-1.16,1.59-1.16,1.57.39,1.63,1.22H287a.54.54,0,0,0-.6-.49c-.28,0-.49.13-.49.36s.49.37,1.16.56,1.14.42,1.14,1.16c0,.92-.86,1.23-1.69,1.23-1,0-1.75-.44-1.82-1.35Z" transform="translate(-41.32 -27.47)" fill="#fff"/><path d="M176,326h2c1.17,0,1.81.5,1.81,1.35a1,1,0,0,1-.62,1,1.06,1.06,0,0,1,.82,1.1c0,.89-.65,1.41-1.88,1.41H176Zm1.9,2c.63,0,.78-.22.78-.55s-.16-.55-.78-.55h-.8v1.09Zm.11,2c.69,0,.87-.23.87-.6s-.17-.6-.87-.6h-.91V330Z" transform="translate(-41.32 -27.47)" fill="#fff"/><path d="M184.42,329.52a1.68,1.68,0,0,1-1.83,1.39,2,2,0,0,1,0-4,1.77,1.77,0,0,1,1.87,2V329h-2.68c0,.71.32,1.06.86,1.06a.69.69,0,0,0,.76-.58Zm-1.05-1.06c-.06-.54-.34-.81-.8-.81s-.74.27-.8.81Z" transform="translate(-41.32 -27.47)" fill="#fff"/><path d="M186.1,329.56a.7.7,0,0,0,.78.63c.36,0,.61-.16.61-.43s-.43-.38-1.15-.58c-.52-.15-1.15-.38-1.15-1.14s.8-1.16,1.59-1.16,1.57.39,1.63,1.22h-1.06a.54.54,0,0,0-.6-.5c-.28,0-.5.13-.5.36s.5.37,1.16.56,1.14.42,1.14,1.16c0,.92-.86,1.23-1.69,1.23-1,0-1.75-.44-1.82-1.35Z" transform="translate(-41.32 -27.47)" fill="#fff"/><path d="M189.47,327.76h-.56V327h.35c.32,0,.43-.12.43-.43v-.7h.85V327h1.14v.8h-1.14v1.71c0,.38.11.58.56.58a1.66,1.66,0,0,0,.52-.09v.82a2.25,2.25,0,0,1-.8.13c-1,0-1.35-.56-1.35-1.32Z" transform="translate(-41.32 -27.47)" fill="#fff"/><path d="M188.45,436.41h-.56v-.8h.56V435a1.19,1.19,0,0,1,1.3-1.33,1.33,1.33,0,0,1,.53.09v.82a1.12,1.12,0,0,0-.3,0c-.35,0-.45.2-.45.52v.58h.76v.8h-.76v3.07h-1.08Z" transform="translate(-41.32 -27.47)" fill="#fff"/><rect x="297.31" y="102.81" width="12.07" height="2.22" fill="#fff"/><path d="M335.5,219" transform="translate(-41.32 -27.47)" fill="#e34e2f"/><path d="M347.39,102.46c0,.33.19.53.65.53a1.58,1.58,0,0,0,1-.39v-.9l-.77.09C347.7,101.86,347.39,102,347.39,102.46Z" transform="translate(-41.32 -27.47)" fill="#fff"/><path d="M372.82,100.79c0-.92-.31-1.89-1.66-1.89h-.76v3.78h.76C372.51,102.68,372.82,101.71,372.82,100.79Z" transform="translate(-41.32 -27.47)" fill="#fff"/><path d="M387.74,102.82c.69,0,1.06-.49,1.06-1.43s-.37-1.41-1.06-1.41-1.06.46-1.06,1.41S387,102.82,387.74,102.82Z" transform="translate(-41.32 -27.47)" fill="#fff"/><path d="M399.05,99.86c-.57,0-.92.33-1,1h2C400,100.2,399.62,99.86,399.05,99.86Z" transform="translate(-41.32 -27.47)" fill="#fff"/><path d="M415.52,105.21c.84,0,1.33-.21,1.33-.65s-.24-.45-.8-.45h-1.52a.51.51,0,0,0-.3.48C414.23,105,414.6,105.21,415.52,105.21Z" transform="translate(-41.32 -27.47)" fill="#fff"/><path d="M343,99.86c-.57,0-.92.33-1,1h2C343.92,100.2,343.58,99.86,343,99.86Z" transform="translate(-41.32 -27.47)" fill="#fff"/><path d="M393.43,102.81a1.27,1.27,0,0,0,.87-.32v-2.17a1.28,1.28,0,0,0-.87-.32c-.72,0-1.09.5-1.09,1.4S392.71,102.81,393.43,102.81Z" transform="translate(-41.32 -27.47)" fill="#fff"/><path d="M415.47,101.47a.82.82,0,1,0-.87-.82A.78.78,0,0,0,415.47,101.47Z" transform="translate(-41.32 -27.47)" fill="#fff"/><path d="M329.84,90.82V374.09h109V90.82Zm83.45,12.12a1.07,1.07,0,0,1,.77-.94,1.58,1.58,0,0,1-.71-1.35,1.91,1.91,0,0,1,2.12-1.76,2.43,2.43,0,0,1,1.65.6,1.4,1.4,0,0,1,1.27-.6v1.17a2,2,0,0,0-.86.13,2,2,0,0,1,.06.46,1.91,1.91,0,0,1-2.12,1.76,3,3,0,0,1-.85-.13.46.46,0,0,0-.28.38c0,.23.24.38.72.38h1.23c1,0,1.82.37,1.82,1.35s-1,1.66-2.63,1.66-2.39-.52-2.39-1.29a1.06,1.06,0,0,1,.81-1A.94.94,0,0,1,413.29,102.94ZM407.8,99H409v.63a1.74,1.74,0,0,1,1.57-.73c.8,0,1.65.33,1.65,1.94v3h-1.34v-2.73c0-.68-.16-1-.81-1a1.24,1.24,0,0,0-.92.36v3.41H407.8Zm-2.72-2.34h1.4v1.19h-1.4ZM406.45,99v4.81h-1.34V99Zm-4-2.34h1.34v7.15h-1.34Zm-3.37,2.23a2.2,2.2,0,0,1,2.32,2.51v.19H398c0,.89.4,1.32,1.07,1.32a.86.86,0,0,0,1-.72h1.3a2.09,2.09,0,0,1-2.28,1.73,2.52,2.52,0,0,1,0-5Zm-6,0a1.57,1.57,0,0,1,1.27.56v-2.8h1.34v7.15h-1.19v-.57a1.64,1.64,0,0,1-1.43.68c-1,0-2.05-.68-2.05-2.49S392,98.89,393,98.89Zm-5.29,0a2.51,2.51,0,1,1-2.42,2.51A2.25,2.25,0,0,1,387.74,98.89ZM378,97.78h1.68l1.39,2.73,1.4-2.73h1.59v6h-1.31V99.56l-1.35,2.63h-.76l-1.35-2.63v4.24H378Zm-9,0h2.15a3,3,0,1,1,0,6H369Zm-3.63,3.47h-.53v-1h.53c.6,0,1-.27,1-.8a.76.76,0,0,0-.85-.8.87.87,0,0,0-.93,1h-1.26a2,2,0,0,1,2.22-2c1.33,0,2.13.73,2.13,1.73a1.45,1.45,0,0,1-.81,1.35,1.45,1.45,0,0,1,.93,1.41c0,1-.82,1.75-2.21,1.75s-2.31-.71-2.31-2h1.26a.91.91,0,0,0,1,1c.54,0,1-.28,1-.82S366.07,101.24,365.4,101.24Zm-5.31,22.55h19.77v.85H360.09Zm0,6.88h16.64v1.57H360.09ZM355.64,99h1.19v.63a1.74,1.74,0,0,1,1.57-.73c.8,0,1.65.33,1.65,1.94v3h-1.34v-2.73c0-.68-.16-1-.81-1a1.24,1.24,0,0,0-.92.36v3.41h-1.34Zm-3.79,0H353v.66a1.34,1.34,0,0,1,1.26-.77,1.25,1.25,0,0,1,.57.11v1.14a1.6,1.6,0,0,0-.69-.14,1.2,1.2,0,0,0-1,.39v3.41h-1.34Zm-3.55.89c-.58,0-.78.28-.79.79h-1.25c0-1.46,1.18-1.78,2.17-1.78,1.49,0,2,.71,2,1.87v1.86c0,.18.06.28.26.28a.85.85,0,0,0,.38-.1v.91a1.74,1.74,0,0,1-.85.21c-.72,0-.87-.38-.87-.7v-.05a2.1,2.1,0,0,1-1.7.76c-.84,0-1.54-.4-1.54-1.35,0-1.2,1.12-1.43,2-1.49l1-.09v-.11C349.06,100.26,349,99.88,348.3,99.88Zm-5.29-1a2.2,2.2,0,0,1,2.32,2.51v.19H342c0,.89.4,1.32,1.07,1.32a.86.86,0,0,0,1-.72h1.3a2.09,2.09,0,0,1-2.28,1.73,2.52,2.52,0,0,1,0-5Zm-7-1.11h1.37v4.85h2.68v1.18h-4Zm-.55,19.52H354v18.79H335.5Zm0,35.42h49.58v1.57H335.5Zm0,8.68h92v.85h-92Zm0,8.43h90.29v.85H335.5Zm0,8.43h65.24v.85H335.5Zm0,8.43h92v.85h-92Zm0,8.43h97.2V196H335.5Zm0,8.43h45.14v.85H335.5Zm0,15.51h98.38v23.22H335.5Zm0,26.14h98.38v23.22H335.5Zm0,26.14h98.38v23.22H335.5Zm0,26.14h98.38v14.87H335.5Zm61.35,27v6.65h-18.3v-6.76Zm-19.57,0v6.65H359v-6.76Zm-41.78,0h22.31v6.65H335.5Zm0,7.73h19.18v6.65H335.5Zm5.92,34H335.5v-6h5.92Zm9.05,0h-5.92v-6h5.92Zm5.28-19.64H335.5V340h20.26Zm23.88-7.73H355.75v-6.65h23.88Zm17.91,0H380.9v-6.65h16.64Zm.59-14.49,18.3.11v6.65h-18.3Zm.83,7.84h22.46v6.65H399Zm35,35.58h-18.4v-1.57h18.4Z" transform="translate(-41.32 -27.47)" fill="#fff"/><rect x="8.54" y="119.59" width="12.07" height="2.22" fill="#fff"/><path d="M60.46,118.18c0,.91.37,1.41,1.09,1.41a1.27,1.27,0,0,0,.87-.32V117.1a1.28,1.28,0,0,0-.87-.32C60.83,116.77,60.46,117.27,60.46,118.18Z" transform="translate(-41.32 -27.47)" fill="#fff"/><path d="M102.27,108.42c-.57,0-.92.33-1,1h2C103.19,108.76,102.85,108.42,102.27,108.42Z" transform="translate(-41.32 -27.47)" fill="#fff"/><path d="M55.86,116.76c-.69,0-1.06.46-1.06,1.41s.37,1.43,1.06,1.43,1.06-.49,1.06-1.43S56.55,116.76,55.86,116.76Z" transform="translate(-41.32 -27.47)" fill="#fff"/><path d="M68.17,100.2c-.57,0-.92.33-1,1h2C69.09,100.54,68.74,100.2,68.17,100.2Z" transform="translate(-41.32 -27.47)" fill="#fff"/><path d="M55.84,111c0,.33.19.53.65.53a1.58,1.58,0,0,0,1-.39v-.9l-.77.09C56.16,110.42,55.84,110.6,55.84,111Z" transform="translate(-41.32 -27.47)" fill="#fff"/><path d="M67.17,116.64c-.57,0-.92.33-1,1h2C68.08,117,67.74,116.64,67.17,116.64Z" transform="translate(-41.32 -27.47)" fill="#fff"/><path d="M41.32,90.82V396.51h109V90.82Zm61,16.63A2.2,2.2,0,0,1,104.6,110v.19h-3.34c0,.89.4,1.32,1.07,1.32a.86.86,0,0,0,1-.72h1.3a2.09,2.09,0,0,1-2.28,1.73,2.52,2.52,0,0,1,0-5Zm-4.74-2.23h1.34v7.15H97.53Zm-5.75,0h1.34V108a1.74,1.74,0,0,1,1.3-.55c1,0,2,.68,2,2.49s-1,2.53-2.05,2.53a1.64,1.64,0,0,1-1.43-.68v.57H91.79Zm-20.46,36.2v-.85H91.09v.85Zm16.64,6V149H71.32v-1.57Zm-10-35.09v-4.81h1.34v4.81Zm10.31-3.92c-.58,0-.78.28-.79.79H86.19c0-1.46,1.18-1.78,2.17-1.78,1.49,0,2,.71,2,1.87v1.86c0,.18.06.28.26.28a.86.86,0,0,0,.38-.1v.91a1.74,1.74,0,0,1-.85.21c-.72,0-.87-.38-.87-.7v-.05a2.1,2.1,0,0,1-1.7.76c-.84,0-1.54-.4-1.54-1.35,0-1.2,1.12-1.43,2-1.49l1-.09v-.11C89,108.82,88.9,108.44,88.23,108.44Zm-7.62-.89H81.8v.63a1.74,1.74,0,0,1,1.57-.73c.8,0,1.65.33,1.65,1.94v3H83.68v-2.73c0-.68-.16-1-.81-1A1.24,1.24,0,0,0,82,109v3.41H80.62Zm-2.72-2.34h1.4v1.19h-1.4Zm-3.53,3.23c-.58,0-.78.28-.79.79H72.32c0-1.46,1.18-1.78,2.17-1.78,1.49,0,2,.71,2,1.87v1.86c0,.18.06.28.26.28a.86.86,0,0,0,.38-.1v.91a1.74,1.74,0,0,1-.85.21c-.72,0-.87-.38-.87-.7v-.05a2.1,2.1,0,0,1-1.7.76c-.84,0-1.54-.4-1.54-1.35,0-1.2,1.12-1.43,2-1.49l1-.09v-.11C75.13,108.82,75,108.44,74.36,108.44Zm-2.83.11H70.12v2.13c0,.48.14.72.69.72a2.06,2.06,0,0,0,.65-.11v1a2.78,2.78,0,0,1-1,.16c-1.29,0-1.68-.69-1.68-1.64v-2.28h-.69v-1h.43c.4,0,.54-.15.54-.54v-.87h1.06v1.41h1.42Zm-4.31,11.14a.86.86,0,0,0,1-.72h1.3a2.09,2.09,0,0,1-2.28,1.73,2.52,2.52,0,0,1,0-5,2.2,2.2,0,0,1,2.32,2.51v.19H66.15C66.17,119.26,66.55,119.69,67.22,119.69Zm1-20.46a2.2,2.2,0,0,1,2.32,2.51v.19H67.16c0,.89.4,1.32,1.07,1.32a.86.86,0,0,0,1-.72h1.3a2.09,2.09,0,0,1-2.28,1.73,2.52,2.52,0,0,1,0-5Zm-.76,10.16v3H66.07v-2.73c0-.68-.16-1-.81-1a1.24,1.24,0,0,0-.92.36v3.41H63v-4.81H64.2v.63a1.74,1.74,0,0,1,1.57-.73C66.56,107.45,67.41,107.79,67.41,109.39Zm-6.26,11.3c-1,0-2.05-.68-2.05-2.49s1-2.53,2.05-2.53a1.57,1.57,0,0,1,1.27.56v-2.8h1.34v7.15H62.58V120A1.64,1.64,0,0,1,61.15,120.69Zm-1.43-16.55V99.34h1.34v4.81Zm.59,8.22v-4.81h1.34v4.81Zm1.48-13h.43c.4,0,.54-.15.54-.54v-.87h1.06v1.41h1.41v1H63.83v2.13c0,.48.14.72.69.72a2.06,2.06,0,0,0,.65-.11v1a2.78,2.78,0,0,1-1,.16c-1.29,0-1.68-.69-1.68-1.64v-2.28H61.8Zm-.11,7.06h-1.4v-1.19h1.4Zm-2-9.41h1.4v1.19h-1.4Zm-3.77,2.34h1.19V100a1.34,1.34,0,0,1,1.26-.77,1.25,1.25,0,0,1,.57.11v1.14a1.6,1.6,0,0,0-.69-.14,1.2,1.2,0,0,0-1,.39v3.41H55.92Zm1,8.11c1.49,0,2,.71,2,1.87v1.86c0,.18.06.28.26.28a.85.85,0,0,0,.38-.1v.91a1.74,1.74,0,0,1-.85.21c-.72,0-.87-.38-.87-.7v-.05a2.1,2.1,0,0,1-1.7.76c-.84,0-1.54-.4-1.54-1.35,0-1.2,1.12-1.43,2-1.49l1-.09v-.11c0-.62-.1-1-.77-1s-.78.28-.79.79H54.71C54.74,107.78,55.89,107.45,56.88,107.45Zm1.39,10.73a2.42,2.42,0,1,1-2.42-2.51A2.26,2.26,0,0,1,58.27,118.18ZM48.07,98.12l1.08,4.31,1.11-4.31h1.36l1.12,4.31,1.07-4.31h1.27l-1.64,6H52.07l-1.16-4.37-1.16,4.37H48.39l-1.64-6Zm1.83,21.39a1.17,1.17,0,0,0,1.28-1.1h1.39a2.45,2.45,0,0,1-2.7,2.29c-1.85,0-2.81-1.24-2.81-3.12s1-3.12,2.81-3.12a2.45,2.45,0,0,1,2.7,2.29H51.18a1.17,1.17,0,0,0-1.28-1.1c-1.13,0-1.42,1-1.42,1.93S48.76,119.5,49.89,119.5ZM52,112.36v-4.24l-1.35,2.63h-.76l-1.35-2.63v4.24H47.28v-6H49l1.39,2.73,1.4-2.73h1.59v6Zm-5.31,21.72H65.26v18.79H46.73Zm0,35.42H96.31v1.57H46.73Zm0,8.68h92V179h-92Zm0,8.43H137v.85H46.73Zm0,8.43H112v.85H46.73Zm0,8.43h92v.85h-92Zm0,8.43h97.2v.85H46.73Zm0,8.43H91.87v.85H46.73Zm0,14.89h98.38V250.1H46.73Zm0,17.65h98.38V276.1H46.73Zm0,25.73h98.38v14.87H46.73Zm0,17.38h98.38v14.87H46.73Zm0,17.3h98.38v14.87H46.73Zm27.45,42.28v6.65H46.83v-6.65ZM73,347.83v6.65H46.83v-6.65ZM63,340.1v6.65H46.83V340.1Zm1.76,6.65V340l27.5.11v6.65Zm9.44,1.08h35.77v6.65H74.18Zm19.91-1.08V340l25.74.11v6.65Zm17,1.08h16.64v6.65H111.12ZM52.65,389.16H46.73v-6h5.92Zm9.05,0H55.78v-6H61.7Zm21.23-19.31H46.83v-6.65H82.94Zm10-7.63H75.6v-6.65H92.92Zm28.48,0H94.09v-6.65h27.3Zm23.78,28.51h-18.4v-1.57h18.4Z" transform="translate(-41.32 -27.47)" fill="#fff"/><path d="M87.32,111c0,.33.19.53.65.53a1.58,1.58,0,0,0,1-.39v-.9l-.77.09C87.64,110.42,87.32,110.6,87.32,111Z" transform="translate(-41.32 -27.47)" fill="#fff"/><path d="M95.09,110c0-.91-.37-1.41-1.09-1.41a1.28,1.28,0,0,0-.87.32V111a1.28,1.28,0,0,0,.87.32C94.72,111.37,95.09,110.87,95.09,110Z" transform="translate(-41.32 -27.47)" fill="#fff"/><path d="M73.45,111c0,.33.19.53.65.53a1.58,1.58,0,0,0,1-.39v-.9l-.77.09C73.77,110.42,73.45,110.6,73.45,111Z" transform="translate(-41.32 -27.47)" fill="#fff"/></g></svg>