<svg xmlns="http://www.w3.org/2000/svg" viewBox="0 0 326.99 399.65"><title>augmenting masterpieces_frame dikke lijn_wit</title><g id="Layer_1" data-name="Layer 1"><polygon points="184.36 120.79 202.09 109.77 203.6 113.23 190.2 123.6 184.36 120.79" fill="#fff"/><polygon points="192.58 125.98 192.14 183.49 206.63 236.03 251.38 167.93 205.55 115.39 192.58 125.98" fill="#fff"/><polygon points="206.41 110.2 253.11 117.55 259.38 167.49 253.11 165.76 208.14 113.23 206.41 110.2" fill="#fff"/><polygon points="253.98 170.09 260.03 172.03 254.84 297.21 235.82 294.84 208.36 239.27 253.98 170.09" fill="#fff"/><polygon points="207.06 245.76 232.14 295.92 208.79 306.94 196.25 296.35 207.06 245.76" fill="#fff"/><polygon points="189.98 189.76 204.25 239.92 193.01 295.92 180.25 305.86 162.74 269.32 189.98 189.76" fill="#fff"/><polygon points="147.39 246.19 158.2 268.03 153.44 295.92 146.74 279.92 147.39 246.19" fill="#fff"/><path d="M239.28,314.76l17.3,34.16-4.11,7.13s-18.38-13.19-18.16-13.84S239.28,314.76,239.28,314.76Z" transform="translate(-78.7 -40.68)" fill="#fff"/><polygon points="181.55 309.32 194.52 299.59 205.98 309.75 193.87 326.83 176.79 317.32 181.55 309.32" fill="#fff"/><polygon points="196.9 328.78 219.38 340.24 253.11 300.89 234.74 298.3 209.22 311.27 196.9 328.78" fill="#fff"/><path d="M259.39,163.85l-20.32,17.51L226.31,278l13.4,27.24,27.67-80.86.43-56.64Zm-6.7,35.46c-1.19,0-2.16-2.52-2.16-5.62s1-5.62,2.16-5.62,2.16,2.52,2.16,5.62S253.88,199.31,252.68,199.31Z" transform="translate(-78.7 -40.68)" fill="#fff"/><rect x="74.74" y="115.73" width="333.79" height="249.49" transform="translate(-77.54 441.44) rotate(-90)" fill="none" stroke="#fff" stroke-linecap="round" stroke-linejoin="round" stroke-width="3"/><path d="M109.53,404s-19.9,2.35-20.6,11.13c-.6,7.51,8,6.31,8,6.31s-3.48,6.77,3,9,16.93-9.87,16.93-16.78" transform="translate(-78.7 -40.68)" fill="none" stroke="#fff" stroke-linecap="round" stroke-linejoin="round" stroke-width="3"/><path d="M88.89,381.46c-6.85,3.89-15,16.69-1.08,25.2,9.41,5.75,37.19-15.24,15-79.94s3.58-81.8,14.1-83.67" transform="translate(-78.7 -40.68)" fill="none" stroke="#fff" stroke-linecap="round" stroke-linejoin="round" stroke-width="3"/><path d="M96.7,377.85s12.2-2.23,2.84-39.5-8.1-86.23,17.35-87.35" transform="translate(-78.7 -40.68)" fill="none" stroke="#fff" stroke-linecap="round" stroke-linejoin="round" stroke-width="3"/><path d="M142.93,431.41c-4.56,5.85-19.56,12.8-29.53.92-6.74-8,29.92-31.79,79.26-15.14,34.08,11.5,44-.71,46.17-9.68" transform="translate(-78.7 -40.68)" fill="none" stroke="#fff" stroke-linecap="round" stroke-linejoin="round" stroke-width="3"/><path d="M147.17,424.74s3.54-11.23,38-3.92c18.21,3.86,40.91,6.43,46.12-12.24" transform="translate(-78.7 -40.68)" fill="none" stroke="#fff" stroke-linecap="round" stroke-linejoin="round" stroke-width="3"/><path d="M104.09,246.93s-8.91,13.72-12.6,10,0-10,0-10-5.87.05-6.08-3.87,2.39-7.26,5-6.7-7.13-6.16-1.93-8.75c7-3.49,14.08,4.21,17.08,8.19" transform="translate(-78.7 -40.68)" fill="none" stroke="#fff" stroke-linecap="round" stroke-linejoin="round" stroke-width="3"/><path d="M379.18,235.15s8.91-13.72,12.6-10,0,10,0,10,5.87-.05,6.08,3.87-2.39,7.26-5,6.7,7.13,6.16,1.93,8.75c-7,3.49-14.08-4.21-17.08-8.19" transform="translate(-78.7 -40.68)" fill="none" stroke="#fff" stroke-linecap="round" stroke-linejoin="round" stroke-width="3"/><path d="M248.54,417.38s16.08,7.6,11.73,10.76-11.73,0-11.73,0,.06,5-4.53,5.19-8.51-2-7.85-4.27-7.21,6.08-10.25,1.65c-4.09-6,4.93-12,9.6-14.57" transform="translate(-78.7 -40.68)" fill="none" stroke="#fff" stroke-linecap="round" stroke-linejoin="round" stroke-width="3"/><path d="M237.34,63.62S221.26,56,225.61,52.86s11.73,0,11.73,0-.06-5,4.53-5.19,8.51,2,7.85,4.27,7.21-6.08,10.25-1.65c4.09,6-4.93,12-9.6,14.57" transform="translate(-78.7 -40.68)" fill="none" stroke="#fff" stroke-linecap="round" stroke-linejoin="round" stroke-width="3"/><path d="M91.49,388.7c-1,.83-4.87,3.62-2.6,7.23s11.71,3.89,14-15" transform="translate(-78.7 -40.68)" fill="none" stroke="#fff" stroke-linecap="round" stroke-linejoin="round" stroke-width="3"/><path d="M135.09,428.2c-1,.83-4.24,4.16-8.47,2.22s-4.56-10,17.6-11.95" transform="translate(-78.7 -40.68)" fill="none" stroke="#fff" stroke-linecap="round" stroke-linejoin="round" stroke-width="3"/><path d="M109.53,76s-19.9-2.35-20.6-11.13c-.6-7.51,8-6.31,8-6.31s-3.48-6.77,3-9,16.93,9.87,16.93,16.78" transform="translate(-78.7 -40.68)" fill="none" stroke="#fff" stroke-linecap="round" stroke-linejoin="round" stroke-width="3"/><path d="M88.89,98.54c-6.85-3.89-15-16.69-1.08-25.2,9.41-5.75,37.19,15.24,15,79.94s3.58,81.8,14.1,83.67" transform="translate(-78.7 -40.68)" fill="none" stroke="#fff" stroke-linecap="round" stroke-linejoin="round" stroke-width="3"/><path d="M96.7,102.15s12.2,2.23,2.84,39.5-8.1,86.23,17.35,87.35" transform="translate(-78.7 -40.68)" fill="none" stroke="#fff" stroke-linecap="round" stroke-linejoin="round" stroke-width="3"/><path d="M142.93,49.59c-4.56-5.85-19.56-12.8-29.53-.92-6.74,8,29.92,31.79,79.26,15.14,34.08-11.5,44,.71,46.17,9.68" transform="translate(-78.7 -40.68)" fill="none" stroke="#fff" stroke-linecap="round" stroke-linejoin="round" stroke-width="3"/><path d="M147.17,56.26s3.54,11.23,38,3.92c18.21-3.86,40.91-6.43,46.12,12.24" transform="translate(-78.7 -40.68)" fill="none" stroke="#fff" stroke-linecap="round" stroke-linejoin="round" stroke-width="3"/><path d="M91.49,91.3c-1-.83-4.87-3.62-2.6-7.23s11.71-3.89,14,15" transform="translate(-78.7 -40.68)" fill="none" stroke="#fff" stroke-linecap="round" stroke-linejoin="round" stroke-width="3"/><path d="M135.09,52.8c-1-.83-4.24-4.16-8.47-2.22s-4.56,10,17.6,11.95" transform="translate(-78.7 -40.68)" fill="none" stroke="#fff" stroke-linecap="round" stroke-linejoin="round" stroke-width="3"/><path d="M374.86,404s19.9,2.35,20.6,11.13c.6,7.51-8,6.31-8,6.31s3.48,6.77-3,9-16.93-9.87-16.93-16.78" transform="translate(-78.7 -40.68)" fill="none" stroke="#fff" stroke-linecap="round" stroke-linejoin="round" stroke-width="3"/><path d="M395.5,381.46c6.85,3.89,15,16.69,1.08,25.2-9.41,5.75-37.19-15.24-15-79.94s-3.58-81.8-14.1-83.67" transform="translate(-78.7 -40.68)" fill="none" stroke="#fff" stroke-linecap="round" stroke-linejoin="round" stroke-width="3"/><path d="M387.69,377.85s-12.2-2.23-2.84-39.5,8.1-86.23-17.35-87.35" transform="translate(-78.7 -40.68)" fill="none" stroke="#fff" stroke-linecap="round" stroke-linejoin="round" stroke-width="3"/><path d="M341.46,431.41c4.56,5.85,19.56,12.8,29.53.92,6.74-8-29.92-31.79-79.26-15.14-34.08,11.5-44-.71-46.17-9.68" transform="translate(-78.7 -40.68)" fill="none" stroke="#fff" stroke-linecap="round" stroke-linejoin="round" stroke-width="3"/><path d="M337.22,424.74s-3.54-11.23-38-3.92c-18.21,3.86-40.91,6.43-46.12-12.24" transform="translate(-78.7 -40.68)" fill="none" stroke="#fff" stroke-linecap="round" stroke-linejoin="round" stroke-width="3"/><path d="M392.9,388.7c1,.83,4.87,3.62,2.6,7.23s-11.71,3.89-14-15" transform="translate(-78.7 -40.68)" fill="none" stroke="#fff" stroke-linecap="round" stroke-linejoin="round" stroke-width="3"/><path d="M349.3,428.2c1,.83,4.24,4.16,8.47,2.22s4.56-10-17.6-11.95" transform="translate(-78.7 -40.68)" fill="none" stroke="#fff" stroke-linecap="round" stroke-linejoin="round" stroke-width="3"/><path d="M374.86,76s19.9-2.35,20.6-11.13c.6-7.51-8-6.31-8-6.31s3.48-6.77-3-9S367.5,59.45,367.5,66.36" transform="translate(-78.7 -40.68)" fill="none" stroke="#fff" stroke-linecap="round" stroke-linejoin="round" stroke-width="3"/><path d="M395.5,98.54c6.85-3.89,15-16.69,1.08-25.2-9.41-5.75-37.19,15.24-15,79.94s-3.58,81.8-14.1,83.67" transform="translate(-78.7 -40.68)" fill="none" stroke="#fff" stroke-linecap="round" stroke-linejoin="round" stroke-width="3"/><path d="M387.69,102.15s-12.2,2.23-2.84,39.5,8.1,86.23-17.35,87.35" transform="translate(-78.7 -40.68)" fill="none" stroke="#fff" stroke-linecap="round" stroke-linejoin="round" stroke-width="3"/><path d="M341.46,49.59C346,43.74,361,36.79,371,48.67c6.74,8-29.92,31.79-79.26,15.14-34.08-11.5-44,.71-46.17,9.68" transform="translate(-78.7 -40.68)" fill="none" stroke="#fff" stroke-linecap="round" stroke-linejoin="round" stroke-width="3"/><path d="M337.22,56.26s-3.54,11.23-38,3.92c-18.21-3.86-40.91-6.43-46.12,12.24" transform="translate(-78.7 -40.68)" fill="none" stroke="#fff" stroke-linecap="round" stroke-linejoin="round" stroke-width="3"/><path d="M392.9,91.3c1-.83,4.87-3.62,2.6-7.23s-11.71-3.89-14,15" transform="translate(-78.7 -40.68)" fill="none" stroke="#fff" stroke-linecap="round" stroke-linejoin="round" stroke-width="3"/><path d="M349.3,52.8c1-.83,4.24-4.16,8.47-2.22s4.56,10-17.6,11.95" transform="translate(-78.7 -40.68)" fill="none" stroke="#fff" stroke-linecap="round" stroke-linejoin="round" stroke-width="3"/></g></svg>