<svg id="Layer_1_copy" data-name="Layer 1 copy" xmlns="http://www.w3.org/2000/svg" viewBox="0 0 480.36 479.51"><title>coding the humanities_hamer diagonaal_wit</title><g id="layer2"><path id="path2478" d="M349.8,18.5l10.53,18.42-24,1.52,31,10.76L375,69.66l-7.53,2.77L332.15,66.5,299.6,62s-28-1.67-36.89.36-21.19,3-28.89,6.75-17.68,9.14-18.75,12.49,5.21,23.08,5.21,23.08l9.56,12.2,1.22,7.77L335,265.77l9.33-1.46,55.79,61.34L452.22,400l17.64,21.13,3.19,2,7.18,11.3s1.94,18.49-2.57,24.29-14.82,13.15-21.37,16.09-19.15,5.87-25.45,4.3-15-10.08-15-10.08l-2.11-11.46-24.33-35.37-48.51-59.61-41.47-65.5-.07-8.59L196.74,151.73l-5.48-.42L183.74,142,153,126.72s-17.09-3.38-25.44-1.75-24.46,4.47-32.49,10.18-17.2,18.3-17.2,18.3l-10.48,8.33L40.46,174.92s-8.18.64-14.56-3.45S1.49,139.62.92,134s-1.44-21.43.93-26.58S39.35,88.46,39.35,88.46l20.37,1.91S73.05,86,78.78,82s15.08-23.7,15.08-23.7l6.07-12.1,24.56-14S166.89,14,174.42,11.24,214.76,2.38,225.64.67s48.84.64,55.13,2.2S349.63,19.48,349.8,18.5Z" transform="translate(-0.28 -0.08)" fill="#fff"/></g></svg>